<?xml version="1.0" encoding="utf-8"?>
<!-- Generator: Adobe Illustrator 24.3.0, SVG Export Plug-In . SVG Version: 6.00 Build 0)  -->
<svg version="1.1" id="Layer_1" xmlns="http://www.w3.org/2000/svg" xmlns:xlink="http://www.w3.org/1999/xlink" x="0px" y="0px"
	 viewBox="0 0 250 150.3" style="enable-background:new 0 0 250 150.3;" xml:space="preserve">
<style type="text/css">
	.st0{fill:#F4A640;}
	.st1{fill:#ADCFD8;}
	.st2{fill:#55769F;}
	.st3{fill:#DAEEF7;}
	.st4{fill:#FEB546;}
	.st5{fill:#FF5B7E;}
	.st6{fill:#E03268;}
	.st7{fill:#02CCC0;}
	.st8{fill:#06BFAD;}
	.st9{fill:#284C7A;}
	.st10{opacity:0.5;fill:#55769F;}
	.st11{fill:#C4DFE8;}
	.st12{fill:#FFC0BB;}
	.st13{fill:#FF5500;}
	.st14{fill:#07085B;}
	.st15{fill:#F99893;}
	.st16{fill:#333333;}
	.st17{opacity:0.6;fill:#FC8D84;}
	.st18{fill:#050645;}
	.st19{fill:#FFFFFF;}
	.st20{fill:#070852;}
	.st21{fill:#10116B;}
	.st22{fill:#EDEDED;}
	.st23{fill:#26426E;}
	.st24{fill:#E0E0E0;}
	.st25{fill:#3A5782;}
	.st26{opacity:0.3;fill:#F99893;}
	.st27{fill:#F5577A;}
	.st28{fill:#DE4B6C;}
</style>
<g>
	<g>
		<path class="st0" d="M120.4,116.1L98,125L70.3,56.1l18.9-7.6c1.9-0.8,4.1,0.2,4.8,2.1L120.4,116.1z"/>
		<g>
			
				<rect x="74.5" y="56.6" transform="matrix(0.9846 -0.1746 0.1746 0.9846 -13.7416 18.1399)" class="st1" width="43.5" height="61.1"/>
			
				<rect x="82.3" y="63.1" transform="matrix(0.9846 -0.1746 0.1746 0.9846 -9.6346 17.0286)" class="st2" width="19.4" height="0.4"/>
			<rect x="78" y="62" transform="matrix(0.9846 -0.1746 0.1746 0.9846 -9.4474 16.9779)" class="st2" width="27.6" height="0.4"/>
			
				<rect x="76.1" y="67.6" transform="matrix(0.9846 -0.1746 0.1746 0.9846 -10.4091 17.2374)" class="st2" width="33.5" height="0.4"/>
			
				<rect x="76.4" y="69.6" transform="matrix(0.9846 -0.1746 0.1746 0.9846 -10.7638 17.3328)" class="st2" width="33.5" height="0.4"/>
			
				<rect x="77.2" y="73.8" transform="matrix(0.9846 -0.1746 0.1746 0.9846 -11.4732 17.5239)" class="st2" width="33.5" height="0.4"/>
			
				<rect x="77.5" y="75.8" transform="matrix(0.9846 -0.1746 0.1746 0.9846 -11.8278 17.6194)" class="st2" width="33.5" height="0.4"/>
			
				<rect x="77.9" y="77.9" transform="matrix(0.9846 -0.1746 0.1746 0.9846 -12.1825 17.715)" class="st2" width="33.5" height="0.4"/>
			
				<rect x="79.5" y="87" transform="matrix(0.9846 -0.1746 0.1746 0.9846 -13.7427 18.1353)" class="st2" width="33.5" height="0.4"/>
			
				<rect x="79.9" y="89.1" transform="matrix(0.9846 -0.1746 0.1746 0.9846 -14.1108 18.2347)" class="st2" width="33.5" height="0.4"/>
			
				<rect x="80.3" y="91.3" transform="matrix(0.9846 -0.1746 0.1746 0.9846 -14.4782 18.3333)" class="st2" width="33.5" height="0.4"/>
			
				<rect x="80.6" y="93.4" transform="matrix(0.9846 -0.1746 0.1746 0.9846 -14.8464 18.433)" class="st2" width="33.5" height="0.4"/>
			
				<rect x="81" y="95.5" transform="matrix(0.9846 -0.1746 0.1746 0.9846 -15.2141 18.5317)" class="st2" width="33.5" height="0.4"/>
			
				<rect x="81.4" y="97.7" transform="matrix(0.9846 -0.1746 0.1746 0.9846 -15.5821 18.6311)" class="st2" width="33.5" height="0.4"/>
			
				<rect x="81.8" y="99.8" transform="matrix(0.9846 -0.1746 0.1746 0.9846 -15.9497 18.7299)" class="st2" width="33.5" height="0.4"/>
		</g>
		<g>
			
				<rect x="71.2" y="56.3" transform="matrix(0.9671 -0.2545 0.2545 0.9671 -19.0539 26.5067)" class="st3" width="43.5" height="61.1"/>
			
				<rect x="77" y="63.2" transform="matrix(0.9671 -0.2545 0.2545 0.9671 -13.2838 24.1547)" class="st2" width="19.4" height="0.4"/>
			
				<rect x="72.6" y="62.1" transform="matrix(0.9671 -0.2545 0.2545 0.9671 -13.021 24.0477)" class="st2" width="27.6" height="0.4"/>
			
				<rect x="71.1" y="67.6" transform="matrix(0.9671 -0.2545 0.2545 0.9671 -14.372 24.5968)" class="st2" width="33.5" height="0.4"/>
			
				<rect x="71.7" y="69.6" transform="matrix(0.9671 -0.2545 0.2545 0.9671 -14.8703 24.7992)" class="st2" width="33.5" height="0.4"/>
			
				<rect x="72.7" y="73.7" transform="matrix(0.9671 -0.2545 0.2545 0.9671 -15.8672 25.2042)" class="st2" width="33.5" height="0.4"/>
			
				<rect x="73.3" y="75.7" transform="matrix(0.9671 -0.2545 0.2545 0.9671 -16.3657 25.4071)" class="st2" width="33.5" height="0.4"/>
			
				<rect x="73.8" y="77.8" transform="matrix(0.9671 -0.2545 0.2545 0.9671 -16.8641 25.6095)" class="st2" width="33.5" height="0.4"/>
			
				<rect x="76.2" y="86.7" transform="matrix(0.9671 -0.2545 0.2545 0.9671 -19.0568 26.5011)" class="st2" width="33.5" height="0.4"/>
			
				<rect x="76.7" y="88.8" transform="matrix(0.9671 -0.2545 0.2545 0.9671 -19.5733 26.7106)" class="st2" width="33.5" height="0.4"/>
			
				<rect x="77.3" y="90.9" transform="matrix(0.9671 -0.2545 0.2545 0.9671 -20.0902 26.9206)" class="st2" width="33.5" height="0.4"/>
			
				<rect x="77.8" y="93" transform="matrix(0.9671 -0.2545 0.2545 0.9671 -20.6071 27.1307)" class="st2" width="33.5" height="0.4"/>
			
				<rect x="78.4" y="95.1" transform="matrix(0.9671 -0.2545 0.2545 0.9671 -21.1239 27.3408)" class="st2" width="33.5" height="0.4"/>
			
				<rect x="78.9" y="97.2" transform="matrix(0.9671 -0.2545 0.2545 0.9671 -21.641 27.5511)" class="st2" width="33.5" height="0.4"/>
			
				<rect x="79.5" y="99.3" transform="matrix(0.9671 -0.2545 0.2545 0.9671 -22.1576 27.7608)" class="st2" width="33.5" height="0.4"/>
		</g>
		<path class="st4" d="M111.9,119.5l-45,18.1L40.6,72.2l37.8-23.3c2.1-1.3,4.9-0.4,5.9,1.9L111.9,119.5z"/>
	</g>
	<g>
		<path class="st5" d="M52.3,127l-6.4-0.1c-2.2-4-3.9-7.6-3.9-7.6c7.3-1.7,13.4-1,18.5,1l2.8,6.8l0.6-5.3
			c12.6,6.8,17.8,21.3,17.8,21.3s-22.3-2.4-27.1-4.6c-1.8-0.9-4.1-3.9-6.3-7.3C50.2,129.5,52.3,127,52.3,127z"/>
		<path class="st6" d="M42.1,119.3c0,0,28.7,12.1,39.7,23.8c0,0-22.3-2.4-27.1-4.6c-1.8-0.9-4.1-3.9-6.3-7.3
			c1.7-1.6,3.9-4.2,3.9-4.2l-6.4-0.1C43.7,122.8,42.1,119.3,42.1,119.3z"/>
		<path class="st5" d="M43,138.6c3.9-2.4,7.8-3.6,11.5-4.1c1.1,1.4,2.5,3,2.5,3l0.1-3.2c14.5-0.7,26.4,9,26.4,9
			c-8.4,5.3-15.5,6.7-21.4,6.3c-0.3-1.1-0.8-2.8-0.8-2.8l-1,2.6c-2.8-0.4-5.3-1.3-7.4-2.4c0.5-1.3,1.1-2.9,1.1-2.9l-3.1,1.8
			C45.7,142.6,43,138.6,43,138.6z"/>
		<path class="st6" d="M62.2,149.5c-0.3-1.1-0.8-2.8-0.8-2.8l-1,2.6c-2.8-0.4-5.3-1.3-7.4-2.4c0.5-1.3,1.1-2.9,1.1-2.9l-3.1,1.8
			c-5.2-3.2-7.9-7.2-7.9-7.2c16.9-1.9,40.6,4.7,40.6,4.7C75.2,148.5,68,150,62.2,149.5z"/>
	</g>
	<path class="st7" d="M127.4,51.7l5.2-3.8c-0.5-4.6-1.2-8.4-1.2-8.4c-6.9,2.8-11.5,6.9-14.5,11.5l1.6,7.2l-3.5-3.9
		c-6.4,12.9-2.3,27.7-2.3,27.7s16.9-14.8,19.5-19.4c1-1.7,1.1-5.6,0.9-9.6C130.6,52.5,127.4,51.7,127.4,51.7z"/>
	<path class="st8" d="M131.3,39.5c0,0-16.5,26.4-18.7,42.4c0,0,16.9-14.8,19.5-19.4c1-1.7,1.1-5.6,0.9-9.6c-2.3-0.3-5.6-1.2-5.6-1.2
		l5.2-3.8C132,43.3,131.3,39.5,131.3,39.5z"/>
	<path class="st7" d="M141.7,55.8c-4.5,0.3-8.4,1.5-11.8,3.3c-0.1,1.8-0.3,3.9-0.3,3.9l-2-2.5C115.5,68.2,111.3,83,111.3,83
		c9.9-0.5,16.6-3.5,21.1-7.2c-0.4-1.1-0.9-2.8-0.9-2.8l2.3,1.5c2-2,3.6-4.1,4.7-6.2c-1.2-0.8-2.6-1.7-2.6-1.7l3.6-0.4
		C141.9,60.6,141.7,55.8,141.7,55.8z"/>
	<path class="st8" d="M132.4,75.8c-0.4-1.1-0.9-2.8-0.9-2.8l2.3,1.5c2-2,3.6-4.1,4.7-6.2c-1.2-0.8-2.6-1.7-2.6-1.7l3.6-0.4
		c2.4-5.6,2.3-10.5,2.3-10.5C126.8,63.9,111.3,83,111.3,83C121.2,82.5,127.9,79.6,132.4,75.8z"/>
	<g>
		<path class="st6" d="M183.1,74.6h3.1c-0.5-0.3-1.1-0.6-1.8-0.6h-77.1c-4,0-7.3,2.9-7.3,6.5v4.1c0,3.6,3.3,6.5,7.3,6.5l76.3,0
			L183.1,74.6z"/>
		<path class="st4" d="M106.4,84.6v-4.1c0-3.6,3.3-6.5,7.3-6.5h-1.7c-4,0-7.3,2.9-7.3,6.5v4.1c0,3.6,3.3,6.5,7.3,6.5l1.6,0
			C109.7,91.1,106.4,88.2,106.4,84.6z"/>
		<path class="st4" d="M124.5,84.6v-4.1c0-3.6,3.3-6.5,7.3-6.5h-1.7c-4,0-7.3,2.9-7.3,6.5v4.1c0,3.6,3.3,6.5,7.3,6.5l1.6,0
			C127.7,91.1,124.5,88.2,124.5,84.6z"/>
		<path class="st5" d="M139.3,74c-3.9,0-7,2.8-7,6.2v4.6c0,3.4,3.1,6.2,7,6.2h48v-1h-0.2l-12.2-1l-2.5-8.6c0,0,4.8-4.7,5.1-4.9
			c0.3-0.1,9.6-0.5,9.6-0.5l0.2,0v-1H139.3z"/>
		<path class="st3" d="M184.2,82.5c0-5,2.9-7.4,2.9-7.4h-46.8c-3.5,0-6.4,2.5-6.4,5.7v3.6c0,3.1,2.9,5.7,6.4,5.7h46.8
			C187.1,90,184.2,88.8,184.2,82.5z"/>
		<path class="st3" d="M133.9,80.8v3.6c0,0.5,0.1,0.9,0.2,1.4c1.6-3.4,4.6-6.7,10.4-7.8c13.5-2.5,42.7-2.8,42.7-2.8h-46.8
			C136.8,75.1,133.9,77.6,133.9,80.8z"/>
	</g>
	<g>
		<path class="st9" d="M181.8,108.7h3.5c-0.6-0.4-1.3-0.7-2.1-0.7H96c-4.6,0-8.3,3.6-8.3,8.1v5.1c0,4.5,3.7,8.1,8.3,8.1l86.3,0
			L181.8,108.7z"/>
		<path class="st2" d="M132.3,108c-4.4,0-7.9,3.5-7.9,7.8v5.8c0,4.3,3.5,7.8,7.9,7.8h54.3V128h-0.2l-13.8-1.3l-2.8-10.7
			c0,0,5.4-5.9,5.7-6.1c0.4-0.2,10.9-0.6,10.9-0.6l0.2,0V108H132.3z"/>
		<path class="st3" d="M183.1,118.6c0-6.3,3.3-9.3,3.3-9.3h-53c-4,0-7.3,3.2-7.3,7.1v4.5c0,3.9,3.3,7.1,7.3,7.1h53
			C186.4,128,183.1,126.5,183.1,118.6z"/>
		<path class="st3" d="M126.1,116.4v4.5c0,0.6,0.1,1.2,0.2,1.7c1.8-4.3,5.2-8.4,11.7-9.7c15.2-3.1,48.3-3.6,48.3-3.6h-53
			C129.4,109.3,126.1,112.5,126.1,116.4z"/>
	</g>
	<g>
		<path class="st7" d="M84.8,91.6h-3.5c0.6-0.3,1.3-0.5,2.1-0.5h87.3c4.6,0,8.3,2.9,8.3,6.4v4.1c0,3.6-3.7,6.4-8.3,6.4l-86.3,0
			L84.8,91.6z"/>
		<path class="st8" d="M134.4,91.1c4.4,0,7.9,2.8,7.9,6.2v4.6c0,3.4-3.5,6.2-7.9,6.2H80v-1h0.2l13.8-1l2.8-8.5c0,0-5.4-4.7-5.7-4.8
			c-0.4-0.1-10.9-0.5-10.9-0.5l-0.2,0v-1H134.4z"/>
		<path class="st3" d="M83.6,99.5c0-5-3.3-7.4-3.3-7.4h53c4,0,7.3,2.5,7.3,5.6v3.6c0,3.1-3.3,5.6-7.3,5.6h-53
			C80.3,107,83.6,105.8,83.6,99.5z"/>
		<path class="st3" d="M140.6,97.7v3.6c0,0.5-0.1,0.9-0.2,1.4c-1.8-3.4-5.2-6.7-11.7-7.7c-15.2-2.5-48.3-2.8-48.3-2.8h53
			C137.3,92.1,140.6,94.6,140.6,97.7z"/>
		<path class="st10" d="M163,101.6v-4.1c0-3.6-3.7-6.4-8.3-6.4h8.3c4.6,0,8.3,2.9,8.3,6.4v4.1c0,3.6-3.7,6.4-8.3,6.4l-8.2,0
			C159.4,108,163,105.1,163,101.6z"/>
	</g>
	<path class="st4" d="M78.2,130h-3.8c0.6-0.4,1.4-0.6,2.2-0.6h94.1c4.9,0,8.9,3.2,8.9,7.2v4.6c0,4-4,7.2-8.9,7.2l-93.1,0L78.2,130z"
		/>
	<path class="st0" d="M131.7,129.4c4.7,0,8.5,3.1,8.5,6.9v5.2c0,3.8-3.8,6.9-8.5,6.9H73.1v-1.2h0.2l14.9-1.1l3-9.5
		c0,0-5.8-5.3-6.2-5.4c-0.4-0.1-11.7-0.5-11.7-0.5l-0.2,0v-1.1H131.7z"/>
	<path class="st3" d="M76.9,138.8c0-5.6-3.6-8.3-3.6-8.3h57.2c4.3,0,7.8,2.8,7.8,6.3v4c0,3.5-3.5,6.3-7.8,6.3H73.3
		C73.3,147.2,76.9,145.8,76.9,138.8z"/>
	<path class="st3" d="M138.3,136.9v4c0,0.5-0.1,1-0.2,1.5c-1.9-3.8-5.6-7.5-12.7-8.6c-16.4-2.7-52.1-3.2-52.1-3.2h57.2
		C134.8,130.6,138.3,133.4,138.3,136.9z"/>
	<path class="st11" d="M209,150.3H50.6c-0.6,0-1-0.5-1-1v0c0-0.6,0.5-1,1-1H209c0.6,0,1,0.5,1,1l0,0
		C210,149.8,209.5,150.3,209,150.3z"/>
	<polygon class="st0" points="48.6,79.4 79.2,61.9 83.4,70.1 52,86.7 	"/>
	<path class="st7" d="M106.3,29.5c0,0-0.2,2.4-2.1,2.5c1.9,0.2,2.1,2.5,2.1,2.5s0.2-2.4,2.1-2.5C106.6,31.8,106.3,29.5,106.3,29.5z"
		/>
	<path class="st4" d="M73.8,11.1c0,0-0.3,3.2-2.8,3.4c2.5,0.2,2.8,3.4,2.8,3.4s0.3-3.2,2.8-3.4C74.2,14.3,73.8,11.1,73.8,11.1z"/>
	<path class="st5" d="M60.7,39.5c0,0-0.2,2.1-1.9,2.3c1.7,0.1,1.9,2.3,1.9,2.3s0.2-2.1,1.9-2.3C60.9,41.7,60.7,39.5,60.7,39.5z"/>
	<path class="st5" d="M209.8,90.4c0,0-0.3,3.2-2.8,3.4c2.5,0.2,2.8,3.4,2.8,3.4s0.3-3.2,2.8-3.4C210.1,93.6,209.8,90.4,209.8,90.4z"
		/>
	<path class="st7" d="M32.1,62.5c0,0-0.3,3.2-2.8,3.4c2.5,0.2,2.8,3.4,2.8,3.4s0.3-3.2,2.8-3.4C32.4,65.6,32.1,62.5,32.1,62.5z"/>
	<path class="st7" d="M216.5,59.1c0,0-0.3,3.2-2.8,3.4c2.5,0.2,2.8,3.4,2.8,3.4s0.3-3.2,2.8-3.4C216.8,62.2,216.5,59.1,216.5,59.1z"
		/>
	<path class="st5" d="M138.3,9.2c0,0-0.3,3.2-2.8,3.4c2.5,0.2,2.8,3.4,2.8,3.4s0.3-3.2,2.8-3.4C138.6,12.4,138.3,9.2,138.3,9.2z"/>
	<path class="st4" d="M192,35.7c0,0-0.2,2-1.5,2.1C191.8,38,192,40,192,40s0.2-2,1.5-2.1C192.2,37.7,192,35.7,192,35.7z"/>
	<g>
		<path class="st12" d="M82,133.4l-4.2,0.2l-0.5,12.6l-2.2,1l0.1,0.5l0.8,0.2c0,0,2.6,0,2.7,0c0.1,0,0.6-0.6,0.6-0.6l-0.1-0.1
			l0.4-0.3L82,133.4z"/>
		<path class="st12" d="M93.5,147.2c0,0-2.1-1.1-2.2-1l0.5-12.8l-5.2,0l2.4,13.4l0.3,0.2c-0.1,0.2-0.1,0.4-0.1,0.5
			c0,0.2,0.9,0.2,1.2,0.2c0.3,0.1,1.3,0.2,1.9,0.3c0.6,0.2,1.4-0.3,1.4-0.3L93.5,147.2z"/>
		<path class="st13" d="M93.6,98.9c-0.6-1.6-1.2-1-2.3-2.9C91.2,95.7,91,95.3,91,95c-0.3-1.1-0.8-2.1-1.7-2.8
			c-2.6-2.2-5.5-1.2-5.5-1.2s0.8,4.3,0.9,5.2c-0.6,0.9-1.3,1.8-1.3,1.8s-1.4,7.1,0.8,7.7c2.1,0.6,2.5-0.4,3.6-0.9
			c1-0.5,2.1,0.9,3.6-0.1c1.2-0.7,0.6-2.5,1.2-2.9C93.2,101.4,94.3,100.6,93.6,98.9z"/>
		<path class="st13" d="M82.7,94.5c0,0-1-0.6-1.9-1.1l5.7-6.3c0,0-1.7-0.3-1.8-0.3c-0.1,0-2.6,0.8-2.6,0.8l-2.6,0.7
			c-1.9,7.1-4.4,8.4-4.4,8.4c-0.3,0.2-0.6,0.5-0.8,0.9c-1,1.6,0,2.5,0.6,3c0.6,0.5-0.4,2.1,0.7,3c1.4,1.2,2.6,0.1,3.5,0.8
			c0.9,0.7,1.1,1.7,3.3,1.5c2.2-0.2,2.2-7.4,2.2-7.4S82.7,94.5,82.7,94.5z"/>
		<path class="st5" d="M92.3,107.4c0,0,1.9,9,1.3,9.9c-0.5,1-7.7,1.3-7.7,1.3l-0.3-11.5l2.7-4.1L92.3,107.4z"/>
		<path class="st14" d="M90,117.8l-1.3-3.7c0,0-4.4-1.6-4.7-1.6c-0.3,0-4,1.6-4,1.6s-1.1,2.3-1.4,2.7c-0.1,0.2,0.2,1.6,0.4,2.9
			l-1.6,0.1l-1,23.1c0,0,2.3,1.2,4.7,0.2l2-20.2l1.7-0.3l2.6,20c0,0,2.1,1.6,5.1,0.3l-2-22.3C90.6,119.7,90.4,118.7,90,117.8z"/>
		<path class="st12" d="M81.5,100.3c0,0,2-0.4,5.6-0.2c3.6,0.3-1.7,2.3-1.7,2.3s-1.9-0.1-1.9-0.1C83.4,102.3,81.5,100.3,81.5,100.3z
			"/>
		<rect x="82.9" y="98.2" class="st12" width="3.2" height="5.7"/>
		<path class="st15" d="M86.1,99.2v-1.9h-3.2v1.6C83.6,99.3,84.6,99.5,86.1,99.2z"/>
		<path class="st12" d="M90.6,91.9c-0.3-0.2-0.7-0.1-1,0c0.1-2.9-2.3-5.4-5.3-5.3c-3-0.1-5.4,2.3-5.3,5.3c-0.3-0.2-0.7-0.2-1,0
			c-0.6,0.3-0.8,1.1-0.4,1.9c0.4,0.7,1.1,1.1,1.7,0.8c0.1,0,0.2-0.1,0.2-0.2c0.3,2.4,2.3,4.2,4.7,4.2c2.4,0,4.4-1.8,4.7-4.2
			c0.1,0.1,0.1,0.1,0.2,0.2c0.6,0.3,1.4-0.1,1.7-0.8C91.4,93.1,91.2,92.2,90.6,91.9z"/>
		<path class="st16" d="M83,93c0,0.2-0.2,0.5-0.4,0.5c-0.2,0-0.5-0.2-0.5-0.4c0-0.2,0.2-0.5,0.4-0.5C82.8,92.6,83,92.8,83,93z"/>
		<path class="st16" d="M86.9,93.1c0,0.2-0.2,0.5-0.4,0.5c-0.2,0-0.5-0.2-0.5-0.4c0-0.2,0.2-0.5,0.4-0.5
			C86.6,92.6,86.8,92.8,86.9,93.1z"/>
		<path class="st13" d="M83.5,92.1c-0.2-0.1-0.4-0.1-0.6-0.2c-0.2,0-0.4,0-0.6,0c-0.2,0-0.4,0.1-0.6,0.2l-0.1,0c0,0,0,0-0.1,0
			l-0.1,0.1c-0.1,0-0.2,0.1-0.3,0.2c0.1-0.1,0.1-0.2,0.2-0.3c0.1-0.1,0.2-0.2,0.3-0.2c0.2-0.1,0.4-0.2,0.7-0.3c0.2,0,0.5,0,0.7,0.1
			C83.2,91.8,83.4,91.9,83.5,92.1z"/>
		<path class="st13" d="M85.3,92.1c0.1-0.2,0.3-0.3,0.6-0.4c0.2-0.1,0.5-0.1,0.7-0.1c0.2,0,0.5,0.1,0.7,0.2c0.1,0.1,0.2,0.2,0.3,0.2
			c0.1,0.1,0.1,0.2,0.2,0.3c-0.1,0-0.2-0.1-0.3-0.2l-0.1-0.1c0,0,0,0-0.1,0l-0.1,0c-0.2-0.1-0.4-0.1-0.6-0.1c-0.2,0-0.4,0-0.6,0
			C85.7,92,85.5,92,85.3,92.1z"/>
		<path class="st15" d="M84.6,92.4c0,0.2,0,0.5,0,0.7c0,0.1,0.1,0.2,0.1,0.3c0,0.1,0.1,0.2,0.2,0.3c0.1,0.1,0.2,0.1,0.2,0.2
			c0,0.1,0,0.2,0,0.3c-0.1,0.2-0.3,0.3-0.5,0.4c0.2,0,0.5-0.1,0.6-0.3c0.1-0.1,0.1-0.3,0.1-0.4c0-0.1-0.1-0.2-0.2-0.3
			c-0.1-0.1-0.1-0.2-0.2-0.3c0-0.1-0.1-0.2-0.1-0.3C84.7,92.8,84.7,92.6,84.6,92.4z"/>
		<path class="st15" d="M83.1,95.2c0.1,0.1,0.2,0.2,0.4,0.2c0.1,0.1,0.3,0.1,0.4,0.2c0.3,0.1,0.6,0.2,0.9,0.2c0.3,0,0.6-0.1,0.8-0.2
			c0.3-0.1,0.5-0.3,0.7-0.5c-0.1,0.1-0.2,0.2-0.3,0.3c-0.1,0.1-0.3,0.2-0.4,0.2c-0.1,0.1-0.3,0.1-0.4,0.1c-0.1,0-0.3,0-0.5,0
			c-0.3,0-0.6-0.1-0.9-0.2C83.6,95.5,83.4,95.4,83.1,95.2z"/>
		<path class="st7" d="M90.8,101.4c-1.7-1.7-4.2-1.3-4.2-1.3c-0.3,0.3-0.5,0.5-0.8,0.6c-0.4,0.2-0.9,0.4-1.4,0.4c0,0,0,0,0,0
			c0,0,0,0,0,0c-0.5,0-1-0.2-1.4-0.4c-0.3-0.2-0.5-0.4-0.8-0.6c0,0-2.4-0.4-4.2,1.3c-1.7,1.7-3.5,5.4-3.5,5.4s2.2,2,4.3,2.3
			c0,0,1,4.7,1.2,5c0,0,1.1,0.5,2.6,0.8c0.6,0.1,1.1,0.2,1.6,0.2c0,0,0.1,0,0.1,0c0,0,0.1,0,0.1,0c0.5,0,1.1,0,1.6-0.2
			c1.5-0.3,2.6-0.8,2.6-0.8c0.2-0.3,1.2-5,1.2-5c2.1-0.3,4.3-2.3,4.3-2.3S92.5,103.1,90.8,101.4z"/>
		<g>
			<path class="st6" d="M84.6,112.9c0,0,0.6-0.1,1,0.4l0,1.2l-0.8,0.4c0,0-1-0.8-0.9-0.9C83.9,114,84.6,112.9,84.6,112.9z"/>
			<polygon class="st6" points="86.6,120.9 76.1,123.9 75.1,116.3 85.6,113.2 			"/>
			<polygon class="st3" points="75.3,122.7 76.2,123.4 86.2,120.6 85.3,113.4 84.6,113.1 			"/>
			<polygon class="st3" points="86.2,120.6 85.5,120 84.2,118.5 84.2,114.6 84.6,113.1 85.3,113.4 			"/>
			<polygon class="st5" points="85.5,120 75,123 74.1,115.9 84.6,112.9 			"/>
		</g>
		<path class="st3" d="M80.3,105c-0.2,0.3-0.5,0.6-0.7,0.9c-0.2,0.3-0.4,0.6-0.5,1c-0.1,0.3-0.3,0.7-0.3,1.1c-0.1,0.4-0.1,0.7,0,1.1
			c-0.1-0.4-0.2-0.8-0.1-1.1c0-0.4,0.1-0.8,0.3-1.1c0.2-0.4,0.3-0.7,0.6-1C79.8,105.5,80.1,105.3,80.3,105z"/>
		<path class="st12" d="M78.2,117.9c-1.8-3.1-1-6.9-0.3-9c-1.4-0.5-2.8-1.5-3.3-1.9c-2.9,6.6,2,12.3,2,12.3l0,0
			c0.1,0.2,0.2,0.4,0.2,0.4c1.2,2.1,1.2,2.1,1.3,2.1c0.1,0-0.1-1,0-1c0.1,0,0.8,1.2,0.9,1.1c0.1-0.1-0.5-1.3-0.4-1.3
			c0.1,0,0.8,1.2,0.9,1.1c0.2-0.1-0.7-1.4-0.5-1.4c0.2,0,0.9,1.3,1.1,1.2c0.1-0.1-0.7-1.6-1-2.1c0-0.1,0-0.1,0.1-0.1
			c1.1,0.1,1.2,0,1.2-0.1C80.3,118.9,79,118.3,78.2,117.9z"/>
		<path class="st6" d="M90.5,100.4c-2.3,8.1,0.5,10.5,0.5,10.6l-0.4,1.9c0,0-5.5-3.6-2-13.2c0.1-0.3,0.4-0.4,0.7-0.3l1.1,0.5
			C90.4,99.9,90.5,100.2,90.5,100.4z"/>
		<path class="st12" d="M95.4,120.2c0,0-0.1-0.2-0.1-0.4c0,0,0,0,0,0h0l-0.1-0.8c-0.1-1.8-0.4-8.1-1.3-11.8
			c-0.7,0.6-2.3,1.7-3.8,1.9c1,2,3,6.6,3.3,10.8c-0.4,0.8-0.8,1.9-0.8,2c0.1,0.1,0.2,0.1,0.9-0.6c0,0,0.1,0,0.1,0
			c0.1,0.5,0.4,2.1,0.6,2.1c0.2,0-0.1-1.4,0-1.5c0.1-0.1,0.4,1.3,0.5,1.3c0.2,0-0.1-1.3,0-1.3c0.1,0,0.4,1.2,0.5,1.2
			c0.1,0-0.1-1.3-0.1-1.3c0.1-0.1,0.5,0.8,0.6,0.8C95.8,122.5,95.9,122.5,95.4,120.2z"/>
		<path class="st13" d="M78.2,91.9c0,0-0.3-6,6.4-6.4c0,0-0.2,5.9-5.5,6.5l-0.4-0.8L78.2,91.9z"/>
		<path class="st13" d="M84.6,85.5c0,0,5.5-0.3,5.7,6.4c0,0-0.4,0-0.7,0.1c0,0-4.3-1.1-5.4-5.3L84.6,85.5z"/>
		<path class="st14" d="M77,147.7c-1.1,0.1-1.6-0.1-1.8-0.5l-0.7,0.5c-0.3,0.2-0.2,0.6,0.2,0.6h4.8c0.2,0,0.3-0.1,0.3-0.3v-1.3
			C79.4,147,78.6,147.5,77,147.7z"/>
		<path class="st14" d="M91.7,147.7c1.1,0.1,1.6-0.1,1.8-0.5l0.7,0.5c0.3,0.2,0.2,0.6-0.2,0.6h-4.8c-0.2,0-0.3-0.1-0.3-0.3v-1.3
			C89.2,147,90,147.5,91.7,147.7z"/>
	</g>
	<g>
		<g>
			<path class="st3" d="M192.5,104.5l5.6,0.4l-1.8,4.5l-2.8-0.2l-1.2,3.8c-0.3-0.1-0.5-0.2-0.5-0.3c-0.1-0.1-0.4-1.9-0.7-3.7
				L192.5,104.5z"/>
			<path class="st6" d="M195.7,146v2c0,0.2,0.1,0.3,0.3,0.3h4.6c0.3,0,0.5-0.4,0.2-0.6l-2.6-1.6C198.2,146,197.2,146.7,195.7,146z"
				/>
			<path class="st12" d="M186.7,62.7c-0.1,0-0.1,0-0.1-0.1c0.1-0.5,0.5-2.3,0.3-2.3c-0.2-0.1-0.5,1.5-0.7,1.5c-0.2,0,0.2-1.5,0-1.5
				c-0.2-0.1-0.5,1.3-0.6,1.3c-0.1,0,0.1-1.3,0-1.4c-0.1-0.1-0.4,1.3-0.5,1.3c-0.1,0-0.2-1-0.3-1c-0.1,0-0.2,0-0.6,2.4
				c0,0,0,0.9-0.2,1.1l0.3,0.7l1.1,0c0,0,2.4-2.1,2.3-2.3C187.9,62.3,187.8,62.3,186.7,62.7z"/>
			<path class="st12" d="M197.9,63.2c0,0.1,0.1,0,0.2,0c0.1-0.5,0.6-2.2,0.8-2.2c0.2,0-0.2,1.5-0.1,1.6c0.1,0.1,0.5-1.4,0.7-1.4
				c0.2,0-0.2,1.4-0.1,1.4c0.1,0,0.5-1.2,0.7-1.3c0.1,0-0.2,1.4-0.2,1.4c0.1,0.1,0.6-0.8,0.7-0.8c0.1,0,0.1,0.1-0.5,2.4
				c0,0-0.4,0.8-0.3,1.1L199,66l-1-0.5c0,0-1.1-3-1-3.1C197,62.4,197.1,62.4,197.9,63.2z"/>
			<polygon class="st12" points="189.3,82.6 189.3,86.7 185.3,86.1 185.9,81.5 			"/>
			<path class="st17" d="M185.6,83.6l0.3-2.1l3.3,1.5l0,0.8C188.5,84,187,84.2,185.6,83.6z"/>
			<path class="st6" d="M182,145.7v2.2c0,0.2-0.1,0.3-0.3,0.3h-5c-0.4,0-0.5-0.5-0.2-0.7l2.8-1.8C179.3,145.7,180.4,146.5,182,145.7
				z"/>
			<g>
				<g>
					<g>
						<path class="st14" d="M177.4,109.1c0-0.5-1.2,0.9-1.2,0.5c0.5-7.6,15.4-1.2,15.4-1.2l3.6,2.7l4.1,35.5c0,0-2.2,0.6-3.7,0.1
							l-9.1-30.4l-1.1-0.4C185.5,115.9,180.5,112.4,177.4,109.1z"/>
					</g>
				</g>
			</g>
			<g>
				<g>
					<g>
						<path class="st8" d="M176.2,110c0,0.1,0,0.2,0,0.3C176.2,110.2,176.2,110.1,176.2,110z"/>
					</g>
					<g>
						<path class="st8" d="M176.2,110.3c0,0.1,0,0.2,0,0.3C176.2,110.5,176.2,110.4,176.2,110.3z"/>
					</g>
					<g>
						<path class="st8" d="M176.2,110.6c0,0.1,0,0.2,0,0.3C176.2,110.8,176.2,110.7,176.2,110.6z"/>
					</g>
					<g>
						<path class="st8" d="M176.2,109.7c0,0.1,0,0.2,0,0.3C176.2,109.8,176.2,109.7,176.2,109.7z"/>
					</g>
					<g>
						<path class="st14" d="M176.2,107.9c3.1,3.2,9.2,7.9,9.2,7.9l1.1,0.4l-1.1-0.4l-3.5,30.7c0,0-2.5,0.5-3.9-0.3
							C178.1,146.3,176,117,176.2,107.9z"/>
					</g>
					<g>
						<path class="st8" d="M199.4,146.6c0,0-1,0.3-2,0.3C198.4,146.8,199.4,146.6,199.4,146.6L199.4,146.6z"/>
					</g>
					<g>
						<path class="st8" d="M196.1,146.8c0.1,0,0.2,0,0.3,0C196.3,146.8,196.2,146.8,196.1,146.8z"/>
					</g>
					<g>
						<path class="st8" d="M197.4,146.9c-0.3,0-0.5,0-0.8,0C196.8,146.9,197.1,146.9,197.4,146.9z"/>
					</g>
				</g>
			</g>
			<path class="st18" d="M195.3,111.1l0.6,5.1c-1.6,0.6-5.3,1.2-8.2-5c-0.9-2-1.1-3.4-1-4.4c2.7,0.7,4.9,1.7,4.9,1.7L195.3,111.1z"
				/>
			<path class="st3" d="M181.6,90.5c0.2,0,2.8-5.9,2.8-5.9c2.2,1.6,5.2,0.5,5.2,0.5s12.1,22.1,4,25.6c-8.1,3.5-15.8-0.7-15.8-0.7
				s-1.7-4.5-1.7-4.7C176.1,105.1,181.4,90.5,181.6,90.5z"/>
			<path class="st2" d="M197.3,65.6c0,0,0.5,10.5-0.5,12.4c-3.3,6.4-7.3,7-7.3,7s-1.4,22.3-0.2,27.7c0,0,3.8,1.2,9.5-1.5
				c0,0-4.3-17.3-4.1-19.5c0,0,6.9-6.2,7.1-13.4c0.2-7.2-1.7-13.7-1.7-13.7L197.3,65.6z"/>
			<path class="st2" d="M178.7,111.9c0,0,0.4-8.3,2.3-16.2c1.9-7.9,3.3-11.2,3.3-11.2c-2.5-2.8-2.1-5.3-1.9-8.6
				c0.3-3.8,4-11.4,4-11.4l-2.5-1.6c-12,14.4-5.3,25.9-5.3,25.9s-4.5,15.9-5.1,20.7C173.5,109.5,175.9,110.9,178.7,111.9z"/>
			<path class="st19" d="M194.6,91.8c-0.1-0.1-0.3-0.3-0.5-0.5c-0.5-0.6-0.8-1.3-1-2.1c0.1,0.3,0.4,1.3,1,2c0.3,0.3,0.4,0.4,0.6,0.5
				c0,0,0,0,0,0c0,0,0,0,0,0c-0.2,0-0.4,0-0.9-0.2c-0.3-0.2-0.5-0.3-0.8-0.6c0.2,0.1,0.5,0.4,0.8,0.5
				C194,91.7,194.3,91.8,194.6,91.8z"/>
			<path class="st19" d="M178.7,88.8c0.2-0.1,0.4-0.3,0.5-0.5c0.5-0.6,0.8-1.3,1-2c-0.2,0.8-0.4,1.5-1,2.1c-0.2,0.2-0.3,0.4-0.5,0.5
				c0.1,0,0.2,0,0.3,0c0.1,0,0.3-0.1,0.4-0.2c0.3-0.1,0.6-0.3,0.8-0.5c-0.2,0.2-0.5,0.4-0.8,0.6c-0.1,0.1-0.3,0.1-0.4,0.2
				C179,88.9,178.8,88.9,178.7,88.8L178.7,88.8L178.7,88.8z"/>
			<polygon class="st14" points="183.5,74.2 183.3,77 183.7,77.3 184.5,73.8 			"/>
			<path class="st15" d="M184.1,76.7c0.1,0.6-0.2,1.2-0.7,1.3c-0.5,0.1-1-0.3-1.2-1c-0.1-0.6,0.2-1.2,0.7-1.3
				C183.5,75.6,184,76.1,184.1,76.7z"/>
			<path class="st12" d="M183.4,79.3c-0.1-0.8-0.1-1.7,0-2.4c0-0.2,0-0.3,0-0.5c0-0.6,0.1-1.3,0.4-1.9c0.9-2,3-3.3,5.2-3
				c3,0.4,4.9,3.2,4.4,6c0.3-0.1,0.7-0.1,1,0.1c0.5,0.4,0.6,1.2,0.1,1.9c-0.5,0.7-1.3,0.9-1.8,0.5c-0.1-0.1-0.1-0.1-0.2-0.2
				c-0.7,2.4-3.1,3.9-5.5,3.3C185.1,82.9,183.7,81.4,183.4,79.3z"/>
			<path class="st16" d="M188.9,77.1c-0.1,0.3,0.1,0.6,0.4,0.6c0.2,0,0.3-0.1,0.4-0.3c0.1-0.3-0.1-0.6-0.4-0.6
				C189.1,76.8,188.9,76.9,188.9,77.1z"/>
			<path class="st16" d="M185.1,76.5c-0.1,0.3,0.1,0.6,0.4,0.6c0.2,0,0.3-0.1,0.4-0.3c0.1-0.3-0.1-0.6-0.4-0.6
				C185.3,76.2,185.2,76.3,185.1,76.5z"/>
			<path class="st15" d="M188.3,80.2c-0.2,0.1-0.5,0.2-0.7,0.2c-0.2,0-0.5,0.1-0.7,0c-0.2,0-0.5-0.1-0.7-0.2
				c-0.2-0.1-0.4-0.3-0.6-0.5c0.2,0.2,0.3,0.4,0.5,0.5c0.2,0.1,0.4,0.2,0.7,0.3c0.3,0,0.5,0,0.8,0C187.8,80.4,188.1,80.3,188.3,80.2
				z"/>
			<path class="st14" d="M188.5,76.2c0.2,0,0.4-0.1,0.7-0.1c0.2,0,0.4,0,0.6,0.1c0.2,0.1,0.4,0.1,0.6,0.2c0.2,0.1,0.4,0.3,0.5,0.4
				c-0.1-0.2-0.2-0.4-0.4-0.6c-0.2-0.2-0.4-0.3-0.6-0.4c-0.2-0.1-0.5-0.1-0.7,0C188.9,75.9,188.7,76,188.5,76.2z"/>
			<path class="st14" d="M186.7,75.9c-0.1-0.2-0.3-0.4-0.5-0.5c-0.2-0.1-0.4-0.2-0.7-0.2c-0.2,0-0.5,0-0.7,0.1
				c-0.2,0.1-0.4,0.3-0.6,0.4c0.2,0,0.4-0.1,0.6-0.2c0.2-0.1,0.4-0.1,0.6-0.1c0.2,0,0.4,0.1,0.6,0.1
				C186.3,75.7,186.5,75.8,186.7,75.9z"/>
			<path class="st15" d="M187.5,76.4c-0.2,0.2-0.4,0.4-0.6,0.6c-0.2,0.2-0.3,0.4-0.5,0.7c-0.1,0.1-0.2,0.3-0.2,0.5
				c0,0.1,0,0.2,0.1,0.3c0.1,0.1,0.2,0.2,0.3,0.3c0.1,0.1,0.2,0.2,0.4,0.2c-0.2-0.2-0.4-0.4-0.6-0.6c0,0-0.1-0.1-0.1-0.2
				c0,0,0-0.1,0-0.2c0-0.1,0.1-0.2,0.2-0.4c0.1-0.2,0.3-0.5,0.5-0.7C187.2,76.9,187.4,76.7,187.5,76.4z"/>
			<path class="st14" d="M184,71.1c0,0-1.5-0.3,0.3-1.2c1.8-0.9,6.3-1.4,8.7,0.6c0,0,0.8-1,1.5-0.6c0.7,0.4-0.7,0.9-0.7,0.9
				s1,0.2,1.2,0.7c0.1,0.4-0.5,0.3-0.8,0.2c0.5,0.2,2.1,1.7,0.1,5.8c-0.4-0.2-2.7-3.5-2.7-3.5s-4.7,1.6-3.9,0.3c0,0-5.5,1.4-4.2-1.1
				C183.5,73.3,181.4,73,184,71.1z"/>
			<path class="st14" d="M194.3,77.7c0,0-0.4-0.3-0.9-0.1c-0.5,0.2-0.9,1.4-0.9,1.4s-1.8,1.5-0.9-4.9c0.9-6.3,2,1,2,1L194.3,77.7z"
				/>
		</g>
		<g>
			<path class="st6" d="M182,57.8l-0.8-0.1c0.1-0.1,0.3-0.1,0.5-0.1l19.4,1.9c1,0.1,1.8,0.9,1.7,1.8l-0.1,1c-0.1,0.9-1,1.5-2,1.4
				L181.5,62L182,57.8z"/>
			<path class="st4" d="M201.1,62.3l0.1-1c0.1-0.9-0.7-1.7-1.7-1.8l0.4,0c1,0.1,1.8,0.9,1.7,1.8l-0.1,1c-0.1,0.9-1,1.5-2,1.4l-0.4,0
				C200.1,63.8,201,63.2,201.1,62.3z"/>
			<path class="st4" d="M196.5,61.8l0.1-1c0.1-0.9-0.7-1.7-1.7-1.8l0.4,0c1,0.1,1.8,0.9,1.7,1.8l-0.1,1c-0.1,0.9-1,1.5-2,1.4l-0.4,0
				C195.5,63.4,196.4,62.7,196.5,61.8z"/>
			<path class="st5" d="M193,58.8c1,0.1,1.7,0.9,1.6,1.7l-0.1,1.2c-0.1,0.9-0.9,1.5-1.9,1.4l-12.1-1.2l0-0.3l0,0l3.1,0l0.8-2.1
				c0,0-1.1-1.3-1.2-1.3c-0.1,0-2.4-0.4-2.4-0.4l0,0l0-0.3L193,58.8z"/>
			<path class="st3" d="M181.5,59.8c0.1-1.3-0.6-1.9-0.6-1.9l11.8,1.2c0.9,0.1,1.6,0.8,1.5,1.6l-0.1,0.9c-0.1,0.8-0.9,1.4-1.8,1.3
				l-11.8-1.2C180.6,61.6,181.4,61.4,181.5,59.8z"/>
			<path class="st3" d="M194.2,60.6l-0.1,0.9c0,0.1,0,0.2-0.1,0.3c-0.3-0.9-1-1.8-2.4-2.2c-3.3-1-10.7-1.8-10.7-1.8l11.8,1.2
				C193.7,59.1,194.3,59.8,194.2,60.6z"/>
		</g>
	</g>
	<g>
		<path class="st2" d="M158.5,87.6l-0.8,1.8c-0.1,0.1,0,0.3,0.1,0.4l4.2,1.9c0.3,0.1,0.6-0.2,0.4-0.5l-1.6-2.5
			C160.8,88.7,159.5,88.9,158.5,87.6z"/>
		<path class="st2" d="M153.2,87.6l-0.8,1.8c-0.1,0.1,0,0.3,0.1,0.4l4.2,1.9c0.3,0.1,0.6-0.2,0.4-0.5l-1.6-2.5
			C155.5,88.7,154.2,88.9,153.2,87.6z"/>
		<path class="st14" d="M144.2,38.4l-0.4,2.8l-0.9-3.7c0,0,1.3-0.6,1.4-0.4C144.2,37.3,144.2,38.4,144.2,38.4z"/>
		<polygon class="st12" points="136.7,44.4 136.3,49.2 140.5,49 140,44.8 		"/>
		<path class="st15" d="M140.3,46.8l-0.2-2l-3.4-0.3l-0.1,1.7C137.2,46.7,138.4,47.4,140.3,46.8z"/>
		<g>
			<path class="st15" d="M142.9,41.2c-0.3,0.5-0.1,1.1,0.3,1.3c0.4,0.2,1-0.1,1.2-0.6c0.3-0.5,0.1-1.1-0.3-1.3
				C143.7,40.4,143.1,40.6,142.9,41.2z"/>
			<path class="st12" d="M143.5,41.6c0-0.1,0.1-0.3,0.1-0.4c0.1-0.5,0.2-1.1,0.1-1.7c-0.3-2-1.9-3.5-3.9-3.8c-2.7-0.4-5,1.6-5.2,4.2
				c-0.3-0.2-0.6-0.2-0.9-0.1c-0.6,0.2-0.8,0.9-0.5,1.6c0.3,0.7,0.9,1.1,1.5,0.9c0.1,0,0.1-0.1,0.2-0.1c0.1,2.2,1.8,4.1,4,4.2
				c1.1,0,2.1-0.3,2.8-1C142.8,44.5,143.3,42.8,143.5,41.6z"/>
			<path class="st15" d="M140.2,40.1c0,0.3,0,0.5,0,0.8c0,0.2,0,0.5,0.1,0.7c0.1,0.1,0.2,0.2,0.2,0.4c0,0.2-0.1,0.3-0.2,0.4
				c-0.2,0.2-0.5,0.2-0.8,0.2c0.3,0,0.5-0.1,0.6-0.3c0.1-0.1,0.1-0.2,0.1-0.3c0-0.1,0-0.1-0.2-0.3c-0.1-0.1-0.1-0.3-0.1-0.4
				c0-0.1,0-0.3,0-0.4C140,40.6,140.1,40.3,140.2,40.1z"/>
			<path class="st16" d="M138.7,40.4c0,0.3-0.2,0.5-0.5,0.4c-0.2,0-0.3-0.2-0.3-0.3c0-0.3,0.2-0.5,0.5-0.4
				C138.5,40.1,138.7,40.2,138.7,40.4z"/>
			<path class="st16" d="M142.1,40.8c0,0.3-0.2,0.5-0.5,0.4c-0.2,0-0.3-0.2-0.3-0.3c0-0.3,0.2-0.5,0.5-0.4
				C141.9,40.5,142.1,40.6,142.1,40.8z"/>
			<path class="st15" d="M138,43.1c0.1,0.1,0.2,0.2,0.3,0.2c0.1,0.1,0.2,0.1,0.4,0.2c0.2,0.1,0.5,0.2,0.8,0.2c0.3,0,0.5,0,0.8-0.1
				c0.3-0.1,0.5-0.2,0.7-0.3c-0.3,0.2-0.5,0.3-0.7,0.4c-0.3,0.1-0.5,0.1-0.8,0.1c-0.3,0-0.6-0.1-0.8-0.3
				C138.4,43.5,138.2,43.3,138,43.1z"/>
			<path class="st14" d="M139.2,39.5c-0.2-0.1-0.4-0.1-0.6-0.1c-0.2,0-0.4,0-0.6,0c-0.2,0-0.4,0.1-0.5,0.1c-0.1,0-0.5,0.2-0.5,0.3
				c0.1-0.2,0.2-0.4,0.4-0.5c0.2-0.1,0.4-0.2,0.6-0.2c0.2,0,0.4,0,0.7,0.1C138.9,39.3,139,39.4,139.2,39.5z"/>
			<path class="st14" d="M140.9,39.7c0.2-0.1,0.4-0.2,0.6-0.3c0.2,0,0.4,0,0.7,0c0.2,0.1,0.4,0.2,0.6,0.4c0.2,0.1,0.3,0.4,0.3,0.6
				c-0.1-0.1-0.4-0.3-0.5-0.4c-0.2-0.1-0.3-0.2-0.5-0.2c-0.2-0.1-0.4-0.1-0.5-0.1C141.3,39.7,141.1,39.7,140.9,39.7z"/>
		</g>
		<path class="st20" d="M139,67c0,0-0.9,6,4.9,7.1c5.8,1,13,0.7,13,0.7l1,13.8l3,0.2c0,0,7.8-19.2-3-22.2l-9.7,0l-4-0.3
			c0,0-4-1-4.1-0.8C140.2,65.7,139.1,67.1,139,67z"/>
		<path class="st21" d="M133.7,67c0,0-0.9,6,4.9,7.1c5.8,1,13,0.7,13,0.7l1,13.8l3,0.2c0,0,7.8-19.2-3-22.2l-9.7,0l-4-0.3
			c0,0-4-1-4.1-0.8C134.8,65.8,133.8,67.1,133.7,67z"/>
		<path class="st5" d="M141,47.3c0,0,4,0.5,5,1.3c1,0.8,5.9,13,5.9,13l-4.1,4.8l-8.6,0.1c0,0-6.5,3.5-10.5,0.2
			c-4.1-3.3-2-14.8,0.4-17.3c2.3-2.5,6.5-2.4,6.5-2.4S139.4,49.6,141,47.3z"/>
		<path class="st19" d="M133.3,53.3c0.1,0.7,0.2,1.3,0.3,2c0,0.3,0,0.7,0.1,1c0,0.3,0,0.7,0,1c0,0.7-0.1,1.4-0.2,2
			c-0.1,0.7-0.3,1.3-0.6,1.9c0.2-0.6,0.3-1.3,0.4-2c0.1-0.7,0.1-1.3,0.1-2c0-0.7,0-1.3,0-2C133.3,54.7,133.3,54,133.3,53.3z"/>
		<path class="st19" d="M145.2,52.9c0.2,1,0.4,2,0.6,2.9c0.2,1,0.4,2,0.6,2.9c0.2,1,0.5,1.9,0.8,2.9c0.2,0.5,0.3,0.9,0.5,1.4
			c0.2,0.5,0.4,0.9,0.8,1.3c-0.4-0.3-0.6-0.8-0.9-1.2c-0.2-0.4-0.4-0.9-0.6-1.4c-0.2-0.5-0.3-0.9-0.5-1.4c-0.1-0.5-0.3-1-0.4-1.5
			c-0.1-0.5-0.2-1-0.3-1.5c-0.1-0.5-0.2-1-0.3-1.5C145.4,54.9,145.3,53.9,145.2,52.9z"/>
		<g>
			<path class="st22" d="M153.9,55.1c-0.7-1.2-6.8-3.1-6.8-3.1c0,1.9,0,1.9,0,1.9l6.2,2.2L153.9,55.1z"/>
			<polygon class="st19" points="153.5,55 146.4,51.8 146.4,53 153.3,55.5 			"/>
			<polygon class="st22" points="153.1,55 145.6,52.2 145.6,54.4 153,55.5 			"/>
			<path class="st19" d="M153.9,54.8c0,0,1.4-3.3,2-4c0,2.2-0.9,5-0.9,5L153.9,54.8z"/>
			<polygon class="st22" points="154.5,54.9 156.3,50.6 156.3,52.6 155.1,55.5 			"/>
			<polygon class="st19" points="155.1,55 157,50.8 157,52.3 			"/>
			<polygon class="st23" points="155.1,68.1 157.4,64 157.4,50.9 155.1,55 			"/>
			<polygon class="st2" points="144.1,66.2 152.5,68.1 152.5,55 144.1,53 			"/>
			<path class="st24" d="M152.5,55c0.7-0.4,2.3-0.2,2.5,0C154.9,55.8,152.7,55.9,152.5,55z"/>
			<path class="st25" d="M152.5,68.1c0,0.3,2.6,0.3,2.6,0V55c-0.3,0.4-2.3,0.4-2.6,0V68.1z"/>
		</g>
		<path class="st12" d="M147.2,63.6c0-0.2-1.6-0.4-2.1-0.5c-0.4,0-3.2-0.1-4.2-0.2l0.1,0.2l0,1.1l-0.2,0.7c0.8,0.1,2.9,0.1,3.3,0.2
			c0.6,0.1,1.6,0.5,1.6,0.5s0.4-0.1-0.1-0.3c-0.4-0.2-0.7-0.5-0.8-0.6c-0.1-0.1,0-0.2,0.1-0.2c1.4,0.4,1.6,0.4,1.6,0.4s1.7,0,0-0.4
			c-1-0.2-1.4-0.4-1.4-0.5c0,0,0-0.2,0.1-0.2c0.9-0.1,2.4,0.3,2,0.1c-0.3-0.2-1.4-0.3-1.9-0.4c0,0-0.1-0.2,0-0.2
			C146,63.5,147.3,63.8,147.2,63.6z"/>
		<path class="st19" d="M132.3,61.2c0.4,0.1,0.7,0.2,1.1,0.3c0.4,0.1,0.7,0.1,1.1,0.2c0.7,0.1,1.4,0.2,2.1,0.3
			c0.7,0.1,1.4,0.2,2.1,0.2c0.7,0.1,1.4,0.1,2.1,0.2l0.1,0l0,0.1c0.1,0.2,0.1,0.5,0.1,0.7c0,0.2,0,0.5,0,0.7c0,0.2,0,0.5-0.1,0.7
			c0,0.2-0.1,0.5-0.2,0.7l0,0l0,0l-0.8,0.5c-0.3,0.2-0.5,0.3-0.8,0.5c0.2-0.2,0.5-0.4,0.7-0.6l0.7-0.6l0,0c0.1-0.2,0.1-0.4,0.2-0.7
			c0-0.2,0-0.5,0-0.7c0-0.2,0-0.5-0.1-0.7c0-0.2-0.1-0.5-0.1-0.7l0.1,0.1c-0.4,0-0.7,0-1.1-0.1c-0.4,0-0.7-0.1-1.1-0.1
			c-0.7-0.1-1.4-0.2-2.2-0.3c-0.7-0.1-1.4-0.3-2.1-0.4c-0.4-0.1-0.7-0.2-1-0.3C133,61.4,132.6,61.3,132.3,61.2z"/>
		<path class="st14" d="M144.2,35.8c0,0,1.3,0-0.1-1.1c-1.4-1.1-5.2-2.5-7.6-1.2c0,0-0.5-1-1.2-0.8c-0.7,0.2,0.5,0.9,0.5,0.9
			s-0.9,0-1.2,0.4c-0.2,0.3,0.3,0.3,0.6,0.3c-0.5,0.1-2.4,1.3-1.5,5.2c0.3-0.1,2.3-2.9,2.3-2.9s4.5,2.5,4.1,0.5c0,0,4.7,2.9,4,0.5
			C144.3,37.7,146.1,37.9,144.2,35.8z"/>
		<path class="st14" d="M133.9,39.7c0,0,0.4-0.1,0.8,0.2c0.4,0.3,0.4,1.4,0.4,1.4s1.9,1.2,1.7-4c-0.2-5.6-1.6,0.4-1.6,0.4
			L133.9,39.7z"/>
	</g>
	<g>
		<path class="st14" d="M113.1,144l0.8,1.8c0.1,0.1,0,0.3-0.1,0.4l-4.2,1.9c-0.3,0.1-0.6-0.2-0.4-0.5l1.6-2.5
			C110.8,145.1,112,145.3,113.1,144z"/>
		<path class="st14" d="M118.5,143.8l0.8,1.8c0.1,0.1,0,0.3-0.1,0.4l-4.2,1.9c-0.3,0.1-0.6-0.2-0.4-0.5l1.6-2.5
			C116.2,144.9,117.4,145.1,118.5,143.8z"/>
		<path class="st13" d="M123.4,86c0,0-4.6-0.8-6.1,4.3l1.9,2.8c0,0,4-1.5,4-1.7C123.2,91.4,123.4,86,123.4,86z"/>
		<path class="st13" d="M130.7,88.3c0,0,1.3,2,2,2.8c1.7,2,1.9,1.4,3,3.1c1.1,1.8,0,3-0.7,3.5c-0.7,0.5,0.4,2.5-0.8,3.6
			c-1.6,1.4-3.1,0.1-4.2,0.9c-1.1,0.8-1.3,2-4,1.8c-2.6-0.2-2.6-8.8-2.6-8.8s2.1-4.5,2.2-4.6C125.8,90.6,130.7,88.3,130.7,88.3z"/>
		<path class="st13" d="M117.3,90.3c0,0-0.2,1.6-0.7,2.5c-1.3,2.3-2,1.5-2.7,3.4c-0.8,2,0.6,3,1.3,3.4c0.7,0.4,0,2.5,1.4,3.4
			c1.8,1.1,3-0.5,4.3,0.1c1.2,0.6,1.7,1.7,4.2,1c2.5-0.7,0.9-9.1,0.9-9.1s-2.9-4.1-3-4.1C122.9,90.9,117.3,90.3,117.3,90.3z"/>
		<path class="st12" d="M123.9,100.5c0,0,4.4-0.8,6.4-0.7c2,0.1-1.2,5.3-1.2,5.3l-3.3,0.1c0,0-2-2.2-1.9-2.5c0.1-0.3,0-2,0-2
			L123.9,100.5z"/>
		<g>
			<path class="st12" d="M127.8,96.3l1.2,3.5c0,0-1,2.1-4.1,1.2c0,0,0.4-0.7-0.1-2.2C124.3,97.2,127.8,96.3,127.8,96.3z"/>
			<path class="st17" d="M127.8,96.3l0.5,1.6c-0.3,1.2-1.4,2-3.3,2.3c0-0.4-0.1-0.8-0.2-1.4C124.3,97.2,127.8,96.3,127.8,96.3z"/>
			<g>
				<path class="st15" d="M120.8,93.8c0.2,0.6,0.1,1.2-0.4,1.4c-0.5,0.2-1-0.1-1.3-0.7c-0.2-0.6-0.1-1.2,0.4-1.4
					C119.9,92.9,120.5,93.2,120.8,93.8z"/>
				<path class="st12" d="M120.6,96.3c-0.3-0.7-0.5-1.5-0.5-2.2c0-0.1,0-0.3-0.1-0.4c-0.1-0.6-0.1-1.2,0-1.8
					c0.4-2.1,2.1-3.7,4.2-3.9c2.8-0.3,5.2,1.9,5.3,4.6c0.3-0.2,0.6-0.2,0.9-0.1c0.6,0.2,0.8,1,0.5,1.7c-0.3,0.7-1,1.1-1.6,0.9
					c-0.1,0-0.2-0.1-0.2-0.1c-0.2,2.4-2.1,4.2-4.4,4.2C123.1,99.3,121.4,98.2,120.6,96.3z"/>
				<path class="st15" d="M123.6,92.7c0.1,0.3,0.1,0.5,0.2,0.8c0,0.1,0,0.3,0,0.4c0,0.1-0.1,0.3-0.1,0.4c-0.1,0.1-0.2,0.2-0.2,0.3
					c0,0.1,0,0.2,0.1,0.3c0.1,0.2,0.4,0.3,0.7,0.3c-0.3,0.1-0.6,0-0.8-0.2c-0.1-0.1-0.2-0.3-0.2-0.4c0-0.2,0.1-0.3,0.2-0.4
					c0.1-0.1,0.1-0.2,0.1-0.3c0-0.1,0-0.3,0.1-0.4C123.6,93.3,123.6,93,123.6,92.7z"/>
				<path class="st16" d="M125.2,93.1c0,0.3,0.2,0.5,0.5,0.5c0.2,0,0.3-0.2,0.3-0.4c0-0.3-0.2-0.5-0.5-0.5
					C125.4,92.8,125.3,92.9,125.2,93.1z"/>
				<path class="st16" d="M121.6,93.4c0,0.3,0.2,0.5,0.5,0.5c0.2,0,0.3-0.2,0.3-0.4c0-0.3-0.2-0.5-0.5-0.5
					C121.8,93,121.7,93.2,121.6,93.4z"/>
				<path class="st26" d="M125.3,96.3c0,0-0.6-0.2-1.2,0.2c0,0-0.6-0.4-1.1,0c0,0,0.2,0.9,1.2,0.8C125.3,97.3,125.3,96.3,125.3,96.3
					z"/>
				<path class="st15" d="M125.8,96c-0.1,0.1-0.2,0.2-0.4,0.2c-0.1,0.1-0.2,0.1-0.4,0.2c-0.3,0.1-0.5,0.2-0.8,0.2
					c-0.3,0-0.6,0-0.8-0.1c-0.3-0.1-0.5-0.2-0.8-0.4c0.1,0.1,0.2,0.2,0.3,0.3c0.1,0.1,0.3,0.1,0.4,0.2c0.1,0.1,0.3,0.1,0.4,0.1
					c0.1,0,0.3,0,0.4,0c0.3,0,0.6-0.1,0.8-0.3C125.4,96.4,125.6,96.2,125.8,96z"/>
				<path class="st13" d="M124.7,92.2c0.2-0.1,0.4-0.1,0.6-0.1c0.2,0,0.4,0,0.6,0c0.2,0,0.4,0.1,0.6,0.2c0.1,0,0.5,0.3,0.6,0.3
					c-0.1-0.2-0.2-0.4-0.4-0.5c-0.2-0.1-0.4-0.2-0.6-0.3c-0.2,0-0.5,0-0.7,0.1C125.1,91.9,124.9,92,124.7,92.2z"/>
				<path class="st13" d="M122.9,92.3c-0.2-0.2-0.4-0.3-0.6-0.3c-0.2-0.1-0.5,0-0.7,0c-0.2,0.1-0.4,0.2-0.6,0.3
					c-0.2,0.1-0.3,0.4-0.4,0.6c0.1-0.1,0.4-0.3,0.5-0.4c0.2-0.1,0.3-0.2,0.5-0.2c0.2-0.1,0.4-0.1,0.6-0.1
					C122.5,92.3,122.7,92.3,122.9,92.3z"/>
			</g>
		</g>
		<path class="st12" d="M131.5,121.8c0,0,1.3,6.1-4.6,7.5c-5.8,1.4-13.2,1.6-13.2,1.6l-0.1,14.1l-3.1,0.4c0,0-9.2-19,1.6-22.8
			l9.9-0.6l4-0.5c0,0,4.1-1.3,4.1-1.1C130.2,120.6,131.4,121.9,131.5,121.8z"/>
		<path class="st12" d="M136.9,121.5c0,0,1.3,6.1-4.6,7.5c-5.8,1.4-13.2,1.6-13.2,1.6l-0.1,14.1l-3.1,0.4c0,0-9.2-19,1.6-22.8
			l9.9-0.6l4-0.5c0,0,4.1-1.3,4.1-1.1C135.7,120.3,136.8,121.6,136.9,121.5z"/>
		<path class="st4" d="M115.9,120.8c-4.9,0.1-9.4,2.9-11,8.4c-1.6,5.5-5.2,11.2-4.9,11.1c7.7,4.3,10.2,0,15.5,1.3
			c5.3,1.3,7.2,0.7,7.2,0.7c-1.5-7.8-3.6-11.7-3.6-11.7c0.4,0.1,13.6,0.3,16.8-3.3c0.9-1,1.6-2.3,1.5-5.4
			C137.1,116.2,117.4,120.8,115.9,120.8z"/>
		<path class="st3" d="M117.4,131c0.2,0,0.3-0.1,0.5-0.1c0.2,0,0.3-0.1,0.5-0.1c0.1,0,0.2-0.1,0.2-0.1c-0.1,0-0.2,0-0.2-0.1
			c-0.2-0.1-0.3-0.1-0.5-0.2c-0.1-0.1-0.3-0.2-0.4-0.3c-0.1-0.1-0.2-0.3-0.3-0.4l0.2,0.2c0.1,0.1,0.1,0.1,0.2,0.2
			c0.1,0.1,0.3,0.2,0.4,0.3c0.1,0.1,0.3,0.2,0.4,0.2c0.1,0.1,0.3,0.1,0.5,0.1l0.3,0l-0.2,0.1c-0.2,0.1-0.3,0.1-0.5,0.2
			c-0.2,0-0.3,0.1-0.5,0.1C117.7,131,117.6,131,117.4,131c-0.2,0.1-0.3,0.1-0.5,0.1C117.1,131.1,117.2,131,117.4,131z"/>
		<path class="st12" d="M118.9,109c0,0-0.4,9.9-1.5,11.4l6.1-1.4v-10.8L118.9,109z"/>
		<path class="st4" d="M121.4,110.3c0,0,1,2.5,1.1,3.8c0.4,3.3,0,5.6-0.7,7.5c-1,2.6,6.4,1.6,6.6,1.6c7.8,0.2,7.7-0.1,7.7-0.1l1.2-1
			c-0.2-3.2-0.6-6-0.5-8.8l0.1-2.9l-0.4-3l-11-0.9L121.4,110.3z"/>
		<g>
			<path class="st22" d="M117.6,112.5c0.7-1,6.2-2.8,6.2-2.8c0,1.7,0,1.8,0,1.8l-5.6,2L117.6,112.5z"/>
			<path class="st22" d="M117.6,112.5c0.7-1,6.2-2.8,6.2-2.8c0,1.7,0,1.8,0,1.8l-5.6,2L117.6,112.5z"/>
			<polygon class="st19" points="118,112.5 124.4,109.5 124.4,110.7 118.2,112.9 			"/>
			<polygon class="st22" points="118.4,112.5 125.2,109.9 125.2,111.9 118.5,112.9 			"/>
			<path class="st19" d="M117.6,112.3c0,0-1.3-3.1-1.8-3.7c0,2,0.8,4.5,0.8,4.5L117.6,112.3z"/>
			<polygon class="st22" points="117.1,112.4 115.5,108.4 115.5,110.3 116.6,112.9 			"/>
			<polygon class="st19" points="116.6,112.5 114.8,108.6 114.8,110 			"/>
			<polygon class="st27" points="116.6,124.4 115,120.8 115,108.8 116.6,112.5 			"/>
			<polygon class="st5" points="126.6,122.6 118.9,124.4 118.9,112.5 126.6,110.7 			"/>
			<path class="st24" d="M118.9,112.5c-0.7-0.3-2.1-0.2-2.3,0C116.7,113.1,118.7,113.3,118.9,112.5z"/>
			<path class="st28" d="M118.9,124.4c0,0.3-2.3,0.3-2.3,0v-12c0.2,0.3,2.1,0.3,2.3,0V124.4z"/>
		</g>
		<path class="st12" d="M139.3,107.8l-5.2,2.4c0,0-0.4,6.7-0.7,7c-0.5,0.5-5.1,2.1-7.6,2.5c-0.4,0.1-0.8,0-1.2-0.1
			c-1.2-0.4-3.4-1.2-3.7-1.3c-0.5-0.2-2-0.5-2.1-0.4c-0.1,0.2,1.2,0.3,1.9,0.7c0.1,0.1,0,0.2,0,0.2c-0.4-0.1-1.5-0.3-1.9-0.3
			c-0.5,0,1.1,0.3,1.9,0.7c0.1,0,0.1,0.2,0,0.2c-0.1,0.1-0.5,0.1-1.5-0.1c-1.7-0.3-0.1,0.4-0.1,0.4s0.2,0,1.6,0.2
			c0.1,0,0.1,0.2,0,0.2c-0.2,0.1-0.5,0.2-1,0.2c-0.6,0-0.2,0.3-0.2,0.3s1.1,0,1.7,0.1c0.4,0.1,2.4,0.8,3.2,1l0.1-0.1
			c1.1,0.3,11.3,1,12.6-2C139.2,113.9,139.3,107.8,139.3,107.8z"/>
		<path class="st4" d="M123.9,100.5c0,0,3,3.5,6.4-0.7c0,0,3.7-0.3,6.5,1.6c2.7,1.9,4.4,6.3,4.4,6.3s-3.9,2.6-7.1,2.6l-7.4-2.7
			l-5.2,2.7c0,0-2.4-0.2-4.4-1.2C117,109.1,117.3,102.2,123.9,100.5z"/>
		<path class="st14" d="M133.1,106.4c0.1,0.4,0.2,0.9,0.4,1.3c0.2,0.9,0.4,1.7,0.6,2.5c0.3,0,0.6,0,0.8-0.1c1.4-0.3,2.4-0.7,3.6-1.2
			c1.9-0.9,1.7-0.8,2.6-1.3c-1.1,0.7-1.7,1-2.5,1.4c-1.1,0.5-2.2,1-3.7,1.3c-0.7,0.1-0.8,0.1-1.1,0c-0.1-0.6-0.2-1.3-0.5-2.7
			l-0.3-1.3l-0.3-1.3C132.8,105.5,133,106,133.1,106.4z"/>
		<path class="st14" d="M121.3,107.2c-0.1,0.4-0.1,1-0.1,1.6c0,0.3,0.2,1,0.4,1.7c0,0-0.1,0-0.1,0c-0.3-0.7-0.5-1.5-0.5-1.7
			c-0.1-0.6,0-1.1,0.1-1.7c0.1-0.5,0.2-1.1,0.4-1.6c0.2-0.5,0.4-1,0.7-1.5c-0.2,0.5-0.4,1-0.5,1.5
			C121.5,106.1,121.4,106.7,121.3,107.2z"/>
		<path class="st13" d="M129.5,92.6c0,0-5.1-1.2-7.5-4.7c0,0,0-3.2,4.6-2.4C131.2,86.2,132.2,90.6,129.5,92.6z"/>
	</g>
</g>
</svg>
