<?xml version="1.0" encoding="utf-8"?>
<!-- Generator: Adobe Illustrator 24.3.0, SVG Export Plug-In . SVG Version: 6.00 Build 0)  -->
<svg version="1.1" id="Layer_1" xmlns="http://www.w3.org/2000/svg" xmlns:xlink="http://www.w3.org/1999/xlink" x="0px" y="0px"
	 viewBox="0 0 250 150" style="enable-background:new 0 0 250 150;" xml:space="preserve">
<style type="text/css">
	.st0{opacity:0.43;}
	.st1{fill:#CDEEFF;}
	.st2{opacity:0.13;fill:#464648;}
	.st3{fill:#7CBBCA;}
	.st4{enable-background:new    ;}
	.st5{fill:#E2E2E4;}
	.st6{fill:#FFFFFF;}
	.st7{fill:#7A7D7E;}
	.st8{fill:#95CAD6;}
	.st9{fill:#A9DAEB;}
	.st10{fill:#CFB02E;}
	.st11{fill:#E8C638;}
	.st12{fill:#FDDA48;}
	.st13{fill:#FD5A41;}
	.st14{fill:#88BFCC;}
	.st15{fill:#B5B1B4;}
	.st16{fill:#DEDBD9;}
	.st17{fill:#FDFDFD;}
	.st18{fill:#4F4F60;}
	.st19{opacity:0.61;}
	.st20{fill:#2C91C7;fill-opacity:0.2;}
	.st21{opacity:0.2;fill:#2C91C7;enable-background:new    ;}
	.st22{display:none;}
	.st23{display:inline;fill:#474180;}
	.st24{opacity:0.9608;fill:#EBF6FF;enable-background:new    ;}
	.st25{fill:#D1E9ED;}
	.st26{fill:#934735;}
	.st27{opacity:7.000000e-02;fill:#010101;}
	.st28{fill:#002018;}
	.st29{opacity:0.21;fill:#010101;}
	.st30{fill:#FBFCFF;}
	.st31{fill:#142B35;}
	.st32{fill:#1F3C4C;}
	.st33{opacity:0.43;fill:#142F3A;}
	.st34{opacity:0.1;fill:#3A3132;}
	.st35{fill:#EC4A3B;}
	.st36{fill:#884133;}
	.st37{fill:#EEC536;}
	.st38{fill:#77B1BF;}
	.st39{fill:#E2E9F5;}
	.st40{fill:#5C84D0;}
	.st41{fill:#DCEEF0;}
	.st42{fill:#93CCDA;}
	.st43{fill:#FFD458;}
</style>
<g>
	<g class="st0">
		<path class="st1" d="M178.5,130.6c-27.5,15.8-71.7,15.7-98.9-0.2C52.4,114.5,52.5,88.8,80,73c27.5-15.8,71.8-15.7,99,0.2
			C206.2,89.2,206,114.8,178.5,130.6z"/>
	</g>
	<g>
		<g>
			<g>
				<path class="st2" d="M91.1,141L91.1,141c-0.6,0.3-1.5,0.3-2.1,0l0,0l-32.5-19c0,0-1.3-0.8-2.1-0.3c-1,0.6-1.8,1.1-2.4,1.4
					c-0.6,0.3-1.2,1.6,1.2,2.8l35.6,21c0.6,0.3,1.5,0.3,2.1,0L133,122c0.3-0.2,0.3-0.8-0.1-1.2l-6-2.9L91.1,141z"/>
				<path class="st3" d="M132.3,118.2l-34.5-17.2v-7.5l-44.9,26.3l-0.9,1.5l0.5,3.2l1.1,1.3l34,18.8c0.6,0.3,1.5,0.3,2.1,0
					l42.7-25.2C132.9,119.1,132.9,118.5,132.3,118.2z"/>
				<g>
					<g class="st4">
						<g class="st4">
							<polygon class="st5" points="88.4,139.8 88.4,144 54.1,123.7 54.1,119.4 							"/>
						</g>
						<g>
							<polygon class="st6" points="130.4,115.8 130.4,119.4 88.4,144 88.4,139.8 							"/>
						</g>
						<g>
							<polygon class="st7" points="88,139.4 55.1,119.7 89,100.1 122.9,119.9 							"/>
						</g>
					</g>
				</g>
				<path class="st8" d="M54.2,121.8l33.3,19.6c0.3,0.2,0.7,0.3,1.1,0.3c0.4,0,0.8-0.1,1.1-0.3l42.7-25.1c0.3-0.2,0.4-0.4,0.4-0.6
					v-1.4c0,0.2-0.1,0.4-0.4,0.6l-42.7,25.1c-0.6,0.3-1.5,0.3-2.1,0L53,119.9c0,0-1.3-0.8-2.1-0.3c-1,0.6-0.8,1.9-0.8,1.9v0
					c0,3,1.8,3.8,2.8,4.3L87.3,146l0,0c0.6,0.3,1.5,0.3,2.1,0l42.7-25.2c0.3-0.2,0.4-0.4,0.4-0.6l0.2-1.4c0,0.2-0.1,0.5-0.4,0.6
					l-42.7,25.2c-0.3,0.2-0.7,0.3-1.1,0.3c-0.4,0-0.8-0.1-1.1-0.3v0c0,0,0,0,0,0l0,0l-34.2-20c-0.9-0.6-0.9-1.6-0.9-1.8v-0.2
					C52.4,120.8,54,121.7,54.2,121.8z"/>
				<path class="st9" d="M132.3,113.7L97.7,93.4l0,0l-0.5-0.3c-0.5-0.3-1.2-0.3-1.8,0l-44.6,26.4c0,0,0.4-0.1,0.6,0l1.4,0.4
					l34.7,20.2c0.6,0.3,1.5,0.3,2.1,0l42.7-25.2C132.9,114.6,132.9,114,132.3,113.7z"/>
				<path class="st2" d="M89.5,141.5c-0.2,0.1-0.7,0.2-1,0.2c-0.3,0-0.7-0.1-0.9-0.2L54,121.7c-0.2-0.1-1.3-0.6-1.5,0.2l34.9,20.5
					c0.6,0.4,1.4,0.4,2,0l41-23.9v-1.1"/>
			</g>
			<g>
				<path class="st2" d="M91.7,130.9L91.7,130.9c-0.5,0.3-1.2,0.3-1.7,0l0,0l-26-15.2c0,0-1-0.7-1.7-0.2c-0.8,0.5-1.4,0.9-1.9,1.1
					c-0.5,0.3-1,1.3,1,2.3l28.5,16.8c0.5,0.3,1.2,0.3,1.7,0l33.7-19.9c0.2-0.1,0.3-0.7-0.1-0.9l-4.8-2.3L91.7,130.9z"/>
				<path class="st10" d="M124.4,112.8L97,96.7v-5.9l-35.6,20.9l-0.7,3.5l0.1,2.8l1.4,0.7l26.8,15c0.5,0.3,1.2,0.3,1.7,0l33.8-19.9
					C124.9,113.5,124.9,113.1,124.4,112.8z"/>
				<g>
					<g class="st4">
						<g class="st4">
							<polygon class="st5" points="89.6,127.6 89.6,133.3 62.4,117.2 62.4,111.4 							"/>
						</g>
						<g>
							<polygon class="st6" points="122.9,108.6 122.9,113.7 89.6,133.3 89.6,127.6 							"/>
						</g>
						<g>
							<polygon class="st7" points="89.3,127.3 63.2,111.7 90.1,96.1 117,111.7 							"/>
						</g>
					</g>
				</g>
				<path class="st11" d="M62.5,113.3l26.4,15.5v0c0.2,0.1,0.5,0.2,0.8,0.2c0.3,0,0.6-0.1,0.8-0.2l0,0l33.8-20
					c0.2-0.1,0.4-0.3,0.4-0.5v-1.1c0,0.2-0.1,0.4-0.3,0.5l-33.8,19.9v0c-0.5,0.3-1.2,0.3-1.7,0v0l-27.4-16c0,0-1-0.7-1.7-0.2
					c-0.8,0.5-0.6,1.5-0.6,1.5v2.4c0,2.4,1.4,3,2.3,3.4l27.3,16l0,0c0.5,0.3,1.2,0.3,1.7,0l33.8-20c0.2-0.1,0.4-0.3,0.4-0.5l0.1-1.1
					c0,0.2-0.1,0.4-0.3,0.5l-33.8,19.9c-0.2,0.1-0.5,0.2-0.8,0.2c-0.3,0-0.6-0.1-0.8-0.2v0c0,0,0,0,0,0l0,0L61.9,118
					c-0.7-0.4-0.9-1.4-0.9-1.5v-2.6C61,112.5,62.3,113.2,62.5,113.3z"/>
				<path class="st12" d="M124.4,106.8L97,90.8l0,0l-0.4-0.2c-0.4-0.2-1-0.2-1.4,0l-35.4,20.9c0,0,0.3-0.1,0.5,0l1.1,0.3l27.5,16
					c0.5,0.3,1.2,0.3,1.7,0l33.8-19.9C124.9,107.6,124.9,107.1,124.4,106.8z"/>
				<path class="st2" d="M90.4,128.9c-0.2,0.1-0.4,0.2-0.7,0.2c-0.3,0-0.5-0.1-0.7-0.2v0l-26.5-15.6c-0.1-0.1-1.3-0.7-1.4,0.4
					l27.7,16c0.6,0.3,1.2,0.3,1.8,0l32.5-18.9v-1"/>
				<g>
					<path class="st2" d="M68.9,118.9l-4.3-2.5C64.6,116.4,67.2,117.7,68.9,118.9z"/>
					<path class="st13" d="M66.1,117.3c0,0-1.9,0.2-2.9,2.8l1.4-0.3l0.8,1.3c0,0,1.2-2.5,2.9-2.6L66.1,117.3z"/>
				</g>
				<g>
					<g>
						<g class="st4">
							<g>
								<path class="st6" d="M88.5,101.4l7.6-4.4c0.1,0,0.2,0,0.2,0l17.2,10.1c0.2,0.1,0.2,0.3,0,0.4l-7.6,4.4c-0.1,0-0.2,0-0.2,0
									l-17.2-10.1C88.4,101.8,88.4,101.5,88.5,101.4z"/>
							</g>
						</g>
					</g>
					<g>
						<g class="st4">
							<g>
								<path class="st14" d="M108,106.5c0.3,0.2,0.3,0.4,0,0.6c-0.3,0.2-0.7,0.2-1,0l-11-6.4c-0.3-0.2-0.3-0.4,0-0.6
									c0.3-0.2,0.7-0.2,1,0L108,106.5z"/>
							</g>
						</g>
					</g>
					<g>
						<g class="st4">
							<g>
								<path class="st14" d="M105.7,107.9c0.3,0.2,0.3,0.4,0,0.6c-0.3,0.2-0.7,0.2-1,0l-11-6.4c-0.3-0.2-0.3-0.4,0-0.6
									c0.3-0.2,0.7-0.2,1,0L105.7,107.9z"/>
							</g>
						</g>
					</g>
				</g>
			</g>
		</g>
		<g>
			<g>
				<g>
					<g>
						<g>
							<g>
								<path class="st15" d="M189.6,90.9l-52.5-31c-2.2-1.2-4-3.9-4-6l-1.4-42.5c0,0,0.7-0.3,1.3-0.7c0.7-0.5,1.8-0.4,3.1,0.2
									l52.2,29.2c2.2,1.2,4,3.9,4,6V88c0,1-0.4,1.7-1,2C190.5,90.4,189.6,90.9,189.6,90.9z"/>
								<path class="st16" d="M186.8,90.5l-52.2-29.2c-2.2-1.2-4-3.9-4-6V13.4c0-2.1,1.8-2.9,4-1.7l52.2,29.2c2.2,1.2,4,3.9,4,6
									v41.9C190.8,90.9,189,91.7,186.8,90.5z"/>
								<path class="st17" d="M185.3,84.6l-49.3-27.6c-1.7-1-2.8-2.8-2.8-4.7v-34c0-1.3,1.5-2.1,2.7-1.5l49.8,27.9
									c1.9,1.1,3.1,3.1,3.1,5.2v32.9C188.6,84.4,186.8,85.4,185.3,84.6z"/>
								<path class="st15" d="M162.2,29.4c0-0.4-0.3-0.8-0.6-1c-0.3-0.2-0.6,0-0.6,0.4c0,0.4,0.3,0.8,0.6,1
									C162,30,162.2,29.8,162.2,29.4z"/>
							</g>
							<path class="st15" d="M184.4,94.4l-34.7,18.9L95.9,83.2L92.1,81v1.9v0.7c0.1,0.6,0.5,1.2,1.1,1.5l53.5,30
								c1,0.5,2,0.8,3.1,0.8c1.2,0,2.4-0.3,3.4-0.8l33.7-18.9c0.6-0.3,1-0.9,1.1-1.5V94v-1.5L184.4,94.4z"/>
							<path class="st16" d="M93.1,83.1l53.5,30c2,1.1,4.5,1.1,6.5,0l33.7-18.9c1.5-0.8,1.5-2.9,0-3.7l-53.5-30
								c-2-1.1-4.5-1.1-6.5,0L93.1,79.4C91.7,80.2,91.7,82.3,93.1,83.1z"/>
							<polygon class="st18" points="186.1,88.1 135.3,59.7 135.3,61.6 186.1,90.1 							"/>
							<g>
								<path class="st18" d="M122.2,68.7l-2.3-1.3c-0.1-0.1-0.1-0.2,0-0.3l1.6-0.9c0.1-0.1,0.3-0.1,0.5,0l2.3,1.3
									c0.1,0.1,0.1,0.2,0,0.3l-1.6,0.9C122.5,68.8,122.3,68.8,122.2,68.7z"/>
								<path class="st18" d="M125.2,70.4l-2.3-1.3c-0.1-0.1-0.1-0.2,0-0.3l1.6-0.9c0.1-0.1,0.3-0.1,0.5,0l2.3,1.3
									c0.1,0.1,0.1,0.2,0,0.3l-1.6,0.9C125.6,70.5,125.3,70.5,125.2,70.4z"/>
								<path class="st18" d="M128.2,72.1l-2.3-1.3c-0.1-0.1-0.1-0.2,0-0.3l1.6-0.9c0.1-0.1,0.3-0.1,0.5,0l2.3,1.3
									c0.1,0.1,0.1,0.2,0,0.3l-1.6,0.9C128.6,72.2,128.4,72.2,128.2,72.1z"/>
								<path class="st18" d="M131.2,73.8l-2.3-1.3c-0.1-0.1-0.1-0.2,0-0.3l1.6-0.9c0.1-0.1,0.3-0.1,0.5,0l2.3,1.3
									c0.1,0.1,0.1,0.2,0,0.3l-1.6,0.9C131.6,73.9,131.4,73.9,131.2,73.8z"/>
								<path class="st18" d="M134.3,75.5l-2.3-1.3c-0.1-0.1-0.1-0.2,0-0.3l1.6-0.9c0.1-0.1,0.3-0.1,0.5,0l2.3,1.3
									c0.1,0.1,0.1,0.2,0,0.3l-1.6,0.9C134.6,75.6,134.4,75.6,134.3,75.5z"/>
								<path class="st18" d="M137.3,77.2l-2.3-1.3c-0.1-0.1-0.1-0.2,0-0.3l1.6-0.9c0.1-0.1,0.3-0.1,0.5,0l2.3,1.3
									c0.1,0.1,0.1,0.2,0,0.3l-1.6,0.9C137.6,77.3,137.4,77.3,137.3,77.2z"/>
								<path class="st18" d="M140.3,78.9l-2.3-1.3c-0.1-0.1-0.1-0.2,0-0.3l1.6-0.9c0.1-0.1,0.3-0.1,0.5,0l2.3,1.3
									c0.1,0.1,0.1,0.2,0,0.3l-1.6,0.9C140.6,78.9,140.4,78.9,140.3,78.9z"/>
								<path class="st18" d="M143.3,80.6l-2.3-1.3c-0.1-0.1-0.1-0.2,0-0.3l1.6-0.9c0.1-0.1,0.3-0.1,0.5,0l2.3,1.3
									c0.1,0.1,0.1,0.2,0,0.3l-1.6,0.9C143.6,80.6,143.4,80.6,143.3,80.6z"/>
								<path class="st18" d="M146.3,82.2L144,81c-0.1-0.1-0.1-0.2,0-0.3l1.6-0.9c0.1-0.1,0.3-0.1,0.5,0l2.3,1.3
									c0.1,0.1,0.1,0.2,0,0.3l-1.6,0.9C146.7,82.3,146.4,82.3,146.3,82.2z"/>
								<path class="st18" d="M149.3,83.9l-2.3-1.3c-0.1-0.1-0.1-0.2,0-0.3l1.6-0.9c0.1-0.1,0.3-0.1,0.5,0l2.3,1.3
									c0.1,0.1,0.1,0.2,0,0.3l-1.6,0.9C149.7,84,149.5,84,149.3,83.9z"/>
								<path class="st18" d="M152.3,85.6l-2.3-1.3c-0.1-0.1-0.1-0.2,0-0.3l1.6-0.9c0.1-0.1,0.3-0.1,0.5,0l2.3,1.3
									c0.1,0.1,0.1,0.2,0,0.3l-1.6,0.9C152.7,85.7,152.5,85.7,152.3,85.6z"/>
								<path class="st18" d="M155.4,87.3L153,86c-0.1-0.1-0.1-0.2,0-0.3l1.6-0.9c0.1-0.1,0.3-0.1,0.5,0l2.3,1.3
									c0.1,0.1,0.1,0.2,0,0.3l-1.6,0.9C155.7,87.4,155.5,87.4,155.4,87.3z"/>
								<path class="st18" d="M158.4,89l-2.3-1.3c-0.1-0.1-0.1-0.2,0-0.3l1.6-0.9c0.1-0.1,0.3-0.1,0.5,0l2.3,1.3
									c0.1,0.1,0.1,0.2,0,0.3l-1.6,0.9C158.7,89.1,158.5,89.1,158.4,89z"/>
								<path class="st18" d="M166.1,93.3l-1.8-1c-0.1-0.1-0.1-0.2,0-0.3l1.6-0.9c0.1-0.1,0.3-0.1,0.5,0l1.8,1
									c0.1,0.1,0.1,0.2,0,0.3l-1.6,0.9C166.5,93.4,166.3,93.4,166.1,93.3z"/>
								<path class="st18" d="M168.6,94.7l-1.8-1c-0.1-0.1-0.1-0.2,0-0.3l1.6-0.9c0.1-0.1,0.3-0.1,0.5,0l1.8,1
									c0.1,0.1,0.1,0.2,0,0.3l-1.6,0.9C168.9,94.8,168.7,94.8,168.6,94.7z"/>
								<path class="st18" d="M171,96.1l-1.8-1c-0.1-0.1-0.1-0.2,0-0.3l1.6-0.9c0.1-0.1,0.3-0.1,0.5,0l1.8,1c0.1,0.1,0.1,0.2,0,0.3
									l-1.6,0.9C171.4,96.2,171.2,96.2,171,96.1z"/>
								<path class="st18" d="M173.5,97.5l-1.8-1c-0.1-0.1-0.1-0.2,0-0.3l1.6-0.9c0.1-0.1,0.3-0.1,0.5,0l1.8,1
									c0.1,0.1,0.1,0.2,0,0.3l-1.6,0.9C173.8,97.6,173.6,97.6,173.5,97.5z"/>
								<path class="st18" d="M163.4,94.9l-1.8-1c-0.1-0.1-0.1-0.2,0-0.3l1.6-0.9c0.1-0.1,0.3-0.1,0.5,0l1.8,1
									c0.1,0.1,0.1,0.2,0,0.3l-1.6,0.9C163.7,95,163.5,95,163.4,94.9z"/>
								<path class="st18" d="M165.8,96.3l-1.8-1c-0.1-0.1-0.1-0.2,0-0.3l1.6-0.9c0.1-0.1,0.3-0.1,0.5,0l1.8,1
									c0.1,0.1,0.1,0.2,0,0.3l-1.6,0.9C166.2,96.4,166,96.3,165.8,96.3z"/>
								<path class="st18" d="M168.3,97.6l-1.8-1c-0.1-0.1-0.1-0.2,0-0.3l1.6-0.9c0.1-0.1,0.3-0.1,0.5,0l1.8,1
									c0.1,0.1,0.1,0.2,0,0.3l-1.6,0.9C168.6,97.7,168.4,97.7,168.3,97.6z"/>
								<path class="st18" d="M160.6,96.4l-1.8-1c-0.1-0.1-0.1-0.2,0-0.3l1.6-0.9c0.1-0.1,0.3-0.1,0.5,0l1.8,1
									c0.1,0.1,0.1,0.2,0,0.3l-1.6,0.9C161,96.5,160.7,96.5,160.6,96.4z"/>
								<path class="st18" d="M163.1,97.8l-1.8-1c-0.1-0.1-0.1-0.2,0-0.3l1.6-0.9c0.1-0.1,0.3-0.1,0.5,0l1.8,1
									c0.1,0.1,0.1,0.2,0,0.3l-1.6,0.9C163.4,97.9,163.2,97.9,163.1,97.8z"/>
								<path class="st18" d="M165.5,99.2l-1.8-1c-0.1-0.1-0.1-0.2,0-0.3l1.6-0.9c0.1-0.1,0.3-0.1,0.5,0l1.8,1
									c0.1,0.1,0.1,0.2,0,0.3l-1.6,0.9C165.9,99.3,165.7,99.3,165.5,99.2z"/>
								<path class="st18" d="M168,100.6l-1.8-1c-0.1-0.1-0.1-0.2,0-0.3l4.3-2.4c0.1-0.1,0.3-0.1,0.5,0l1.8,1c0.1,0.1,0.1,0.2,0,0.3
									l-4.3,2.4C168.3,100.7,168.1,100.7,168,100.6z"/>
								<path class="st18" d="M157.9,98l-1.8-1c-0.1-0.1-0.1-0.2,0-0.3l1.6-0.9c0.1-0.1,0.3-0.1,0.5,0l1.8,1c0.1,0.1,0.1,0.2,0,0.3
									l-1.6,0.9C158.2,98.1,158,98.1,157.9,98z"/>
								<path class="st18" d="M160.3,99.4l-1.8-1c-0.1-0.1-0.1-0.2,0-0.3l1.6-0.9c0.1-0.1,0.3-0.1,0.5,0l1.8,1
									c0.1,0.1,0.1,0.2,0,0.3l-1.6,0.9C160.7,99.4,160.5,99.4,160.3,99.4z"/>
								<path class="st18" d="M162.8,100.7l-1.8-1c-0.1-0.1-0.1-0.2,0-0.3l1.6-0.9c0.1-0.1,0.3-0.1,0.5,0l1.8,1
									c0.1,0.1,0.1,0.2,0,0.3l-1.6,0.9C163.1,100.8,162.9,100.8,162.8,100.7z"/>
								<path class="st18" d="M155.1,99.5l-1.8-1c-0.1-0.1-0.1-0.2,0-0.3l1.6-0.9c0.1-0.1,0.3-0.1,0.5,0l1.8,1
									c0.1,0.1,0.1,0.2,0,0.3l-1.6,0.9C155.5,99.6,155.2,99.6,155.1,99.5z"/>
								<path class="st18" d="M157.6,100.9l-1.8-1c-0.1-0.1-0.1-0.2,0-0.3l1.6-0.9c0.1-0.1,0.3-0.1,0.5,0l1.8,1
									c0.1,0.1,0.1,0.2,0,0.3l-1.6,0.9C157.9,101,157.7,101,157.6,100.9z"/>
								<path class="st18" d="M160,102.3l-1.8-1c-0.1-0.1-0.1-0.2,0-0.3l1.6-0.9c0.1-0.1,0.3-0.1,0.5,0l1.8,1c0.1,0.1,0.1,0.2,0,0.3
									l-1.6,0.9C160.4,102.4,160.2,102.4,160,102.3z"/>
								<path class="st18" d="M162.5,103.7l-1.8-1c-0.1-0.1-0.1-0.2,0-0.3l4.3-2.4c0.1-0.1,0.3-0.1,0.5,0l1.8,1
									c0.1,0.1,0.1,0.2,0,0.3l-4.3,2.4C162.8,103.7,162.6,103.7,162.5,103.7z"/>
								<path class="st18" d="M163.3,91.8l-4.2-2.4c-0.1-0.1-0.1-0.2,0-0.3l1.6-0.9c0.1-0.1,0.3-0.1,0.5,0l4.2,2.4
									c0.1,0.1,0.1,0.2,0,0.3l-1.6,0.9C163.6,91.8,163.4,91.8,163.3,91.8z"/>
								<path class="st18" d="M126.8,66.2l-2.3-1.3c-0.1-0.1-0.1-0.2,0-0.3l1.6-0.9c0.1-0.1,0.3-0.1,0.5,0l2.3,1.3
									c0.1,0.1,0.1,0.2,0,0.3l-1.6,0.9C127.1,66.2,126.9,66.2,126.8,66.2z"/>
								<path class="st18" d="M129.8,67.9l-2.3-1.3c-0.1-0.1-0.1-0.2,0-0.3l1.6-0.9c0.1-0.1,0.3-0.1,0.5,0l2.3,1.3
									c0.1,0.1,0.1,0.2,0,0.3l-1.6,0.9C130.1,67.9,129.9,67.9,129.8,67.9z"/>
								<path class="st18" d="M132.8,69.5l-2.3-1.3c-0.1-0.1-0.1-0.2,0-0.3l1.6-0.9c0.1-0.1,0.3-0.1,0.5,0l2.3,1.3
									c0.1,0.1,0.1,0.2,0,0.3l-1.6,0.9C133.2,69.6,132.9,69.6,132.8,69.5z"/>
								<path class="st18" d="M135.8,71.2l-2.3-1.3c-0.1-0.1-0.1-0.2,0-0.3l1.6-0.9c0.1-0.1,0.3-0.1,0.5,0l2.3,1.3
									c0.1,0.1,0.1,0.2,0,0.3l-1.6,0.9C136.2,71.3,136,71.3,135.8,71.2z"/>
								<path class="st18" d="M138.8,72.9l-2.3-1.3c-0.1-0.1-0.1-0.2,0-0.3l1.6-0.9c0.1-0.1,0.3-0.1,0.5,0l2.3,1.3
									c0.1,0.1,0.1,0.2,0,0.3l-1.6,0.9C139.2,73,139,73,138.8,72.9z"/>
								<path class="st18" d="M141.8,74.6l-2.3-1.3c-0.1-0.1-0.1-0.2,0-0.3l1.6-0.9c0.1-0.1,0.3-0.1,0.5,0l2.3,1.3
									c0.1,0.1,0.1,0.2,0,0.3l-1.6,0.9C142.2,74.7,142,74.7,141.8,74.6z"/>
								<path class="st18" d="M144.9,76.3l-2.3-1.3c-0.1-0.1-0.1-0.2,0-0.3l1.6-0.9c0.1-0.1,0.3-0.1,0.5,0l2.3,1.3
									c0.1,0.1,0.1,0.2,0,0.3l-1.6,0.9C145.2,76.4,145,76.4,144.9,76.3z"/>
								<path class="st18" d="M147.9,78l-2.3-1.3c-0.1-0.1-0.1-0.2,0-0.3l1.6-0.9c0.1-0.1,0.3-0.1,0.5,0l2.3,1.3
									c0.1,0.1,0.1,0.2,0,0.3l-1.6,0.9C148.2,78.1,148,78.1,147.9,78z"/>
								<path class="st18" d="M150.9,79.7l-2.3-1.3c-0.1-0.1-0.1-0.2,0-0.3l1.6-0.9c0.1-0.1,0.3-0.1,0.5,0l2.3,1.3
									c0.1,0.1,0.1,0.2,0,0.3l-1.6,0.9C151.2,79.8,151,79.8,150.9,79.7z"/>
								<path class="st18" d="M153.9,81.4l-2.3-1.3c-0.1-0.1-0.1-0.2,0-0.3l1.6-0.9c0.1-0.1,0.3-0.1,0.5,0l2.3,1.3
									c0.1,0.1,0.1,0.2,0,0.3l-1.6,0.9C154.2,81.4,154,81.4,153.9,81.4z"/>
								<path class="st18" d="M156.9,83.1l-2.3-1.3c-0.1-0.1-0.1-0.2,0-0.3l1.6-0.9c0.1-0.1,0.3-0.1,0.5,0l2.3,1.3
									c0.1,0.1,0.1,0.2,0,0.3l-1.6,0.9C157.3,83.1,157.1,83.1,156.9,83.1z"/>
								<path class="st18" d="M159.9,84.7l-2.3-1.3c-0.1-0.1-0.1-0.2,0-0.3l1.6-0.9c0.1-0.1,0.3-0.1,0.5,0l2.3,1.3
									c0.1,0.1,0.1,0.2,0,0.3l-1.6,0.9C160.3,84.8,160.1,84.8,159.9,84.7z"/>
								<path class="st18" d="M162.9,86.4l-2.3-1.3c-0.1-0.1-0.1-0.2,0-0.3l1.6-0.9c0.1-0.1,0.3-0.1,0.5,0l2.3,1.3
									c0.1,0.1,0.1,0.2,0,0.3l-1.6,0.9C163.3,86.5,163.1,86.5,162.9,86.4z"/>
								<path class="st18" d="M170.7,90.8l-1.8-1c-0.1-0.1-0.1-0.2,0-0.3l1.6-0.9c0.1-0.1,0.3-0.1,0.5,0l1.8,1
									c0.1,0.1,0.1,0.2,0,0.3l-1.6,0.9C171,90.9,170.8,90.9,170.7,90.8z"/>
								<path class="st18" d="M173.2,92.2l-1.8-1c-0.1-0.1-0.1-0.2,0-0.3l1.6-0.9c0.1-0.1,0.3-0.1,0.5,0l1.8,1
									c0.1,0.1,0.1,0.2,0,0.3l-1.6,0.9C173.5,92.2,173.3,92.2,173.2,92.2z"/>
								<path class="st18" d="M175.6,93.5l-1.8-1c-0.1-0.1-0.1-0.2,0-0.3l1.6-0.9c0.1-0.1,0.3-0.1,0.5,0l1.8,1
									c0.1,0.1,0.1,0.2,0,0.3l-1.6,0.9C176,93.6,175.8,93.6,175.6,93.5z"/>
								<path class="st18" d="M178.1,94.9l-1.8-1c-0.1-0.1-0.1-0.2,0-0.3l1.6-0.9c0.1-0.1,0.3-0.1,0.5,0l1.8,1
									c0.1,0.1,0.1,0.2,0,0.3l-1.6,0.9C178.4,95,178.2,95,178.1,94.9z"/>
								<path class="st18" d="M167.9,89.2l-4.2-2.4c-0.1-0.1-0.1-0.2,0-0.3l1.6-0.9c0.1-0.1,0.3-0.1,0.5,0l4.2,2.4
									c0.1,0.1,0.1,0.2,0,0.3l-1.6,0.9C168.2,89.3,168,89.3,167.9,89.2z"/>
								<path class="st18" d="M120.8,71.1l-3.7-2.1c-0.1-0.1-0.1-0.2,0-0.3l1.6-0.9c0.1-0.1,0.3-0.1,0.5,0l3.7,2.1
									c0.1,0.1,0.1,0.2,0,0.3l-1.6,0.9C121.2,71.1,121,71.1,120.8,71.1z"/>
								<path class="st18" d="M123.9,72.8l-2.3-1.3c-0.1-0.1-0.1-0.2,0-0.3l1.6-0.9c0.1-0.1,0.3-0.1,0.5,0l2.3,1.3
									c0.1,0.1,0.1,0.2,0,0.3l-1.6,0.9C124.2,72.8,124,72.8,123.9,72.8z"/>
								<path class="st18" d="M126.9,74.4l-2.3-1.3c-0.1-0.1-0.1-0.2,0-0.3l1.6-0.9c0.1-0.1,0.3-0.1,0.5,0l2.3,1.3
									c0.1,0.1,0.1,0.2,0,0.3l-1.6,0.9C127.2,74.5,127,74.5,126.9,74.4z"/>
								<path class="st18" d="M129.9,76.1l-2.3-1.3c-0.1-0.1-0.1-0.2,0-0.3l1.6-0.9c0.1-0.1,0.3-0.1,0.5,0l2.3,1.3
									c0.1,0.1,0.1,0.2,0,0.3l-1.6,0.9C130.2,76.2,130,76.2,129.9,76.1z"/>
								<path class="st18" d="M132.9,77.8l-2.3-1.3c-0.1-0.1-0.1-0.2,0-0.3l1.6-0.9c0.1-0.1,0.3-0.1,0.5,0l2.3,1.3
									c0.1,0.1,0.1,0.2,0,0.3l-1.6,0.9C133.2,77.9,133,77.9,132.9,77.8z"/>
								<path class="st18" d="M135.9,79.5l-2.3-1.3c-0.1-0.1-0.1-0.2,0-0.3l1.6-0.9c0.1-0.1,0.3-0.1,0.5,0l2.3,1.3
									c0.1,0.1,0.1,0.2,0,0.3l-1.6,0.9C136.3,79.6,136,79.6,135.9,79.5z"/>
								<path class="st18" d="M138.9,81.2l-2.3-1.3c-0.1-0.1-0.1-0.2,0-0.3l1.6-0.9c0.1-0.1,0.3-0.1,0.5,0l2.3,1.3
									c0.1,0.1,0.1,0.2,0,0.3l-1.6,0.9C139.3,81.3,139.1,81.3,138.9,81.2z"/>
								<path class="st18" d="M141.9,82.9l-2.3-1.3c-0.1-0.1-0.1-0.2,0-0.3l1.6-0.9c0.1-0.1,0.3-0.1,0.5,0l2.3,1.3
									c0.1,0.1,0.1,0.2,0,0.3l-1.6,0.9C142.3,83,142.1,83,141.9,82.9z"/>
								<path class="st18" d="M145,84.6l-2.3-1.3c-0.1-0.1-0.1-0.2,0-0.3l1.6-0.9c0.1-0.1,0.3-0.1,0.5,0l2.3,1.3
									c0.1,0.1,0.1,0.2,0,0.3l-1.6,0.9C145.3,84.7,145.1,84.6,145,84.6z"/>
								<path class="st18" d="M148,86.3l-2.3-1.3c-0.1-0.1-0.1-0.2,0-0.3l1.6-0.9c0.1-0.1,0.3-0.1,0.5,0l2.3,1.3
									c0.1,0.1,0.1,0.2,0,0.3l-1.6,0.9C148.3,86.3,148.1,86.3,148,86.3z"/>
								<path class="st18" d="M151,88l-2.3-1.3c-0.1-0.1-0.1-0.2,0-0.3l1.6-0.9c0.1-0.1,0.3-0.1,0.5,0l2.3,1.3
									c0.1,0.1,0.1,0.2,0,0.3l-1.6,0.9C151.3,88,151.1,88,151,88z"/>
								<path class="st18" d="M154,89.6l-2.3-1.3c-0.1-0.1-0.1-0.2,0-0.3l1.6-0.9c0.1-0.1,0.3-0.1,0.5,0l2.3,1.3
									c0.1,0.1,0.1,0.2,0,0.3l-1.6,0.9C154.3,89.7,154.1,89.7,154,89.6z"/>
								<path class="st18" d="M157,91.3l-2.3-1.3c-0.1-0.1-0.1-0.2,0-0.3l1.6-0.9c0.1-0.1,0.3-0.1,0.5,0l2.3,1.3
									c0.1,0.1,0.1,0.2,0,0.3l-1.6,0.9C157.4,91.4,157.1,91.4,157,91.3z"/>
								<path class="st18" d="M160.6,93.3l-2.8-1.6c-0.1-0.1-0.1-0.2,0-0.3l1.6-0.9c0.1-0.1,0.3-0.1,0.5,0l2.8,1.6
									c0.1,0.1,0.1,0.2,0,0.3l-1.6,0.9C160.9,93.4,160.7,93.4,160.6,93.3z"/>
								<path class="st18" d="M118.9,73.1l-4.6-2.6c-0.1-0.1-0.1-0.2,0-0.3l1.6-0.9c0.1-0.1,0.3-0.1,0.5,0l4.6,2.6
									c0.1,0.1,0.1,0.2,0,0.3l-1.6,0.9C119.2,73.1,119,73.1,118.9,73.1z"/>
								<path class="st18" d="M121.9,74.7l-2.3-1.3c-0.1-0.1-0.1-0.2,0-0.3l1.6-0.9c0.1-0.1,0.3-0.1,0.5,0l2.3,1.3
									c0.1,0.1,0.1,0.2,0,0.3l-1.6,0.9C122.3,74.8,122.1,74.8,121.9,74.7z"/>
								<path class="st18" d="M124.9,76.4l-2.3-1.3c-0.1-0.1-0.1-0.2,0-0.3l1.6-0.9c0.1-0.1,0.3-0.1,0.5,0l2.3,1.3
									c0.1,0.1,0.1,0.2,0,0.3l-1.6,0.9C125.3,76.5,125.1,76.5,124.9,76.4z"/>
								<path class="st18" d="M127.9,78.1l-2.3-1.3c-0.1-0.1-0.1-0.2,0-0.3l1.6-0.9c0.1-0.1,0.3-0.1,0.5,0L130,77
									c0.1,0.1,0.1,0.2,0,0.3l-1.6,0.9C128.3,78.2,128.1,78.2,127.9,78.1z"/>
								<path class="st18" d="M131,79.8l-2.3-1.3c-0.1-0.1-0.1-0.2,0-0.3l1.6-0.9c0.1-0.1,0.3-0.1,0.5,0l2.3,1.3
									c0.1,0.1,0.1,0.2,0,0.3l-1.6,0.9C131.3,79.9,131.1,79.9,131,79.8z"/>
								<path class="st18" d="M134,81.5l-2.3-1.3c-0.1-0.1-0.1-0.2,0-0.3l1.6-0.9c0.1-0.1,0.3-0.1,0.5,0l2.3,1.3
									c0.1,0.1,0.1,0.2,0,0.3l-1.6,0.9C134.3,81.6,134.1,81.6,134,81.5z"/>
								<path class="st18" d="M137,83.2l-2.3-1.3c-0.1-0.1-0.1-0.2,0-0.3l1.6-0.9c0.1-0.1,0.3-0.1,0.5,0L139,82
									c0.1,0.1,0.1,0.2,0,0.3l-1.6,0.9C137.3,83.3,137.1,83.3,137,83.2z"/>
								<path class="st18" d="M140,84.9l-2.3-1.3c-0.1-0.1-0.1-0.2,0-0.3l1.6-0.9c0.1-0.1,0.3-0.1,0.5,0l2.3,1.3
									c0.1,0.1,0.1,0.2,0,0.3l-1.6,0.9C140.3,85,140.1,85,140,84.9z"/>
								<path class="st18" d="M143,86.6l-2.3-1.3c-0.1-0.1-0.1-0.2,0-0.3l1.6-0.9c0.1-0.1,0.3-0.1,0.5,0l2.3,1.3
									c0.1,0.1,0.1,0.2,0,0.3l-1.6,0.9C143.4,86.6,143.2,86.6,143,86.6z"/>
								<path class="st18" d="M146,88.3l-2.3-1.3c-0.1-0.1-0.1-0.2,0-0.3l1.6-0.9c0.1-0.1,0.3-0.1,0.5,0l2.3,1.3
									c0.1,0.1,0.1,0.2,0,0.3l-1.6,0.9C146.4,88.3,146.2,88.3,146,88.3z"/>
								<path class="st18" d="M149,89.9l-2.3-1.3c-0.1-0.1-0.1-0.2,0-0.3l1.6-0.9c0.1-0.1,0.3-0.1,0.5,0l2.3,1.3
									c0.1,0.1,0.1,0.2,0,0.3l-1.6,0.9C149.4,90,149.2,90,149,89.9z"/>
								<path class="st18" d="M152.1,91.6l-2.3-1.3c-0.1-0.1-0.1-0.2,0-0.3l1.6-0.9c0.1-0.1,0.3-0.1,0.5,0l2.3,1.3
									c0.1,0.1,0.1,0.2,0,0.3l-1.6,0.9C152.4,91.7,152.2,91.7,152.1,91.6z"/>
								<path class="st18" d="M155.1,93.3l-2.3-1.3c-0.1-0.1-0.1-0.2,0-0.3l1.6-0.9c0.1-0.1,0.3-0.1,0.5,0l2.3,1.3
									c0.1,0.1,0.1,0.2,0,0.3l-1.6,0.9C155.4,93.4,155.2,93.4,155.1,93.3z"/>
								<path class="st18" d="M157.8,94.9l-5-2.8c-0.1-0.1-0.1-0.2,0-0.3l1.6-0.9c0.1-0.1,0.3-0.1,0.5,0l5,2.8
									c0.1,0.1,0.1,0.2,0,0.3l-1.6,0.9C158.2,94.9,157.9,94.9,157.8,94.9z"/>
								<path class="st18" d="M117,75l-5.4-3c-0.1-0.1-0.1-0.2,0-0.3l1.6-0.9c0.1-0.1,0.3-0.1,0.5,0l5.4,3c0.1,0.1,0.1,0.2,0,0.3
									l-1.6,0.9C117.3,75.1,117.1,75.1,117,75z"/>
								<path class="st18" d="M120,76.7l-2.3-1.3c-0.1-0.1-0.1-0.2,0-0.3l1.6-0.9c0.1-0.1,0.3-0.1,0.5,0l2.3,1.3
									c0.1,0.1,0.1,0.2,0,0.3l-1.6,0.9C120.3,76.8,120.1,76.8,120,76.7z"/>
								<path class="st18" d="M123,78.4l-2.3-1.3c-0.1-0.1-0.1-0.2,0-0.3l1.6-0.9c0.1-0.1,0.3-0.1,0.5,0l2.3,1.3
									c0.1,0.1,0.1,0.2,0,0.3l-1.6,0.9C123.3,78.5,123.1,78.5,123,78.4z"/>
								<path class="st18" d="M126,80.1l-2.3-1.3c-0.1-0.1-0.1-0.2,0-0.3l1.6-0.9c0.1-0.1,0.3-0.1,0.5,0L128,79
									c0.1,0.1,0.1,0.2,0,0.3l-1.6,0.9C126.3,80.2,126.1,80.2,126,80.1z"/>
								<path class="st18" d="M129,81.8l-2.3-1.3c-0.1-0.1-0.1-0.2,0-0.3l1.6-0.9c0.1-0.1,0.3-0.1,0.5,0l2.3,1.3
									c0.1,0.1,0.1,0.2,0,0.3l-1.6,0.9C129.4,81.9,129.2,81.9,129,81.8z"/>
								<path class="st18" d="M132,83.5l-2.3-1.3c-0.1-0.1-0.1-0.2,0-0.3l1.6-0.9c0.1-0.1,0.3-0.1,0.5,0l2.3,1.3
									c0.1,0.1,0.1,0.2,0,0.3l-1.6,0.9C132.4,83.6,132.2,83.6,132,83.5z"/>
								<path class="st18" d="M135,85.2l-2.3-1.3c-0.1-0.1-0.1-0.2,0-0.3l1.6-0.9c0.1-0.1,0.3-0.1,0.5,0l2.3,1.3
									c0.1,0.1,0.1,0.2,0,0.3l-1.6,0.9C135.4,85.3,135.2,85.3,135,85.2z"/>
								<path class="st18" d="M138.1,86.9l-2.3-1.3c-0.1-0.1-0.1-0.2,0-0.3l1.6-0.9c0.1-0.1,0.3-0.1,0.5,0l2.3,1.3
									c0.1,0.1,0.1,0.2,0,0.3l-1.6,0.9C138.4,86.9,138.2,86.9,138.1,86.9z"/>
								<path class="st18" d="M141.1,88.6l-2.3-1.3c-0.1-0.1-0.1-0.2,0-0.3l1.6-0.9c0.1-0.1,0.3-0.1,0.5,0l2.3,1.3
									c0.1,0.1,0.1,0.2,0,0.3l-1.6,0.9C141.4,88.6,141.2,88.6,141.1,88.6z"/>
								<path class="st18" d="M144.1,90.2l-2.3-1.3c-0.1-0.1-0.1-0.2,0-0.3l1.6-0.9c0.1-0.1,0.3-0.1,0.5,0l2.3,1.3
									c0.1,0.1,0.1,0.2,0,0.3l-1.6,0.9C144.4,90.3,144.2,90.3,144.1,90.2z"/>
								<path class="st18" d="M147.1,91.9l-2.3-1.3c-0.1-0.1-0.1-0.2,0-0.3l1.6-0.9c0.1-0.1,0.3-0.1,0.5,0l2.3,1.3
									c0.1,0.1,0.1,0.2,0,0.3l-1.6,0.9C147.4,92,147.2,92,147.1,91.9z"/>
								<path class="st18" d="M150.1,93.6l-2.3-1.3c-0.1-0.1-0.1-0.2,0-0.3l1.6-0.9c0.1-0.1,0.3-0.1,0.5,0l2.3,1.3
									c0.1,0.1,0.1,0.2,0,0.3l-1.6,0.9C150.5,93.7,150.3,93.7,150.1,93.6z"/>
								<path class="st18" d="M155.1,96.4l-4.2-2.4c-0.1-0.1-0.1-0.2,0-0.3l1.6-0.9c0.1-0.1,0.3-0.1,0.5,0l4.2,2.4
									c0.1,0.1,0.1,0.2,0,0.3l-1.6,0.9C155.4,96.5,155.2,96.5,155.1,96.4z"/>
								<path class="st18" d="M115,77l-6.2-3.5c-0.1-0.1-0.1-0.2,0-0.3l1.6-0.9c0.1-0.1,0.3-0.1,0.5,0l6.2,3.5
									c0.1,0.1,0.1,0.2,0,0.3l-1.6,0.9C115.4,77.1,115.2,77.1,115,77z"/>
								<path class="st18" d="M118,78.7l-2.3-1.3c-0.1-0.1-0.1-0.2,0-0.3l1.6-0.9c0.1-0.1,0.3-0.1,0.5,0l2.3,1.3
									c0.1,0.1,0.1,0.2,0,0.3l-1.6,0.9C118.4,78.8,118.2,78.8,118,78.7z"/>
								<path class="st18" d="M121.1,80.4l-2.3-1.3c-0.1-0.1-0.1-0.2,0-0.3l1.6-0.9c0.1-0.1,0.3-0.1,0.5,0l2.3,1.3
									c0.1,0.1,0.1,0.2,0,0.3l-1.6,0.9C121.4,80.5,121.2,80.5,121.1,80.4z"/>
								<path class="st18" d="M136.1,88.9l-14.4-8c-0.1-0.1-0.1-0.2,0-0.3l1.6-0.9c0.1-0.1,0.3-0.1,0.5,0l14.4,8
									c0.1,0.1,0.1,0.2,0,0.3l-1.6,0.9C136.5,88.9,136.3,88.9,136.1,88.9z"/>
								<path class="st18" d="M139.1,90.5l-2.3-1.3c-0.1-0.1-0.1-0.2,0-0.3l1.6-0.9c0.1-0.1,0.3-0.1,0.5,0l2.3,1.3
									c0.1,0.1,0.1,0.2,0,0.3l-1.6,0.9C139.5,90.6,139.3,90.6,139.1,90.5z"/>
								<path class="st18" d="M142.2,92.2l-2.3-1.3c-0.1-0.1-0.1-0.2,0-0.3l1.6-0.9c0.1-0.1,0.3-0.1,0.5,0l2.3,1.3
									c0.1,0.1,0.1,0.2,0,0.3l-1.6,0.9C142.5,92.3,142.3,92.3,142.2,92.2z"/>
								<path class="st18" d="M145.2,93.9l-2.3-1.3c-0.1-0.1-0.1-0.2,0-0.3l1.6-0.9c0.1-0.1,0.3-0.1,0.5,0l2.3,1.3
									c0.1,0.1,0.1,0.2,0,0.3l-1.6,0.9C145.5,94,145.3,94,145.2,93.9z"/>
								<path class="st18" d="M148.2,95.6l-2.3-1.3c-0.1-0.1-0.1-0.2,0-0.3l1.6-0.9c0.1-0.1,0.3-0.1,0.5,0l2.3,1.3
									c0.1,0.1,0.1,0.2,0,0.3l-1.6,0.9C148.5,95.7,148.3,95.7,148.2,95.6z"/>
								<path class="st18" d="M152.3,97.9l-3.4-1.9c-0.1-0.1-0.1-0.2,0-0.3l1.6-0.9c0.1-0.1,0.3-0.1,0.5,0l3.4,1.9
									c0.1,0.1,0.1,0.2,0,0.3l-1.6,0.9C152.7,98,152.5,98,152.3,97.9z"/>
								<path class="st15" d="M131,99.6l-14.2-8c-0.6-0.4-0.7-0.9-0.1-1.2l8.1-4.5c0.6-0.3,1.5-0.3,2.2,0.1l14.2,8
									c0.6,0.4,0.7,0.9,0.1,1.2l-8.1,4.5C132.6,100,131.7,100,131,99.6z"/>
								<path class="st18" d="M133.6,64.3l-4-2.3c-0.3-0.1-0.7-0.2-0.9,0l0,0c-0.2,0.1-0.2,0.4,0,0.5l4,2.3c0.3,0.1,0.7,0.2,0.9,0
									l0,0C133.9,64.7,133.9,64.5,133.6,64.3z"/>
							</g>
						</g>
					</g>
				</g>
				<g class="st19">
					<g>
						<polygon class="st20" points="133.2,19.3 188.6,50.5 188.6,50.1 133.2,18.9 						"/>
						<g>
							<g>
								<g>
									<g>
										<path class="st21" d="M185.5,46.5c-0.2-0.1-0.4,0-0.4,0.3c0,0.3,0.2,0.6,0.4,0.7c0.2,0.1,0.4,0,0.4-0.3
											C185.9,47,185.7,46.6,185.5,46.5z"/>
									</g>
								</g>
							</g>
							<g>
								<g>
									<g>
										<path class="st21" d="M184.2,45.7c-0.2-0.1-0.4,0-0.4,0.3c0,0.3,0.2,0.6,0.4,0.7c0.2,0.1,0.4,0,0.4-0.3
											C184.6,46.1,184.4,45.8,184.2,45.7z"/>
									</g>
								</g>
							</g>
							<g>
								<g>
									<g>
										<path class="st21" d="M182.9,44.8c-0.2-0.1-0.4,0-0.4,0.3c0,0.3,0.2,0.6,0.4,0.7c0.2,0.1,0.4,0,0.4-0.3
											C183.3,45.3,183.1,44.9,182.9,44.8z"/>
									</g>
								</g>
							</g>
						</g>
					</g>
					<g class="st22">
						<path class="st23" d="M151.4,23.3l0.4,46.9c0,0.7,0.5,1.5,1.1,1.9L198.8,98c0.6,0.3,1.1,0.1,1.1-0.6l-0.4-46.9L151.4,23.3z"/>
					</g>
					<path class="st9" d="M143.1,60.9l-8.2-4.2c-0.7-0.4-1.7-1.2-1.6-3.9l-0.1-34l9.8,5.7L143.1,60.9z"/>
					<path class="st24" d="M139.3,29.6c0-0.2-0.1-0.4-0.3-0.5l-4.4-2.6c-0.1,0-0.2-0.1-0.2,0c-0.1,0-0.1,0.1-0.1,0.2
						c0,0.1,0,0.2,0.1,0.3c0.1,0.1,0.1,0.2,0.2,0.2l4.4,2.6c0.1,0,0.2,0.1,0.2,0C139.3,29.8,139.3,29.7,139.3,29.6z"/>
					<path class="st24" d="M139.3,31.2c0-0.2-0.1-0.4-0.3-0.5l-4.4-2.6c-0.1,0-0.2-0.1-0.2,0c-0.1,0-0.1,0.1-0.1,0.2
						c0,0.1,0,0.2,0.1,0.3c0.1,0.1,0.1,0.2,0.2,0.2l4.4,2.6c0.1,0,0.2,0.1,0.2,0C139.2,31.4,139.3,31.3,139.3,31.2z"/>
					<path class="st24" d="M139.3,32.9c0-0.2-0.1-0.4-0.3-0.5l-4.4-2.6c-0.1,0-0.2-0.1-0.2,0c-0.1,0-0.1,0.1-0.1,0.2
						c0,0.1,0,0.2,0.1,0.3c0.1,0.1,0.1,0.2,0.2,0.2l4.4,2.6c0.1,0,0.2,0.1,0.2,0C139.2,33.1,139.3,33,139.3,32.9z"/>
					<path class="st24" d="M139.3,34.5c0-0.2-0.1-0.4-0.3-0.5l-4.4-2.6c-0.1,0-0.2-0.1-0.2,0c-0.1,0-0.1,0.1-0.1,0.2
						c0,0.1,0,0.2,0.1,0.3c0.1,0.1,0.1,0.2,0.2,0.2l4.4,2.6c0.1,0,0.2,0.1,0.2,0C139.3,34.7,139.3,34.6,139.3,34.5z"/>
					<path class="st24" d="M139.3,36.2c0-0.2-0.1-0.4-0.3-0.5l-4.4-2.6c-0.1,0-0.2-0.1-0.2,0c-0.1,0-0.1,0.1-0.1,0.2
						c0,0.1,0,0.2,0.1,0.3c0.1,0.1,0.1,0.2,0.2,0.2l4.4,2.6c0.1,0,0.2,0.1,0.2,0C139.3,36.3,139.3,36.3,139.3,36.2z"/>
					<path class="st24" d="M139.3,37.8c0-0.2-0.1-0.4-0.3-0.5l-4.4-2.6c-0.1,0-0.2-0.1-0.2,0c-0.1,0-0.1,0.1-0.1,0.2
						c0,0.1,0,0.2,0.1,0.3c0.1,0.1,0.1,0.2,0.2,0.2L139,38c0.1,0,0.2,0.1,0.2,0C139.3,38,139.3,37.9,139.3,37.8z"/>
					<path class="st24" d="M139.3,39.4c0-0.2-0.1-0.4-0.3-0.5l-4.4-2.6c-0.1,0-0.2-0.1-0.2,0c-0.1,0-0.1,0.1-0.1,0.2
						c0,0.1,0,0.2,0.1,0.3c0.1,0.1,0.1,0.2,0.2,0.2l4.4,2.6c0.1,0,0.2,0.1,0.2,0C139.3,39.6,139.3,39.5,139.3,39.4z"/>
					<path class="st24" d="M139.3,41.1c0-0.2-0.1-0.4-0.3-0.5l-4.4-2.6c-0.1,0-0.2-0.1-0.2,0c-0.1,0-0.1,0.1-0.1,0.2
						c0,0.1,0,0.2,0.1,0.3c0.1,0.1,0.1,0.2,0.2,0.2l4.4,2.6c0.1,0,0.2,0.1,0.2,0C139.3,41.2,139.3,41.1,139.3,41.1z"/>
					<path class="st24" d="M139.3,42.7c0-0.2-0.1-0.4-0.3-0.5l-4.4-2.6c-0.1,0-0.2-0.1-0.2,0c-0.1,0-0.1,0.1-0.1,0.2
						c0,0.1,0,0.2,0.1,0.3c0.1,0.1,0.1,0.2,0.2,0.2l4.4,2.6c0.1,0,0.2,0.1,0.2,0C139.3,42.8,139.3,42.8,139.3,42.7z"/>
					<path class="st24" d="M139.3,44.3c0-0.2-0.1-0.4-0.3-0.5l-4.4-2.6c-0.1,0-0.2-0.1-0.2,0c-0.1,0-0.1,0.1-0.1,0.2
						c0,0.1,0,0.2,0.1,0.3c0.1,0.1,0.1,0.2,0.2,0.2l4.4,2.6c0.1,0,0.2,0.1,0.2,0C139.3,44.5,139.3,44.4,139.3,44.3z"/>
					<path class="st24" d="M139.3,45.9c0-0.2-0.1-0.4-0.3-0.5l-4.4-2.6c-0.1,0-0.2-0.1-0.2,0c-0.1,0-0.1,0.1-0.1,0.2
						c0,0.1,0,0.2,0.1,0.3c0.1,0.1,0.1,0.2,0.2,0.2l4.4,2.6c0.1,0,0.2,0.1,0.2,0C139.3,46.1,139.3,46,139.3,45.9z"/>
					<path class="st24" d="M142,27.7c0-0.2-0.1-0.4-0.3-0.5l-6.9-4c-0.1,0-0.2-0.1-0.2,0c-0.1,0-0.1,0.1-0.1,0.2
						c0,0.1,0,0.2,0.1,0.3c0.1,0.1,0.1,0.2,0.2,0.2l6.9,4c0.1,0,0.2,0.1,0.2,0C141.9,27.9,142,27.8,142,27.7z"/>
					<g>
						<path class="st9" d="M146,40.3c0-0.1-0.1-0.3-0.2-0.4c-0.1,0-0.1,0-0.2,0c0,0-0.1,0.1-0.1,0.2c0,0.1,0,0.2,0.1,0.2
							c0,0.1,0.1,0.1,0.2,0.2c0.1,0,0.1,0,0.2,0C145.9,40.4,146,40.3,146,40.3z"/>
						<path class="st9" d="M149.6,42.4c0-0.1-0.1-0.3-0.2-0.4l-3.1-1.8c-0.1,0-0.1,0-0.2,0c0,0-0.1,0.1-0.1,0.2c0,0.1,0,0.2,0.1,0.2
							c0,0.1,0.1,0.1,0.2,0.2l3.1,1.8c0.1,0,0.1,0,0.2,0C149.6,42.5,149.6,42.5,149.6,42.4z"/>
						<path class="st9" d="M149,43.9c0-0.1-0.1-0.3-0.2-0.4l-3.4-2c-0.1,0-0.1,0-0.2,0c0,0-0.1,0.1-0.1,0.2c0,0.1,0,0.2,0.1,0.2
							c0,0.1,0.1,0.1,0.2,0.2l3.4,2c0.1,0,0.1,0,0.2,0C149,44,149,43.9,149,43.9z"/>
						<path class="st9" d="M149,44.6c0-0.1-0.1-0.3-0.2-0.4l-3.4-2c-0.1,0-0.1,0-0.2,0c0,0-0.1,0.1-0.1,0.2c0,0.1,0,0.2,0.1,0.2
							c0,0.1,0.1,0.1,0.2,0.2l3.4,2c0.1,0,0.1,0,0.2,0C149,44.7,149,44.7,149,44.6z"/>
						<path class="st9" d="M149,45.4c0-0.1-0.1-0.3-0.2-0.4l-3.4-2c-0.1,0-0.1,0-0.2,0c0,0-0.1,0.1-0.1,0.2c0,0.1,0,0.2,0.1,0.2
							c0,0.1,0.1,0.1,0.2,0.2l3.4,2c0.1,0,0.1,0,0.2,0C149,45.5,149,45.5,149,45.4z"/>
						<path class="st9" d="M149,46.2c0-0.1-0.1-0.3-0.2-0.4l-3.4-2c-0.1,0-0.1,0-0.2,0c0,0-0.1,0.1-0.1,0.2c0,0.1,0,0.2,0.1,0.2
							c0,0.1,0.1,0.1,0.2,0.2l3.4,2c0.1,0,0.1,0,0.2,0C149,46.3,149,46.2,149,46.2z"/>
						<path class="st9" d="M149,47c0-0.1-0.1-0.3-0.2-0.4l-3.4-2c-0.1,0-0.1,0-0.2,0c0,0-0.1,0.1-0.1,0.2c0,0.1,0,0.2,0.1,0.2
							c0,0.1,0.1,0.1,0.2,0.2l3.4,2c0.1,0,0.1,0,0.2,0C149,47.1,149,47,149,47z"/>
						<path class="st9" d="M149,47.7c0-0.1-0.1-0.3-0.2-0.4l-3.4-2c-0.1,0-0.1,0-0.2,0c0,0-0.1,0.1-0.1,0.2c0,0.1,0,0.2,0.1,0.2
							c0,0.1,0.1,0.1,0.2,0.2l3.4,2c0.1,0,0.1,0,0.2,0C149,47.8,149,47.8,149,47.7z"/>
						<path class="st9" d="M149,48.5c0-0.1-0.1-0.3-0.2-0.4l-3.4-2c-0.1,0-0.1,0-0.2,0c0,0-0.1,0.1-0.1,0.2c0,0.1,0,0.2,0.1,0.2
							c0,0.1,0.1,0.1,0.2,0.2l3.4,2c0.1,0,0.1,0,0.2,0C149,48.6,149,48.6,149,48.5z"/>
						<path class="st9" d="M149,49.3c0-0.1-0.1-0.3-0.2-0.4l-3.4-2c-0.1,0-0.1,0-0.2,0c0,0-0.1,0.1-0.1,0.2c0,0.1,0,0.2,0.1,0.2
							c0,0.1,0.1,0.1,0.2,0.2l3.4,2c0.1,0,0.1,0,0.2,0C149,49.4,149,49.3,149,49.3z"/>
						<path class="st9" d="M149,50c0-0.1-0.1-0.3-0.2-0.4l-3.4-2c-0.1,0-0.1,0-0.2,0c0,0-0.1,0.1-0.1,0.2c0,0.1,0,0.2,0.1,0.2
							c0,0.1,0.1,0.1,0.2,0.2l3.4,2c0.1,0,0.1,0,0.2,0C149,50.1,149,50.1,149,50z"/>
						<path class="st9" d="M149,50.8c0-0.1-0.1-0.3-0.2-0.4l-3.4-2c-0.1,0-0.1,0-0.2,0c0,0-0.1,0.1-0.1,0.2c0,0.1,0,0.2,0.1,0.2
							c0,0.1,0.1,0.1,0.2,0.2l3.4,2c0.1,0,0.1,0,0.2,0C149,50.9,149,50.9,149,50.8z"/>
						<path class="st9" d="M149,51.6c0-0.1-0.1-0.3-0.2-0.4l-3.4-2c-0.1,0-0.1,0-0.2,0c0,0-0.1,0.1-0.1,0.2c0,0.1,0,0.2,0.1,0.2
							c0,0.1,0.1,0.1,0.2,0.2l3.4,2c0.1,0,0.1,0,0.2,0C149,51.7,149,51.6,149,51.6z"/>
						<path class="st14" d="M145.4,31.4c0-0.1-0.1-0.3-0.2-0.4c-0.1,0-0.1,0-0.2,0c0,0-0.1,0.1-0.1,0.2c0,0.1,0,0.2,0.1,0.2
							c0,0.1,0.1,0.1,0.2,0.2c0.1,0,0.1,0,0.2,0C145.4,31.5,145.4,31.4,145.4,31.4z"/>
						<path class="st14" d="M151.4,34.8c0-0.1-0.1-0.3-0.2-0.4l-5.3-3.1c-0.1,0-0.1,0-0.2,0c0,0-0.1,0.1-0.1,0.2
							c0,0.1,0,0.2,0.1,0.2c0,0.1,0.1,0.1,0.2,0.2l5.3,3.1c0.1,0,0.1,0,0.2,0C151.3,35,151.4,34.9,151.4,34.8z"/>
						<path class="st14" d="M180.6,69.6c0-0.1-0.1-0.3-0.2-0.4l-3.4-2c-0.1,0-0.1,0-0.2,0c0,0-0.1,0.1-0.1,0.2c0,0.1,0,0.2,0.1,0.2
							c0,0.1,0.1,0.1,0.2,0.2l3.4,2c0.1,0,0.1,0,0.2,0C180.6,69.7,180.6,69.7,180.6,69.6z"/>
						<path class="st14" d="M181.2,70.9c0-0.1-0.1-0.3-0.2-0.4l-4.1-2.4c-0.1,0-0.1,0-0.2,0c0,0-0.1,0.1-0.1,0.2
							c0,0.1,0,0.2,0.1,0.2c0,0.1,0.1,0.1,0.2,0.2l4.1,2.4c0.1,0,0.1,0,0.2,0C181.2,71.1,181.2,71,181.2,70.9z"/>
						<path class="st14" d="M180.7,77.1c0-0.1-0.1-0.3-0.2-0.4l-3.4-2c-0.1,0-0.1,0-0.2,0c0,0-0.1,0.1-0.1,0.2c0,0.1,0,0.2,0.1,0.2
							c0,0.1,0.1,0.1,0.2,0.2l3.4,2c0.1,0,0.1,0,0.2,0C180.6,77.2,180.7,77.1,180.7,77.1z"/>
						<path class="st14" d="M157.7,49.1c0-0.2-0.1-0.5-0.3-0.6l-3.6-2.1c-0.1-0.1-0.2-0.1-0.3,0c-0.1,0-0.1,0.1-0.1,0.2
							c0,0.1,0,0.2,0.1,0.3c0.1,0.1,0.1,0.2,0.2,0.2l3.6,2.1c0.1,0.1,0.2,0.1,0.3,0C157.7,49.3,157.7,49.2,157.7,49.1z"/>
						<path class="st9" d="M149.7,41.1c0-0.2-0.1-0.5-0.3-0.6l-3.6-2.1c-0.1-0.1-0.2-0.1-0.3,0c-0.1,0-0.1,0.1-0.1,0.2
							c0,0.1,0,0.2,0.1,0.3c0.1,0.1,0.1,0.2,0.2,0.2l3.6,2.1c0.1,0.1,0.2,0.1,0.3,0C149.7,41.3,149.7,41.3,149.7,41.1z"/>
						<path class="st14" d="M162.8,52c0-0.2-0.1-0.5-0.3-0.6l-3.6-2.1c-0.1-0.1-0.2-0.1-0.3,0c-0.1,0-0.1,0.1-0.1,0.2
							c0,0.1,0,0.2,0.1,0.3c0.1,0.1,0.1,0.2,0.2,0.2l3.6,2.1c0.1,0.1,0.2,0.1,0.3,0C162.8,52.2,162.8,52.1,162.8,52z"/>
						<path class="st14" d="M167.9,54.9c0-0.2-0.1-0.5-0.3-0.6l-3.6-2.1c-0.1-0.1-0.2-0.1-0.3,0c-0.1,0-0.1,0.1-0.1,0.2
							c0,0.1,0,0.2,0.1,0.3c0.1,0.1,0.1,0.2,0.2,0.2l3.6,2.1c0.1,0.1,0.2,0.1,0.3,0C167.9,55.1,167.9,55,167.9,54.9z"/>
						<path class="st14" d="M172.9,57.8c0-0.2-0.1-0.5-0.3-0.6l-3.6-2.1c-0.1-0.1-0.2-0.1-0.3,0c-0.1,0-0.1,0.1-0.1,0.2
							c0,0.1,0,0.2,0.1,0.3c0.1,0.1,0.1,0.2,0.2,0.2l3.6,2.1c0.1,0.1,0.2,0.1,0.3,0C172.9,57.9,172.9,57.9,172.9,57.8z"/>
						<path class="st9" d="M177.2,69.5c-0.2-0.1-0.4,0-0.4,0.3l0,3.9c0,0.2,0.2,0.5,0.4,0.6l5.3,3.1c0.2,0.1,0.4,0,0.4-0.2l0-3.9
							c0-0.2-0.1-0.4-0.3-0.5L177.2,69.5z M182.8,77.4"/>
						<path class="st25" d="M177.2,62c-0.2-0.1-0.4,0-0.4,0.3l0,3.9c0,0.2,0.2,0.5,0.4,0.6l5.3,3.1c0.2,0.1,0.4,0,0.4-0.2l0-3.9
							c0-0.2-0.1-0.4-0.3-0.5L177.2,62z M182.8,69.9"/>
						<path class="st9" d="M169.1,57.3c-0.2-0.1-0.4,0-0.4,0.3l0,6.3c0,0.2,0.2,0.5,0.4,0.6l5.3,3.1c0.2,0.1,0.4,0,0.4-0.2l0-6.4
							c0-0.2-0.1-0.4-0.3-0.5L169.1,57.3z M174.6,67.7"/>
						<path class="st14" d="M167.8,70.5l0-13.1c0-0.5-0.3-1.1-0.7-1.3l-12.8-7.4c-0.6-0.3-1-0.1-1,0.6l0,12.8 M167.6,73.5"/>
						<path class="st9" d="M174.7,74.6l0-5.5c0-0.2-0.1-0.4-0.3-0.5l-5.4-3.1c-0.2-0.1-0.4,0-0.4,0.3l0,5.4 M174.6,75.8"/>
						<path class="st14" d="M149.4,38.2L149.4,38.2l-0.1-3.5c0-0.1-0.1-0.3-0.2-0.3l-3-1.7c-0.1-0.1-0.3-0.1-0.4,0
							c-0.1,0.1-0.2,0.2-0.2,0.3l0,3.5c0,0.1,0,0.1,0.1,0.2c0,0.1,0.1,0.1,0.1,0.1l3,1.7c0.1,0.1,0.3,0.1,0.4,0
							C149.3,38.4,149.4,38.3,149.4,38.2z"/>
						<path class="st25" d="M182.9,60.6C182.9,60.6,182.9,60.6,182.9,60.6l-0.1-7.8c0-0.5-0.3-1-0.7-1.2l-27.4-16.2
							c-0.3-0.2-0.7-0.2-1,0c-0.3,0.2-0.5,0.5-0.5,0.9l0,8c0,0.3,0.1,0.5,0.2,0.7c0.1,0.2,0.3,0.4,0.5,0.5l27.7,15.8
							c0.3,0.1,0.6,0.1,0.8,0C182.8,61.2,183,60.9,182.9,60.6z"/>
					</g>
				</g>
				<g>
					<g>
						<path class="st26" d="M133.4,48.6c0,0-0.3,1.7,0,2.1c-3.5,2.9-5.1,0.3-5.4,0.1c0,0,0.5-0.6,0.5-1.7
							C128.4,49,133,48.8,133.4,48.6z"/>
						<path class="st27" d="M128.6,49.4c0,0,2.1,0.4,3.4,0.1c0,0-1.3,0.7-3.6,0.4L128.6,49.4z"/>
						<g>
							<g>
								<g>
									<path class="st26" d="M133.5,35.9c0,0,1.3,0.3,2.6,1.1c1.4,0.8,2.8,2.1,3,4.1c0.1,1.2,0,2.3-0.3,3.3
										c-0.7,2.5-2.7,4.4-5.9,5c-2.2,0.4-4.6,0.1-6.4-1.2c-1.8-1.3-2.9-4.1-2.4-6.4c0.4-2.3,1.5-3.6,3.2-4.6
										C129,36.2,131.1,35.8,133.5,35.9z"/>
									<path class="st28" d="M135.4,46.1c-0.7,0.7-1.9,0.9-2.7,0.1c-0.8-0.8-1-1.5-1.9-1.7c-1.8-0.4-2.9-0.4-3.8,0.4
										c-0.6,0.5-2.4,0.2-2.6-0.6c-0.2-0.8-0.4,0.3-0.4,0.3s0.2,1.8,1.1,3.2c0.6,1,2.8,3.1,5.9,2.8c3.2-0.2,5.2-1.5,5.6-3.8
										c0.4-2.3,0.3-2.5,0.3-2.5s-0.6-0.3-0.8,0.3C136.1,45.2,135.7,45.8,135.4,46.1z"/>
									<g>
										<path class="st29" d="M129.9,44.3C129.9,44.3,129.9,44.3,129.9,44.3c0,0-0.2,0-0.3-0.1c-0.3-0.1-0.4-0.2-0.4-0.4
											c0-0.1,0-0.3,0.2-0.6c0.2-0.2,0.2-0.7,0.2-0.8c0-0.1,0.1-0.2,0.1-0.2c0,0,0,0,0,0c0.1,0,0.1,0.1,0.2,0.1c0,0,0,0.7-0.3,1
											c-0.1,0.1-0.1,0.2-0.1,0.3c0,0.1,0.1,0.1,0.2,0.2c0.1,0,0.2,0,0.3,0c0.1,0,0.1,0.1,0.1,0.2
											C130.1,44.3,130,44.3,129.9,44.3z"/>
									</g>
									<path class="st28" d="M126.7,42.8c0,0.3,0.2,0.6,0.4,0.6c0.2,0,0.4-0.2,0.4-0.5c0-0.3-0.2-0.6-0.4-0.6
										C126.9,42.3,126.7,42.5,126.7,42.8z"/>
									<path class="st28" d="M132.8,43c0,0.3,0.2,0.6,0.4,0.6c0.2,0,0.4-0.2,0.4-0.5c0-0.3-0.2-0.6-0.4-0.6S132.8,42.7,132.8,43z"
										/>
									<path class="st27" d="M133.2,45.1c0,0.7,0.6,1.3,1.4,1.3c0.7,0,1.3-0.6,1.3-1.4c0-0.7-0.6-1.3-1.4-1.3
										C133.8,43.7,133.2,44.3,133.2,45.1z"/>
									<path class="st27" d="M124.8,45.9c0.1,0,0.2,0,0.4,0c0.7,0,1.3-0.6,1.3-1.4c0-0.7-0.6-1.3-1.4-1.3c-0.2,0-0.3,0-0.5,0.1
										c0,0-0.1,0.9,0,1.5C124.7,45.5,124.8,45.9,124.8,45.9z"/>
									<g>
										<path class="st30" d="M129,45c0.1,0.4,0.4,0.7,0.8,0.8c0.5,0.1,0.9-0.2,1.1-0.5C131,45.1,128.9,44.8,129,45z"/>
									</g>
								</g>
							</g>
							<g>
								<path class="st28" d="M127.1,36c0.1-0.1,0.3,0,0.4,0c1.6,0,5.8-1.1,8.3-0.1c2.5,1,4.1,3.6,4.1,6.1c0,2.5-1.7,4.7-2.3,5
									c0.6-1,1-2.1,0.4-2.2c-1-0.2-1.1,2.1-1.1,2.1s-1.5-0.1-1-0.6c0.5-0.5,1.1-3.9-0.4-4.3c-3.9-1-7.5-4.4-9.8-1.3
									c-1.9,2.5-0.5,5.9-0.5,5.9c-2.2-2.3-0.5-6.6-0.5-6.6S125.7,37.4,127.1,36z"/>
								<path class="st28" d="M139.9,41c0,0,1.1-1.2,0.4-2.4c-0.7-1.1-2-0.8-2-0.8s0.7-1.1-0.3-2.1c-0.9-0.9-2.3,0.1-2.3,0.1
									s0.3-1.4-1.2-2.3c-1.1-0.7-2.5,0.1-3,0.5c-0.7-0.5-1.5-0.9-2.2-0.9c-1.9,0-2.2,1.6-2.2,1.6c-2.2,0-2.5,1.8-2.3,2.9
									c-0.2,0.1-0.3,0.2-0.5,0.3c-0.8,0.6-1.3,2-0.6,3.2c0.7,1.2,0.8,0.5,0.8,0.5l2.6-3.6l-0.1,0l5.7-1.9l2.4,2.8l3.5,5.2
									c0,0,1.6-0.4,1.7-1.7C140.6,41.4,139.9,41,139.9,41z"/>
							</g>
						</g>
					</g>
					<g>
						<g>
							<g>
								<path class="st31" d="M126.3,91.8c-0.3,0.1-2.2,0.7-2.4,0.8c-0.6,0.1-1,0.3-1,0.8c0,0.7,0.9,0.9,1.5,0.9
									c1.7-0.1,3.1-0.5,3.1-0.5s0.6-0.1,1.1-0.2c0.5-0.1,0.6-0.4,0.6-0.4s0.1-0.5,0-0.8c0-0.2-0.1-0.5-0.1-0.5s-0.3,0.2-1,0.5
									c-0.7,0.2-0.7-0.1-1-0.3C126.6,91.7,126.3,91.8,126.3,91.8z"/>
								<path class="st6" d="M129,91.9c0.1,0.3-0.5,0.6-1.6,0.6c-0.2-0.8-1.1-0.8-1.1-0.8s0.1,0,0.5-0.3c0.4-0.3,0.2-1.8,0.2-1.8
									s1.8-0.3,1.9,0.7C128.9,91.5,129,91.9,129,91.9z"/>
							</g>
							<g>
								<path class="st31" d="M131.1,94c-0.3,0.2-2,1.1-2.2,1.2c-0.5,0.2-1,0.5-0.8,1c0.2,0.7,1,0.7,1.6,0.6c1.6-0.4,3-1.1,3-1.1
									s0.6-0.2,1-0.4c0.5-0.2,0.5-0.5,0.5-0.5s0-0.5-0.1-0.8c-0.1-0.2-0.3-0.5-0.3-0.5s-0.2,0.3-0.9,0.6c-0.6,0.4-0.7,0-1-0.2
									C131.5,93.8,131.1,94,131.1,94z"/>
								<path class="st6" d="M134,94c0.1,0.3-0.5,0.6-1.6,0.6c-0.2-0.8-1.3-0.6-1.3-0.6s0.2-0.2,0.6-0.4c0.4-0.3,0.2-1.8,0.2-1.8
									s1.8-0.3,1.9,0.7C134,93.6,134,94,134,94z"/>
							</g>
							<g>
								<path class="st32" d="M129.4,82.7c0,0,1.1,9.7,1.3,10.9c0.1,0.5,3.5,0.6,3.8,0l0.2-12c0,0,1.9-8.1,1.1-12.3
									c0-0.5-10.2-1.7-10.5-0.6c-0.8,2.7-1.1,8.6-0.9,11.7c0.2,2.3,1.7,10.9,1.8,11.4c0.8,0.9,3.1,0.4,3.1,0"/>
								<path class="st33" d="M129.2,81.4l-0.2-6.7c0,0-0.3,5.7-0.3,6.3c0,0.2,0.5,2,0.7,2.4c0.1,0.3,0-0.7,0-0.7L129.2,81.4z"/>
							</g>
						</g>
						<polygon class="st34" points="126,55.9 126.1,58.3 125.8,58.8 						"/>
						<polygon class="st33" points="135,58.6 135,59.4 134.5,57 						"/>
						<g>
							<path class="st33" d="M124.8,71.8l0.6-4l2.8,0.7c0-0.6,0.1-0.9,0.1-0.9l7.8,1.4l0,4C133.5,74,127.6,74.6,124.8,71.8z"/>
							<path class="st12" d="M138.5,57.7c-0.2-1.9-0.4-3.2-1.5-4.7c-0.3-0.3-0.7-0.7-1.1-1c0,0,0,0,0,0c-0.6-0.5-1.7-1-2.3-1.3
								c-0.2-0.1-0.3-0.1-0.3-0.1c-1.1,0.7-2.1,1.3-3.9,0.9c-1-0.2-1.4-1-1.4-1s-1.1,0-2.6,1.3c-1.8,1.5-2.3,5.9-2.2,6.3
								c0.3,1.6,2.2,0.4,2.2,0.4s-0.7,8.2-0.7,8.5c-0.1,2.5-0.2,3.4-0.1,4.1c4.5,4,11.7,1.2,11.7,1.2s0.1,0.1,0.1-1.5
								c0-2.3-0.3-6.3-0.4-8c-0.1-1.7-0.3-2.3,0.8-1.5C137.8,62.2,139,62.3,138.5,57.7z"/>
						</g>
						<g>
							<path class="st35" d="M119.9,53c0,0-1.3,0.7-1.4,2.2C118.5,55.2,119.9,54.4,119.9,53z"/>
							<path class="st12" d="M124.5,53.2l-1.3,2.8c0,0-3.2-2.9-3.3-3c-0.1,1.4-1.4,2.2-1.4,2.2s2.4,3.3,3.2,4.1c1,1,2.5,2,3.6,1.1
								c1.1-0.9,1.6-3.5,1.6-3.5L124.5,53.2z"/>
							<g>
								<path class="st36" d="M116.6,52.5c-0.2-0.1-0.6,0-0.8,0c-0.2,0-0.3,0.1-0.3,0.2c0,0.1,0.2,0.2,0.3,0.2
									c0.1,0,1.2,0.1,1.7,0.3c0,0,0.1-1.1-0.3-1.2c-0.2-0.1-1.5,0-1.7,0c-0.2,0-0.2,0.2-0.1,0.3c0.1,0.1,0.5,0,0.9,0.1
									c0.4,0,0.7,0.3,0.7,0.3S116.8,52.5,116.6,52.5"/>
								<path class="st26" d="M119.8,53.5c-0.1-0.1-1.3-1.5-1.7-1.8s-2-0.5-2.4-0.2c-0.2,0.1-0.2,0.3,0.2,0.3c0.4,0,1,0,1.3,0.5
									c0.1,0.2,0.3,0.6,0,0.8c-0.1,0.1-0.5,0.1-0.8,0.1c-0.3,0-0.4,0.1-0.3,0.3c0.2,0.2,1,0.1,1.3,0.3c0.7,0.5,1.7,0.9,1.7,0.9
									S119.7,54.1,119.8,53.5z"/>
							</g>
							<polygon class="st37" points="125.5,56.7 125.3,60.3 125.1,60.5 							"/>
						</g>
						<g>
							<path class="st37" d="M134.5,57c0,0,0.3,3.8-0.5,4.2c-0.6,0.3-6.1-0.3-6.1-0.3l-0.5,2.4c0,0,7,1.9,8.4,1.9
								c0.1,0,0.2,0,0.4-0.1c0-0.4-0.2-0.6,0-0.8c1.1-1.3,2.4-4.1,2.2-6C138.1,57,134.5,57,134.5,57z"/>
							<path class="st26" d="M126.2,60.5c0.1,0.1-0.1,0.4-0.3,0.4c-0.4-0.1-1-0.3-1.1-0.4c-0.2-0.1-0.3-0.2-0.5-0.1
								c-0.2,0.1,0,0.4,0.3,0.6c0.4,0.2,0.9,0.4,0.9,0.4s-0.1,0.1-0.4,0c-0.4-0.1-0.9-0.4-1-0.5c-0.1-0.1-0.3-0.1-0.4,0
								c-0.1,0.1,0,0.2,0.2,0.3c0.2,0.1,0.8,0.5,1,0.6c0.2,0.1,0.4,0.2,0.4,0.2s-0.5-0.1-0.9-0.3c-0.4-0.2-0.5-0.3-0.6-0.2
								c-0.1,0-0.2,0.2,0,0.3c0.2,0.1,0.7,0.4,0.9,0.5c0.2,0.1,0.4,0.1,0.4,0.1s-0.5,0-0.9-0.2c-0.2-0.1-0.2,0.1-0.1,0.2
								c0.1,0.1,1.1,0.5,1.6,0.5c0.3,0,1.2-0.2,1.2-0.2l0.9,0.1c0,0,0.9-0.6,0.6-1.3c0-0.1-0.8-0.2-0.8-0.3c0,0-0.2-0.4-0.4-0.6
								c0,0-0.2-0.1-0.2-0.2c0,0-0.7-0.7-0.8-0.7c-0.1,0-0.4,0-0.2,0.3C125.9,60.2,126.1,60.4,126.2,60.5z"/>
							<path class="st12" d="M134.4,56.5c0,0,0.6,4.6,0,5c-0.6,0.3-6.2-0.5-6.5-0.5c0.1,1-0.5,2.3-0.5,2.3s7.6,1.9,9,1.9
								c1.5,0,2.9-2.2,1.9-8.7C138,54,134.4,56.5,134.4,56.5z"/>
						</g>
					</g>
				</g>
			</g>
			<g>
				<g>
					<path class="st38" d="M100.5,41.2c3.9,2.2,7,7.7,7,12.1c0,4.4-3.2,6.3-7,4c-3.9-2.2-7-7.7-7-12.1C93.5,40.8,96.6,39,100.5,41.2
						z M100.4,56.6c3.5,2,6.3,0.4,6.3-3.6c0-4-2.8-8.9-6.3-10.9c-3.5-2-6.3-0.4-6.3,3.6C94.1,49.7,97,54.6,100.4,56.6"/>
				</g>
				<g>
					<path class="st38" d="M98.1,43.2c0.1,0.1,0.2,0.2,0.3,0.3l6.1,7.6c0.4,0.5,0.4,1.2,0,1.2l-6.1,0.5c-0.1,0-0.2,0-0.3-0.1
						c-0.3-0.2-0.6-0.7-0.6-1.1l0-8.1C97.5,43.2,97.8,43,98.1,43.2z"/>
				</g>
			</g>
			<path class="st38" d="M128.1,50.6c0,0,0.4,0.7,1.4,1c1.8,0.4,2.8-0.2,3.9-0.9l0.8,0.4c0,0-1.1,1-2.6,1.5c-1.5,0.5-2.8,0-3.6-0.7
				c-0.8-0.8-0.8-0.9-0.8-1C127.7,50.6,128.1,50.6,128.1,50.6z"/>
			<g>
				<g class="st4">
					<g>
						<path class="st39" d="M177.1,22.1c0.2,0.1,0.3,0.1,0.3,0.1l-1.1,0.6c-0.1,0-0.2,0-0.3-0.1c-0.6-0.4-1.2-0.7-1.8-1.1
							c-0.3-0.2-0.4-0.3-0.4-0.7c0.4-0.2,0.7-0.4,1.1-0.6c0,0.3,0.1,0.5,0.4,0.7C175.8,21.4,176.5,21.7,177.1,22.1z"/>
					</g>
					<g>
						<path class="st39" d="M178,22.5C178,22.5,178,22.5,178,22.5c-0.4,0.2-0.7,0.4-1.1,0.6c0,0,0,0,0,0c-0.2-0.1-0.2-0.2-0.2-0.4
							c0.4-0.2,0.7-0.4,1.1-0.6C177.8,22.3,177.9,22.4,178,22.5z"/>
					</g>
					<g>
						<path class="st39" d="M178,22.5c0.4,0.3,0.7,0.6,1.1,0.9c-0.4,0.2-0.7,0.4-1.1,0.6c-0.4-0.3-0.7-0.6-1.1-0.9
							C177.3,22.9,177.7,22.7,178,22.5z"/>
					</g>
					<g>
						<path class="st39" d="M174.9,16.1c0,0.7,0,3.5,0,4.2c-0.4,0.2-0.7,0.4-1.1,0.6c0,0,0,0,0,0c0.4-0.2,0.7-0.4,1.1-0.6
							c-0.4,0.2-0.7,0.4-1.1,0.6c0-0.7,0-3.5,0-4.2C174.1,16.5,174.5,16.3,174.9,16.1z"/>
					</g>
					<g>
						<path class="st39" d="M174.9,16.1C174.9,16.1,174.9,16.1,174.9,16.1c-0.4,0.2-0.7,0.4-1.1,0.6c0,0,0,0,0,0c0,0,0,0,0,0
							C174.1,16.5,174.5,16.3,174.9,16.1C174.9,16.1,174.9,16.1,174.9,16.1z"/>
					</g>
					<g>
						<path class="st39" d="M174.9,15.8c-0.1,0-0.1,0.1-0.1,0.3c-0.4,0.2-0.7,0.4-1.1,0.6c0-0.2,0-0.3,0.1-0.3
							C174.2,16.3,174.6,16,174.9,15.8z"/>
					</g>
					<g>
						<path class="st40" d="M173.8,16.4l1.1-0.6c0.1,0,0.2,0,0.3,0.1c0.6,0.4,1.2,0.7,1.9,1.1l-1.1,0.6c-0.6-0.4-1.2-0.7-1.9-1.1
							C174,16.4,173.9,16.4,173.8,16.4z"/>
					</g>
					<g>
						<path class="st40" d="M177.4,22.2l-1.1,0.6c0.1,0,0.1-0.1,0.1-0.3c0-1.4,0-2.8,0-4.2c0-0.3-0.1-0.5-0.4-0.7l1.1-0.6
							c0.3,0.2,0.4,0.4,0.4,0.7c0,1.4,0,2.8,0,4.2C177.5,22,177.5,22.1,177.4,22.2z"/>
					</g>
					<g>
						<path class="st38" d="M176,17.6c0.3,0.2,0.4,0.4,0.4,0.7c0,1.4,0,2.8,0,4.2c0,0.4-0.1,0.4-0.4,0.2c-0.6-0.4-1.2-0.7-1.8-1.1
							c-0.3-0.2-0.4-0.3-0.4-0.7c0-0.7,0-3.5,0-4.2c0-0.3,0.1-0.4,0.4-0.2C174.8,16.9,175.4,17.2,176,17.6z"/>
					</g>
					<g>
						<path class="st39" d="M177.8,17.8c0,0.7,0,3.6,0,4.3c-0.4,0.2-0.7,0.4-1.1,0.6c0-0.7,0-3.6,0-4.3c0,0,0,0,0,0
							C177.1,18.2,177.5,18,177.8,17.8C177.8,17.8,177.8,17.8,177.8,17.8z"/>
					</g>
					<g>
						<path class="st39" d="M177.9,17.6c0,0-0.1,0.1-0.1,0.2c-0.4,0.2-0.7,0.4-1.1,0.6c0-0.1,0-0.1,0.1-0.2
							C177.1,18.1,177.5,17.8,177.9,17.6z"/>
					</g>
					<g>
						<path class="st39" d="M182.5,25.8c0.2,0.1,0.4,0.1,0.6,0.1l-1.1,0.6c-0.1,0.1-0.4,0.1-0.6-0.1c0,0-0.2-0.1-0.6-0.3
							c-0.5-0.3-1.4-0.8-1.8-1.1c-0.4-0.2-0.7-0.6-1-0.9c0,0,0,0,0,0c0.4-0.2,0.7-0.4,1.1-0.6c0,0,0,0,0,0c0.3,0.3,0.7,0.7,1,0.9
							c0.5,0.3,1.3,0.8,1.8,1.1C182.3,25.6,182.5,25.7,182.5,25.8z"/>
					</g>
					<g>
						<path class="st40" d="M183.1,25.8l-1.1,0.6c0.1-0.1,0.2-0.3,0.2-0.5c0-0.2,0-0.3-0.1-0.5l1.1-0.6c0.1,0.2,0.1,0.4,0.1,0.5
							C183.3,25.5,183.2,25.7,183.1,25.8z"/>
					</g>
					<g>
						<path class="st40" d="M176.8,18.3l1.1-0.6c0,0,0.1,0,0.1,0c0.5,0.3,0.9,0.2,1.3,0l-1.1,0.6c-0.3,0.2-0.8,0.2-1.3,0
							C176.9,18.2,176.8,18.2,176.8,18.3z"/>
					</g>
					<g>
						<path class="st39" d="M183.5,24.7l-1.1,0.6c-0.1,0-0.2,0.1-0.3,0.1l1.1-0.6C183.4,24.8,183.5,24.8,183.5,24.7z"/>
					</g>
					<g>
						<path class="st40" d="M183.5,24.7l-1.1,0.6c0.1-0.1,0.2-0.3,0.2-0.5c0-0.1,0-0.3-0.1-0.5l1.1-0.6c0.1,0.2,0.1,0.3,0.1,0.5
							C183.8,24.4,183.7,24.6,183.5,24.7z"/>
					</g>
					<g>
						<path class="st40" d="M182.7,24.3l1.1-0.6c0,0,0,0-0.1,0L182.7,24.3C182.6,24.4,182.6,24.3,182.7,24.3z"/>
					</g>
					<g>
						<path class="st39" d="M183.9,23.6l-1.1,0.6c0,0-0.1,0-0.1,0L183.9,23.6C183.8,23.7,183.8,23.7,183.9,23.6z"/>
					</g>
					<g>
						<polygon class="st40" points="180.3,19.3 181.4,18.7 181.4,18.7 180.3,19.4 						"/>
					</g>
					<g>
						<polygon class="st40" points="182.6,22.7 183.7,22 183.8,22.1 182.7,22.7 						"/>
					</g>
					<g>
						<polygon class="st40" points="182.6,22.6 183.7,22 183.7,22 182.6,22.7 						"/>
					</g>
					<g>
						<path class="st39" d="M179.7,17.4c-0.1,0.1-0.2,0.2-0.4,0.3l-1.1,0.6c0.1-0.1,0.3-0.2,0.4-0.3c0.3-0.3,0.5-0.8,0.6-1.3
							c0,0,0,0,0,0c0.4-0.2,0.7-0.4,1.1-0.6c0,0,0,0,0,0C180.2,16.6,180,17,179.7,17.4z"/>
					</g>
					<g>
						<path class="st40" d="M183.9,23.6l-1.1,0.6c0.2-0.1,0.3-0.3,0.3-0.6c0-0.3-0.1-0.7-0.3-1l1.1-0.6c0.2,0.3,0.3,0.7,0.3,1
							C184.1,23.4,184,23.6,183.9,23.6z"/>
					</g>
					<g>
						<path class="st39" d="M180.3,15.6c0,0-0.1,0-0.1,0.1c0,0-0.1,0-0.1,0.1c-0.2,0.1-0.5,0.3-0.7,0.4c0,0,0,0,0,0
							C179.7,16,180,15.8,180.3,15.6z"/>
					</g>
					<g>
						<path class="st40" d="M180.3,19.4l1.1-0.6c-0.1,0.4,0,0.5,0.2,0.6c0,0,0.1,0,0.1,0.1c0.1,0,0.2,0.1,0.3,0.1
							c0.4,0.2,1,0.6,1,0.6c0.5,0.3,0.8,0.9,0.8,1.4c0,0.2,0,0.3-0.1,0.4l-1.1,0.6c0.1-0.1,0.1-0.2,0.1-0.4c0-0.5-0.4-1.1-0.8-1.4
							c0,0-0.6-0.4-1-0.6c-0.1-0.1-0.2-0.1-0.3-0.1c0,0-0.1,0-0.1-0.1C180.3,19.9,180.3,19.8,180.3,19.4z"/>
					</g>
					<g>
						<path class="st39" d="M180.5,15.6c-0.1,0.2-0.1,0.4-0.2,0.5c-0.4,0.2-0.7,0.4-1.1,0.6c0.1-0.2,0.1-0.4,0.2-0.5c0,0,0,0,0,0
							c0,0,0,0,0.1,0c0.2-0.1,0.3-0.2,0.5-0.3c0.1-0.1,0.3-0.2,0.4-0.2C180.4,15.6,180.4,15.6,180.5,15.6c-0.4,0.2-0.7,0.4-1.1,0.6
							c0-0.1,0.1-0.1,0.1-0.2l1.1-0.6C180.6,15.4,180.5,15.5,180.5,15.6z"/>
					</g>
					<g>
						<path class="st40" d="M179.5,16l1.1-0.6c0.1-0.1,0.2,0,0.3,0l-1.1,0.6C179.7,16,179.6,16,179.5,16z"/>
					</g>
					<g>
						<path class="st40" d="M179.8,16l1.1-0.6c0.1,0.1,0.3,0.3,0.4,0.5c0.2,0.3,0.2,0.7,0.2,1c0,0.7,0,1.3-0.2,1.8l-1.1,0.6
							c0.1-0.6,0.2-1.2,0.2-1.8c0-0.3-0.1-0.6-0.2-1C180.1,16.3,180,16.1,179.8,16z"/>
					</g>
					<g>
						<path class="st38" d="M179.8,16c0.1,0.1,0.3,0.3,0.4,0.5c0.2,0.3,0.2,0.7,0.2,1c0,0.7,0,1.3-0.2,1.8l0,0
							c-0.1,0.4,0,0.5,0.2,0.6c0,0,0.1,0,0.1,0.1c0.1,0,0.2,0.1,0.3,0.1c0.4,0.2,1,0.6,1,0.6c0.5,0.3,0.8,0.9,0.8,1.4
							c0,0.2,0,0.3-0.1,0.4l0,0l0,0.1c0.2,0.3,0.3,0.7,0.3,1c0,0.3-0.1,0.5-0.4,0.6c0,0,0,0-0.1,0c0.1,0.2,0.1,0.3,0.1,0.5
							c0,0.4-0.2,0.6-0.5,0.6c0.1,0.2,0.1,0.4,0.1,0.5c0,0.5-0.4,0.7-0.8,0.5c0,0-0.2-0.1-0.6-0.3c-0.5-0.3-1.4-0.8-1.8-1.1
							c-0.4-0.2-0.7-0.6-1-0.9c-0.4-0.3-0.7-0.6-1.1-0.9c-0.2-0.1-0.2-0.2-0.2-0.4c0-0.7,0-3.6,0-4.3c0-0.2,0.1-0.2,0.2-0.1
							c0.8,0.4,1.3,0.2,1.7-0.3c0.3-0.3,0.5-0.8,0.6-1.3c0.1-0.2,0.1-0.4,0.2-0.5C179.5,16,179.6,15.9,179.8,16z"/>
					</g>
					<path class="st9" d="M179.5,10.9c-2.2-1.3-4.1-1.4-5.6-0.5l-1.1,0.6c1.4-0.8,3.4-0.7,5.6,0.5c4.3,2.5,7.8,8.5,7.8,13.5
						c0,2.5-0.9,4.2-2.3,5l1.1-0.6c1.4-0.8,2.3-2.5,2.3-5C187.3,19.4,183.8,13.4,179.5,10.9z"/>
					<g>
						<path class="st41" d="M178.4,11.5c4.3,2.5,7.8,8.5,7.8,13.5c0,5-3.5,7-7.8,4.5c-0.8-0.5-1.6-1.1-2.3-1.8l-1.9,0.4
							c-0.1,0-0.2,0-0.3-0.1c-0.3-0.2-0.5-0.6-0.5-0.9l0-2.7c-1.7-2.6-2.7-5.7-2.7-8.4C170.6,11,174.1,9,178.4,11.5z M182.7,24.3
							c0.2-0.1,0.4-0.3,0.4-0.6c0-0.3-0.1-0.7-0.3-1l0-0.1l0,0c0.1-0.1,0.1-0.2,0.1-0.4c0-0.5-0.4-1.1-0.8-1.4c0,0-0.6-0.4-1-0.6
							c-0.1-0.1-0.2-0.1-0.3-0.1c0,0-0.1,0-0.1-0.1c-0.2-0.1-0.3-0.2-0.2-0.6l0,0c0.1-0.6,0.2-1.2,0.2-1.8c0-0.3-0.1-0.6-0.2-1
							c-0.1-0.2-0.3-0.4-0.4-0.5c-0.2-0.1-0.4-0.1-0.5,0.2c-0.1,0.2-0.1,0.4-0.2,0.5c-0.1,0.5-0.3,0.9-0.6,1.3
							c-0.4,0.4-0.9,0.6-1.7,0.3c-0.1-0.1-0.2,0-0.2,0.1c0,0.7,0,3.6,0,4.3c0,0.2,0.1,0.3,0.2,0.4c0.4,0.3,0.7,0.6,1.1,0.9
							c0.3,0.3,0.7,0.7,1,0.9c0.5,0.3,1.3,0.8,1.8,1.1c0.3,0.2,0.6,0.3,0.6,0.3c0.5,0.3,0.8,0.1,0.8-0.5c0-0.2,0-0.3-0.1-0.5
							c0.3,0,0.5-0.2,0.5-0.6C182.7,24.7,182.7,24.5,182.7,24.3C182.6,24.4,182.6,24.3,182.7,24.3 M176.4,22.5c0-1.4,0-2.8,0-4.2
							c0-0.3-0.1-0.5-0.4-0.7c-0.6-0.4-1.2-0.7-1.9-1.1c-0.3-0.2-0.4-0.1-0.4,0.2c0,0.7,0,3.5,0,4.2c0,0.3,0.1,0.5,0.4,0.7
							c0.6,0.4,1.2,0.7,1.8,1.1C176.3,22.9,176.4,22.9,176.4,22.5"/>
					</g>
				</g>
			</g>
			<g>
				<g class="st4">
					<path class="st42" d="M117.5,34.7l1-0.4c0.1-0.1,0.2-0.2,0.2-0.4V32l-1.4-0.4L117.5,34.7z"/>
					<g>
						<polygon class="st40" points="117.4,32.1 109.4,26.1 109.6,26.2 117.5,32.2 						"/>
					</g>
					<g>
						<path class="st40" d="M110.6,21.6c0.3,0.2,0.5,0.2,0.7,0.1l-1.2,0.7c-0.2,0.1-0.4,0.1-0.7-0.1
							C109.7,22.1,110.2,21.8,110.6,21.6z"/>
					</g>
					<g>
						<path class="st40" d="M109.6,20c0,0.6,0.4,1.4,1,1.7c-1.1,0.6-1.1,0.6-1.1,0.6l-0.1,0.1c-0.5-0.3-1-1.1-1-1.7
							C108.8,20.4,109.2,20.2,109.6,20c-0.4,0.2-0.8,0.5-1.2,0.7c0-0.3,0.1-0.5,0.3-0.6l1.2-0.7C109.7,19.4,109.6,19.7,109.6,20z"/>
					</g>
					<g>
						<path class="st43" d="M108.7,20l1.2-0.7c0.2-0.1,0.4-0.1,0.7,0.1l-1.2,0.7C109.1,20,108.8,19.9,108.7,20z"/>
					</g>
					<g>
						<path class="st17" d="M109.4,20.1c0.5,0.3,1,1.1,1,1.7c0,0.6-0.4,0.9-1,0.6c-0.5-0.3-1-1.1-1-1.7
							C108.4,20.1,108.8,19.8,109.4,20.1z"/>
					</g>
					<g>
						<path class="st43" d="M111.3,21.7l-1.2,0.7c0.2-0.1,0.3-0.3,0.3-0.6c0-0.6-0.4-1.4-1-1.7l1.2-0.7c0.5,0.3,1,1.1,1,1.7
							C111.6,21.4,111.4,21.6,111.3,21.7z"/>
					</g>
					<g>
						<path class="st40" d="M113.9,23.6c0.3,0.2,0.5,0.2,0.7,0.1l-1.2,0.7c-0.2,0.1-0.4,0.1-0.7-0.1C113,24,113.5,23.8,113.9,23.6z"
							/>
					</g>
					<g>
						<path class="st40" d="M112.9,21.9c0,0.6,0.4,1.4,1,1.7c-0.4,0.2-0.7,0.4-1.1,0.6l-0.1,0.1c-0.5-0.3-1-1.1-1-1.7
							C112.1,22.3,112.5,22.1,112.9,21.9c-0.4,0.2-0.8,0.5-1.2,0.7c0-0.3,0.1-0.5,0.3-0.6l1.2-0.7C113,21.4,112.9,21.6,112.9,21.9z"
							/>
					</g>
					<g>
						<path class="st43" d="M112,22l1.2-0.7c0.2-0.1,0.4-0.1,0.7,0.1l-1.2,0.7C112.4,21.9,112.2,21.9,112,22z"/>
					</g>
					<g>
						<path class="st43" d="M114.6,23.6l-1.2,0.7c0.2-0.1,0.3-0.3,0.3-0.6c0-0.6-0.4-1.4-1-1.7l1.2-0.7c0.5,0.3,1,1.1,1,1.7
							C114.9,23.3,114.8,23.5,114.6,23.6z"/>
					</g>
					<g>
						<path class="st17" d="M112.7,22c0.5,0.3,1,1.1,1,1.7c0,0.6-0.4,0.9-1,0.6c-0.5-0.3-1-1.1-1-1.7C111.7,22,112.1,21.7,112.7,22z
							"/>
					</g>
					<g>
						<path class="st40" d="M117.2,25.5c0.3,0.2,0.5,0.2,0.7,0.1l-1.2,0.7c-0.2,0.1-0.4,0.1-0.7-0.1C116.4,26,116.9,25.7,117.2,25.5
							z"/>
					</g>
					<g>
						<path class="st40" d="M116.3,23.8c0,0.6,0.4,1.4,1,1.7c-1.1,0.6-1.1,0.6-1.1,0.6l-0.1,0.1c-0.5-0.3-1-1.1-1-1.7
							C115.4,24.3,115.8,24,116.3,23.8c-0.4,0.2-0.8,0.5-1.2,0.7c0-0.3,0.1-0.5,0.3-0.6l1.2-0.7C116.4,23.3,116.3,23.5,116.3,23.8z"
							/>
					</g>
					<g>
						<path class="st43" d="M115.3,23.9l1.2-0.7c0.2-0.1,0.4-0.1,0.7,0.1l-1.2,0.7C115.7,23.8,115.5,23.8,115.3,23.9z"/>
					</g>
					<g>
						<path class="st43" d="M117.9,25.5l-1.2,0.7c0.2-0.1,0.3-0.3,0.3-0.6c0-0.6-0.4-1.4-1-1.7l1.2-0.7c0.5,0.3,1,1.1,1,1.7
							C118.2,25.2,118.1,25.4,117.9,25.5z"/>
					</g>
					<g>
						<path class="st17" d="M116,23.9c0.5,0.3,1,1.1,1,1.7c0,0.6-0.4,0.9-1,0.6c-0.5-0.3-1-1.1-1-1.7C115,23.9,115.5,23.6,116,23.9z
							"/>
					</g>
					<path class="st42" d="M121.3,20.5l-14.8-8.6c-0.4-0.2-0.7-0.2-1-0.1l-1.2,0.7c0.2-0.1,0.6-0.1,1,0.1l14.8,8.6
						c0.7,0.4,1.3,1.5,1.3,2.3l0,9.3c0,0.4-0.2,0.7-0.4,0.9l1.2-0.7c0.2-0.1,0.4-0.4,0.4-0.9l0-9.3C122.6,22,122,20.9,121.3,20.5z"
						/>
					<g>
						<path class="st9" d="M120.1,21.2c0.7,0.4,1.3,1.5,1.3,2.3l0,9.3c0,0.9-0.6,1.2-1.4,0.8l-2.5-1.4l0,2.5l-2-3.6l-10.4-6
							c-0.7-0.4-1.3-1.5-1.3-2.3l0-9.3c0-0.9,0.6-1.2,1.4-0.8L120.1,21.2z M109.4,22.3c0.5,0.3,1,0.1,1-0.6c0-0.6-0.4-1.4-1-1.7
							c-0.5-0.3-1-0.1-1,0.6C108.4,21.3,108.8,22,109.4,22.3 M112.7,24.3c0.5,0.3,1,0.1,1-0.6c0-0.6-0.4-1.4-1-1.7
							c-0.5-0.3-1-0.1-1,0.6C111.7,23.2,112.1,24,112.7,24.3 M116,26.2c0.5,0.3,1,0.1,1-0.6c0-0.6-0.4-1.4-1-1.7
							c-0.5-0.3-1-0.1-1,0.6C115,25.1,115.5,25.9,116,26.2"/>
					</g>
				</g>
			</g>
		</g>
	</g>
</g>
</svg>
