<?xml version="1.0" encoding="utf-8"?>
<!-- Generator: Adobe Illustrator 24.2.3, SVG Export Plug-In . SVG Version: 6.00 Build 0)  -->
<svg version="1.1" id="Layer_1" xmlns="http://www.w3.org/2000/svg" xmlns:xlink="http://www.w3.org/1999/xlink" x="0px" y="0px"
	 viewBox="0 0 154.9 46.1" style="enable-background:new 0 0 154.9 46.1;" xml:space="preserve">
<style type="text/css">
	.st0{clip-path:url(#SVGID_2_);fill-rule:evenodd;clip-rule:evenodd;fill:#8CC9E8;}
	.st1{clip-path:url(#SVGID_2_);}
	.st2{clip-path:url(#SVGID_4_);fill-rule:evenodd;clip-rule:evenodd;fill:#8CC9E8;}
	.st3{clip-path:url(#SVGID_4_);fill-rule:evenodd;clip-rule:evenodd;fill:#4E88C6;}
	.st4{fill:#FFFFFF;}
	.st5{font-family:'CastleT-Book';}
	.st6{font-size:5.9339px;}
	.st7{clip-path:url(#SVGID_6_);fill-rule:evenodd;clip-rule:evenodd;fill:#C9212B;}
	.st8{clip-path:url(#SVGID_6_);fill-rule:evenodd;clip-rule:evenodd;fill:#FFFFFF;}
</style>
<g>
	<g>
		<defs>
			<polygon id="SVGID_1_" points="15.1,0 137.4,0 137.4,46.2 15.1,45.2 			"/>
		</defs>
		<clipPath id="SVGID_2_">
			<use xlink:href="#SVGID_1_"  style="overflow:visible;"/>
		</clipPath>
		<polygon class="st0" points="104.4,31.7 101.4,35.4 103.1,31.3 104.1,31 		"/>
		<polygon class="st0" points="104.4,31.7 109.4,32.8 105.1,30.6 104.1,31 		"/>
		<polygon class="st0" points="105.1,30.6 106.9,26.5 103.8,30.2 104.1,31 		"/>
		<polygon class="st0" points="103.8,31.7 106.8,35.4 105.1,31.3 104.1,31 		"/>
		<polygon class="st0" points="105,31.3 109.4,29.2 104.4,30.2 104.1,31 		"/>
		<polygon class="st0" points="104,32 109.4,35.2 105.3,31 104,31 		"/>
		<polygon class="st0" points="105.3,31 109.4,26.9 104,30 104,31 		"/>
		<polygon class="st0" points="105.5,32.2 104.1,41.3 102.7,32.2 104.1,31 		"/>
		<polygon class="st0" points="105.5,32.2 115.7,31 105.5,29.7 104.1,31 		"/>
		<polygon class="st0" points="105.5,29.7 104.1,16.8 102.7,29.7 104.1,31 		"/>
		<g class="st1">
			<defs>
				<polygon id="SVGID_3_" points="15.1,0 137.4,0 137.4,46.2 15.1,45.2 				"/>
			</defs>
			<clipPath id="SVGID_4_">
				<use xlink:href="#SVGID_3_"  style="overflow:visible;"/>
			</clipPath>
			<path class="st2" d="M104.2,30.8c-0.1-0.1-0.2-0.1-0.3,0c-0.1,0.1-0.1,0.2,0,0.3c0.1,0.1,0.2,0.1,0.4,0
				C104.3,31,104.3,30.9,104.2,30.8"/>
			<path class="st2" d="M104.9,42.8L104.9,42.8l0.3-0.8h-0.1l0,0.1c-0.2-0.1-0.4-0.2-0.8-0.2c-0.5,0-0.9,0.3-0.9,0.7
				c0,0.3,0.2,0.6,0.5,0.8c0.4,0.4,0.6,0.5,0.6,0.8c0,0.3-0.2,0.7-0.9,0.7c-0.6,0-0.9-0.4-0.9-0.7c0-0.2,0.2-0.5,0.5-0.5
				c0.1,0,0.1,0,0.2,0.1h-0.1c-0.1,0-0.2,0.1-0.2,0.2s0.1,0.2,0.2,0.2c0.1,0,0.3-0.1,0.3-0.3c0-0.1-0.2-0.3-0.4-0.3
				c-0.3,0-0.6,0.3-0.6,0.6c0,0.3,0.3,0.7,1,0.7c0.8,0,1.2-0.5,1.2-0.9c0-0.4-0.3-0.6-0.4-0.8c-0.5-0.4-0.7-0.6-0.7-0.9
				c0-0.2,0.1-0.5,0.6-0.5c0.4,0,0.6,0.2,0.6,0.5c0,0.1,0,0.1,0,0.2L104.9,42.8z"/>
			<path class="st2" d="M86.4,31.1c0.1-3.7,0.8-7,3.1-10c0.3,0.2,0.6,0.3,1,0.4c-2.3,2.8-3,6-3.1,9.5H86.4z M95,16.5
				c0.3-0.2,0.7-0.4,1-0.6c7-4.1,19.1-1.9,23.9,6.7c2.9,5.1,3,11.1,0.8,16.2l-0.8-0.5c2.1-4.7,2-10.4-0.7-15.2
				c-4.6-8.1-16.1-10.1-22.7-6.3c-0.4,0.2-0.7,0.4-1.1,0.6C95.3,17.1,95.2,16.8,95,16.5"/>
			<polygon class="st2" points="103.1,31.3 98.8,29.2 103.8,30.2 104.1,31 			"/>
			<polygon class="st2" points="103.8,31.7 98.8,32.8 103.1,30.6 104.1,31 			"/>
			<polygon class="st2" points="103.1,30.6 101.3,26.5 104.4,30.2 104.1,31 			"/>
			<polygon class="st2" points="104,32 98.7,35.2 102.7,31 104,31 			"/>
			<polygon class="st2" points="102.7,31 98.7,26.9 104,30 104,31 			"/>
			<polygon class="st2" points="102.7,32.2 92.5,31 102.7,29.7 104.1,31 			"/>
			<path class="st2" d="M90.6,29.1c-1.3,0-1.9,1-1.9,1.8c0,0.9,0.8,1.3,1.5,1.3c1.3,0,2-1,2-1.8C92.1,29.6,91.4,29.1,90.6,29.1
				 M119.2,32.4c0,0.1-0.1,0.1-0.1,0.1c-0.1,0.1-0.3,0.2-0.6,0.2c-0.4,0-0.9-0.1-1.7-0.5c-0.4-0.2-0.4-0.2-0.7-0.3
				c0.1-0.1,0.2-0.2,0.3-0.5c0.1-0.3,0.2-0.7,0.3-1c0.1-0.6,0.2-0.8,0.4-1c0.1,0,0.2-0.1,0.4-0.1c0.2,0,0.5,0.1,0.5,0.4
				c0,0.1-0.1,0.2-0.2,0.3c0,0-0.1,0-0.1,0l0.1-0.1v-0.1c0-0.1-0.1-0.2-0.2-0.2c-0.1,0-0.2,0.1-0.2,0.2c0,0.1,0.1,0.2,0.3,0.2
				c0.2,0,0.4-0.2,0.4-0.4c0-0.3-0.2-0.4-0.6-0.4c-0.3,0-0.7,0.2-1,0.6c-0.2,0.4-0.3,1-0.4,1.5c-0.1,0.3-0.1,0.3-0.2,0.6
				c-0.2,0-0.3-0.1-0.5-0.1c-0.2,0-0.3,0-0.4,0.1c0,0.1-0.1,0.1-0.1,0.2c0,0.2,0.2,0.2,0.4,0.2c0.4,0,0.6-0.2,0.8-0.3
				c0.1,0,0.2,0.1,0.3,0.1c0.3,0.1,0.5,0.3,0.8,0.4c0.2,0.1,0.4,0.2,0.7,0.3c0.2,0.1,0.4,0.1,0.6,0.1c0.3,0,0.5-0.1,0.6-0.2
				C119.1,32.6,119.2,32.5,119.2,32.4L119.2,32.4z M117.1,31.9c-0.1,0.1-0.2,0.3-0.6,0.3c-0.3,0-0.3-0.1-0.3-0.2
				c0-0.1,0.1-0.1,0.2-0.2c0.1,0,0.1,0,0.2,0C116.8,31.8,116.9,31.9,117.1,31.9 M89.1,31.1c0-0.7,0.5-1.9,1.5-1.9
				c0.5,0,1.1,0.3,1.1,1.1c0,0.7-0.5,1.9-1.5,1.9C89.7,32.2,89.1,31.9,89.1,31.1"/>
			<path class="st3" d="M92.5,24.2c0.2,0,0.4,0,0.5,0C92.8,24.3,92.7,24.2,92.5,24.2"/>
		</g>
		<g class="st1">
			<text transform="matrix(1.0245 0 0 1 28.7695 28.2822)"><tspan x="0" y="0" class="st4 st5 st6">Um pa</tspan><tspan x="16.7" y="0" class="st4 st5 st6">r</tspan><tspan x="18.4" y="0" class="st4 st5 st6">cei</tspan><tspan x="25.8" y="0" class="st4 st5 st6">r</tspan><tspan x="27.5" y="0" class="st4 st5 st6">o de futu</tspan><tspan x="50.7" y="0" class="st4 st5 st6">r</tspan><tspan x="52.5" y="0" class="st4 st5 st6">o</tspan></text>
		</g>
		<g class="st1">
			<defs>
				<polygon id="SVGID_5_" points="15.1,0 137.4,0 137.4,46.2 15.1,45.2 				"/>
			</defs>
			<clipPath id="SVGID_6_">
				<use xlink:href="#SVGID_5_"  style="overflow:visible;"/>
			</clipPath>
			<path class="st7" d="M104.1,19.1l1.1,11.6c0,1.4-2.3,1.4-2.3,0L104.1,19.1z"/>
			<path class="st8" d="M92.4,10.1c-2.1,0-3.9,0.5-5.2,1.4c-1.4,1-2.2,2.8-2.2,4.9c0,2.2,0.6,3.7,1.9,4.9c1.3,1.2,2.9,1.6,5.4,1.6
				c5,0,7.6-2.2,7.6-6.4C99.8,12.4,97.2,10.1,92.4,10.1 M92.4,11.8c1.8,0,2.5,1.4,2.5,4.8c0,3.1-0.8,4.6-2.5,4.6
				c-1.8,0-2.5-1.4-2.5-4.7C89.9,13.3,90.6,11.8,92.4,11.8 M84.9,10.7c-1.3-0.5-2.3-0.6-3.9-0.6c-2.7,0-4.4,0.5-5.8,1.6
				c-1.4,1.1-1.9,2.5-1.9,4.7c0,4.4,2.4,6.5,7.3,6.5c1.7,0,2.8-0.2,4.3-0.7v-2.6c-1.4,1-2.3,1.3-3.4,1.3c-0.9,0-1.7-0.4-2.3-1
				c-0.7-0.8-1-1.9-1-3.6c0-2.8,1.2-4.4,3.2-4.4c1.1,0,2.1,0.4,3.5,1.4V10.7z M63.8,10.3c0.1,0.2,0.2,0.3,0.2,0.6v11.2
				c0,0.3,0,0.4-0.2,0.6h8.9v-2c-0.2,0.1-0.2,0.1-0.8,0.1h-3.2v-3.5H72c0.4,0,0.5,0,0.7,0.1v-1.9c-0.2,0.1-0.3,0.1-0.8,0.1h-3.3V12
				H72c0.3,0,0.4,0,0.7,0.1v-1.8H63.8z M50.5,10.3c0.1,0.2,0.1,0.3,0.1,0.6v11.2c0,0.3,0,0.4-0.1,0.6h7.1c3.6,0,6-2.5,6-6.3
				c0-4-2.4-6.1-7.2-6.1H50.5z M55.3,20.8v-8.6h0.4c1.8,0,2.9,1.6,2.9,4.3c0,2.8-1,4.3-2.8,4.3H55.3z M40.9,10.3
				c0.1,0.2,0.1,0.3,0.1,0.6v11.2c0,0.3,0,0.4-0.1,0.6h8.9v-2c-0.3,0.1-0.3,0.1-0.8,0.1h-3.3v-3.5h3.4c0.4,0,0.5,0,0.7,0.1v-1.9
				c-0.2,0.1-0.3,0.1-0.8,0.1h-3.3V12h3.4c0.3,0,0.4,0,0.7,0.1v-1.8H40.9z M40.4,10.7c-1.3-0.5-2.3-0.6-3.9-0.6
				c-2.6,0-4.4,0.5-5.8,1.6c-1.4,1.1-1.9,2.5-1.9,4.7c0,4.4,2.4,6.5,7.3,6.5c1.7,0,2.8-0.2,4.3-0.7v-2.6C38.9,20.7,38,21,37,21
				c-0.9,0-1.7-0.4-2.3-1c-0.7-0.8-1-1.9-1-3.6c0-2.8,1.2-4.4,3.2-4.4c1.1,0,2.1,0.4,3.5,1.4V10.7z"/>
			<path class="st8" d="M121.9,1.8c-0.3-0.1-0.7-0.2-1-0.2s-0.8,0.1-1.1,0.2c-0.4,0.1-0.8,0.4-1.2,0.7c0,0,0,0,0,0
				c-1.6,1.4-2.2,4.4-3,7.2v0l-3.7,14.9c0,0.1-0.2,0.2-0.3,0.2c-0.1,0-0.2-0.1-0.2-0.2l-6.8-15.9l-1.7,6.4c-0.3,1.3-0.6,2.4-1,3.5
				c-0.4,1.1-0.9,2.1-1.6,3c-0.3,0.4-0.9,1.2-1.9,1.9c-1,0.7-2.4,1.3-4.3,1.3c-0.7,0-1.4,0-2-0.2c-0.6-0.2-1.2-0.5-1.6-1.2
				c-0.1-0.1,0-0.3,0.1-0.3c0.1,0,0.1,0,0.2,0c0.1,0,0.2,0,0.3,0c0.1,0,0.2,0,0.3,0c0.1,0,0.2,0,0.2,0.1c0.3,0.2,0.5,0.3,0.7,0.4
				c0.3,0.1,0.7,0.1,1.4,0.1c5.4,0.2,6.9-5.4,7.7-8.6l0-0.1v0l2-8h-2.7c-0.2,0-0.3-0.1-0.3-0.3c0,0,0,0,0-0.1l0.1-0.4
				c0-0.1,0.1-0.2,0.3-0.2h5.4c0.1,0,0.2,0.1,0.3,0.2l5.4,12.6l2.4-9.5V9.3c0.8-2.7,2.1-8.7,6.4-8.7c0.9,0,1.7,0.2,2.2,0.6
				c0.6,0.4,0.9,1.1,0.9,1.7c0,0.6-0.2,1-0.6,1.4c-0.4,0.4-0.9,1.6-1.5,1.6c-0.5,0-0.9-1.1-1.3-1.4c-0.3-0.3-0.5-0.7-0.5-1.1
				c0-0.4,0.2-0.8,0.6-1.1C120.9,1.9,121.3,1.8,121.9,1.8L121.9,1.8z"/>
		</g>
	</g>
</g>
</svg>
