<?xml version="1.0" encoding="utf-8"?>
<!-- Generator: Adobe Illustrator 25.0.0, SVG Export Plug-In . SVG Version: 6.00 Build 0)  -->
<svg version="1.1" id="Camada_1" xmlns="http://www.w3.org/2000/svg" xmlns:xlink="http://www.w3.org/1999/xlink" x="0px" y="0px"
	 viewBox="0 0 314.9 122.5" style="enable-background:new 0 0 314.9 122.5;" xml:space="preserve">
<style type="text/css">
	.st0{fill:#7B878D;}
</style>
<g>
	<g>
		<path class="st0" d="M92,37.2L50,22.4c-0.6-0.2-1.2-0.2-1.7,0l-42,14.8c-1,0.4-1.7,1.4-1.7,2.5c0,1.1,0.7,2.1,1.7,2.5l42,14.9
			c0.3,0.1,0.6,0.2,0.9,0.2c0.3,0,0.6-0.1,0.9-0.2l42-14.9c1-0.4,1.7-1.4,1.7-2.5C93.8,38.6,93.1,37.6,92,37.2z"/>
		<path class="st0" d="M87.5,72.1V49.3l-5.2,1.9v20.9c-1.6,0.9-2.6,2.6-2.6,4.6c0,1.9,1.1,3.6,2.6,4.6v12.8c0,1.4,1.2,2.6,2.6,2.6
			c1.4,0,2.6-1.2,2.6-2.6V81.2c1.6-0.9,2.6-2.6,2.6-4.6C90.1,74.7,89,73,87.5,72.1z"/>
		<path class="st0" d="M49.1,62.5c-0.9,0-1.8-0.2-2.6-0.5l-23.6-8.4v11.5c0,2.8,2.9,5.2,8.7,7.1c5,1.6,11.3,2.5,17.5,2.5
			s12.5-0.9,17.5-2.5c5.8-1.9,8.7-4.3,8.7-7.1V53.6L51.8,62C50.9,62.3,50,62.5,49.1,62.5z"/>
	</g>
	<g>
		<path class="st0" d="M116.9,48c-3.7,0-6.5-1-8.5-3.1c-1.9-2.1-2.9-5-2.9-8.8c0-1.9,0.3-3.6,0.9-5.1c0.6-1.5,1.4-2.7,2.4-3.8
			c1-1,2.3-1.8,3.7-2.3c1.4-0.5,3-0.8,4.7-0.8c1,0,1.8,0.1,2.6,0.2c0.8,0.1,1.5,0.3,2.1,0.5c0.6,0.2,1.1,0.4,1.5,0.6
			c0.4,0.2,0.7,0.4,0.9,0.5l-1.5,4.2c-0.7-0.4-1.5-0.7-2.5-1c-0.9-0.3-2-0.4-3.2-0.4c-0.8,0-1.6,0.1-2.3,0.4c-0.8,0.3-1.4,0.7-2,1.3
			c-0.6,0.6-1.1,1.3-1.4,2.3c-0.4,0.9-0.5,2-0.5,3.4c0,1.1,0.1,2,0.3,3c0.2,0.9,0.6,1.7,1.1,2.4c0.5,0.7,1.2,1.2,2,1.6
			c0.8,0.4,1.8,0.6,3,0.6c0.7,0,1.4,0,2-0.1c0.6-0.1,1.1-0.2,1.6-0.3c0.5-0.1,0.9-0.3,1.2-0.4c0.4-0.2,0.7-0.3,1-0.4l1.4,4.1
			c-0.7,0.4-1.7,0.8-3.1,1.2C120.1,47.8,118.6,48,116.9,48z"/>
		<path class="st0" d="M136.8,48c-1.6,0-3-0.2-4.2-0.7c-1.2-0.5-2.1-1.1-2.9-1.9c-0.8-0.8-1.3-1.8-1.7-2.9s-0.5-2.3-0.5-3.7V24.7
			h5.1v13.8c0,0.9,0.1,1.7,0.3,2.4c0.2,0.6,0.5,1.2,0.9,1.6c0.4,0.4,0.8,0.7,1.3,0.9c0.5,0.2,1.1,0.3,1.7,0.3c1.3,0,2.3-0.4,3.1-1.2
			c0.8-0.8,1.2-2.1,1.2-3.9V24.7h5.1v14.2c0,1.3-0.2,2.6-0.6,3.7c-0.4,1.1-0.9,2.1-1.7,2.9c-0.8,0.8-1.8,1.4-2.9,1.9
			C139.8,47.8,138.4,48,136.8,48z"/>
		<path class="st0" d="M157.9,24.4c3.4,0,6.1,0.6,7.9,1.8c1.8,1.2,2.7,3.1,2.7,5.7c0,1.6-0.4,2.9-1.1,3.9c-0.7,1-1.8,1.8-3.2,2.4
			c0.5,0.6,0.9,1.2,1.5,2c0.5,0.7,1,1.5,1.5,2.3c0.5,0.8,1,1.6,1.4,2.5c0.5,0.9,0.9,1.7,1.3,2.6h-5.8c-0.4-0.7-0.8-1.5-1.3-2.3
			c-0.4-0.8-0.9-1.5-1.3-2.2c-0.5-0.7-0.9-1.4-1.3-2.1c-0.4-0.6-0.9-1.2-1.3-1.8h-2.5v8.3h-5.1V25c1.1-0.2,2.3-0.4,3.5-0.5
			C155.8,24.5,156.9,24.4,157.9,24.4z M158.2,28.8c-0.4,0-0.7,0-1,0c-0.3,0-0.6,0-0.8,0.1v6.2h1.5c1.9,0,3.3-0.2,4.2-0.7
			c0.8-0.5,1.3-1.3,1.3-2.5c0-1.1-0.4-1.9-1.3-2.4C161,29,159.8,28.8,158.2,28.8z"/>
		<path class="st0" d="M179.4,43.6c0.7,0,1.3-0.1,1.8-0.2c0.5-0.1,0.9-0.3,1.1-0.5c0.3-0.2,0.5-0.5,0.6-0.7c0.1-0.3,0.2-0.6,0.2-1
			c0-0.7-0.4-1.4-1.1-1.9c-0.7-0.5-1.9-1-3.6-1.6c-0.7-0.3-1.5-0.6-2.2-0.9c-0.7-0.3-1.4-0.8-2-1.3c-0.6-0.5-1.1-1.1-1.5-1.9
			c-0.4-0.7-0.6-1.6-0.6-2.7s0.2-2,0.6-2.9c0.4-0.8,1-1.6,1.7-2.2c0.7-0.6,1.6-1.1,2.6-1.4c1-0.3,2.2-0.5,3.5-0.5
			c1.5,0,2.9,0.2,4,0.5c1.1,0.3,2,0.7,2.8,1.1l-1.5,4.1c-0.6-0.3-1.3-0.6-2.1-0.9c-0.8-0.3-1.7-0.4-2.8-0.4c-1.2,0-2.1,0.2-2.7,0.5
			c-0.5,0.3-0.8,0.9-0.8,1.6c0,0.4,0.1,0.8,0.3,1.1c0.2,0.3,0.5,0.5,0.8,0.8c0.4,0.2,0.8,0.4,1.3,0.6c0.5,0.2,1,0.4,1.6,0.6
			c1.2,0.4,2.2,0.9,3.1,1.3c0.9,0.4,1.6,0.9,2.2,1.5c0.6,0.6,1,1.2,1.3,2c0.3,0.8,0.4,1.7,0.4,2.8c0,2.1-0.7,3.8-2.2,5
			s-3.7,1.8-6.8,1.8c-1,0-1.9-0.1-2.7-0.2c-0.8-0.1-1.5-0.3-2.2-0.4s-1.2-0.4-1.6-0.6c-0.5-0.2-0.8-0.4-1.1-0.6l1.5-4.1
			c0.7,0.4,1.5,0.7,2.5,1C176.7,43.5,177.9,43.6,179.4,43.6z"/>
		<path class="st0" d="M214.1,36.1c0,2-0.3,3.7-0.9,5.2c-0.6,1.5-1.4,2.7-2.4,3.7c-1,1-2.2,1.8-3.6,2.3c-1.4,0.5-2.9,0.8-4.5,0.8
			c-1.6,0-3-0.3-4.4-0.8c-1.4-0.5-2.6-1.3-3.6-2.3c-1-1-1.8-2.2-2.4-3.7c-0.6-1.5-0.9-3.2-0.9-5.2c0-2,0.3-3.7,0.9-5.2
			c0.6-1.5,1.4-2.7,2.5-3.7c1-1,2.3-1.8,3.6-2.3c1.4-0.5,2.8-0.8,4.3-0.8c1.6,0,3,0.3,4.4,0.8s2.6,1.3,3.6,2.3c1,1,1.8,2.3,2.4,3.7
			C213.8,32.4,214.1,34.1,214.1,36.1z M196.7,36.1c0,1.1,0.1,2.1,0.4,3c0.3,0.9,0.7,1.7,1.2,2.3c0.5,0.6,1.1,1.2,1.9,1.5
			c0.7,0.4,1.6,0.5,2.6,0.5c0.9,0,1.8-0.2,2.6-0.5c0.8-0.4,1.4-0.9,1.9-1.5c0.5-0.6,0.9-1.4,1.2-2.3c0.3-0.9,0.4-1.9,0.4-3
			c0-1.1-0.1-2.1-0.4-3.1s-0.7-1.7-1.2-2.3c-0.5-0.6-1.2-1.1-1.9-1.5c-0.8-0.4-1.6-0.5-2.6-0.5c-1,0-1.8,0.2-2.6,0.5
			c-0.7,0.4-1.4,0.9-1.9,1.5c-0.5,0.6-0.9,1.4-1.2,2.3C196.8,34,196.7,35,196.7,36.1z"/>
		<path class="st0" d="M246.4,36.1c0,2-0.3,3.7-0.9,5.2c-0.6,1.5-1.5,2.7-2.6,3.7c-1.1,1-2.5,1.7-4.1,2.2c-1.6,0.5-3.5,0.7-5.5,0.7
			c-0.9,0-2,0-3.2-0.1c-1.2-0.1-2.4-0.2-3.6-0.5V25c1.2-0.2,2.4-0.4,3.7-0.4c1.3-0.1,2.4-0.1,3.3-0.1c2,0,3.7,0.2,5.3,0.7
			c1.6,0.4,3,1.1,4.1,2.1c1.1,0.9,2,2.2,2.6,3.6C246.1,32.3,246.4,34,246.4,36.1z M231.5,43.4c0.2,0,0.5,0,0.8,0.1
			c0.3,0,0.7,0,1.1,0c2.6,0,4.5-0.6,5.7-1.9c1.2-1.3,1.9-3.1,1.9-5.4c0-2.4-0.6-4.2-1.8-5.4c-1.2-1.2-3.1-1.8-5.6-1.8
			c-0.4,0-0.7,0-1.1,0c-0.4,0-0.7,0-1.1,0.1V43.4z"/>
		<path class="st0" d="M250.7,47.6V24.7h15.4V29h-10.3v4.5h9.1v4.2h-9.1v5.5h11.1v4.3H250.7z"/>
		<path class="st0" d="M117.6,68.2c-2.4,0-4.1,0.7-5.2,2c-1.1,1.3-1.6,3.2-1.6,5.5c0,1.1,0.1,2.1,0.4,3.1c0.3,0.9,0.7,1.7,1.2,2.4
			s1.2,1.2,2,1.5c0.8,0.4,1.7,0.5,2.8,0.5c0.6,0,1.1,0,1.5,0c0.4,0,0.8-0.1,1.1-0.1v-8h5.1v11.3c-0.6,0.2-1.6,0.5-3,0.8
			c-1.4,0.3-3,0.4-5,0.4c-1.7,0-3.3-0.3-4.7-0.8c-1.4-0.5-2.6-1.3-3.6-2.3c-1-1-1.8-2.3-2.3-3.7c-0.5-1.5-0.8-3.2-0.8-5
			c0-1.9,0.3-3.6,0.9-5.1c0.6-1.5,1.4-2.7,2.4-3.7c1-1,2.2-1.8,3.6-2.3c1.4-0.5,2.9-0.8,4.5-0.8c1.1,0,2.1,0.1,2.9,0.2
			c0.9,0.1,1.6,0.3,2.2,0.5c0.6,0.2,1.1,0.4,1.6,0.6c0.4,0.2,0.7,0.4,0.9,0.5l-1.5,4.1c-0.7-0.4-1.5-0.7-2.4-1
			C119.7,68.4,118.7,68.2,117.6,68.2z"/>
		<path class="st0" d="M136.3,64c3.4,0,6.1,0.6,7.9,1.8c1.8,1.2,2.7,3.1,2.7,5.7c0,1.6-0.4,2.9-1.1,3.9c-0.7,1-1.8,1.8-3.2,2.4
			c0.5,0.6,0.9,1.2,1.5,2s1,1.5,1.5,2.3c0.5,0.8,1,1.6,1.4,2.5c0.5,0.9,0.9,1.7,1.3,2.6h-5.8c-0.4-0.7-0.8-1.5-1.3-2.3
			c-0.4-0.8-0.9-1.5-1.3-2.2c-0.5-0.7-0.9-1.4-1.3-2.1c-0.4-0.6-0.9-1.2-1.3-1.8h-2.5v8.3h-5.1V64.6c1.1-0.2,2.3-0.4,3.5-0.5
			C134.3,64.1,135.4,64,136.3,64z M136.6,68.4c-0.4,0-0.7,0-1,0c-0.3,0-0.6,0-0.8,0.1v6.2h1.5c1.9,0,3.3-0.2,4.2-0.7
			c0.8-0.5,1.3-1.3,1.3-2.5c0-1.1-0.4-1.9-1.3-2.4C139.5,68.6,138.3,68.4,136.6,68.4z"/>
		<path class="st0" d="M168,87.1c-0.3-0.8-0.5-1.6-0.8-2.4c-0.3-0.8-0.6-1.7-0.9-2.5h-8.9c-0.3,0.8-0.6,1.7-0.9,2.5
			c-0.3,0.8-0.6,1.7-0.8,2.4h-5.3c0.9-2.5,1.7-4.7,2.5-6.8c0.8-2.1,1.5-4.1,2.3-5.9c0.7-1.8,1.5-3.6,2.2-5.3
			c0.7-1.7,1.5-3.3,2.2-4.9h4.9c0.8,1.6,1.5,3.2,2.2,4.9c0.7,1.7,1.5,3.4,2.2,5.3c0.7,1.8,1.5,3.8,2.3,5.9c0.8,2.1,1.6,4.4,2.5,6.8
			H168z M161.8,69.5c-0.1,0.3-0.3,0.8-0.5,1.4s-0.5,1.2-0.8,2c-0.3,0.7-0.6,1.6-0.9,2.5c-0.4,0.9-0.7,1.8-1.1,2.8h6.5
			c-0.4-1-0.7-1.9-1-2.8c-0.3-0.9-0.6-1.7-0.9-2.5c-0.3-0.7-0.6-1.4-0.8-2C162.1,70.2,161.9,69.8,161.8,69.5z"/>
		<path class="st0" d="M196.5,75.7c0,2-0.3,3.7-0.9,5.2c-0.6,1.5-1.5,2.7-2.6,3.7c-1.1,1-2.5,1.7-4.1,2.2s-3.5,0.7-5.5,0.7
			c-0.9,0-2,0-3.2-0.1c-1.2-0.1-2.4-0.2-3.6-0.5V64.6c1.2-0.2,2.4-0.4,3.7-0.4c1.3-0.1,2.4-0.1,3.3-0.1c2,0,3.7,0.2,5.3,0.7
			c1.6,0.4,3,1.1,4.1,2.1c1.1,0.9,2,2.2,2.6,3.6C196.2,71.9,196.5,73.6,196.5,75.7z M181.6,83c0.2,0,0.5,0,0.8,0s0.7,0,1.1,0
			c2.6,0,4.5-0.6,5.7-1.9c1.2-1.3,1.9-3.1,1.9-5.4c0-2.4-0.6-4.2-1.8-5.4c-1.2-1.2-3.1-1.8-5.6-1.8c-0.4,0-0.7,0-1.1,0
			s-0.7,0-1.1,0.1V83z"/>
		<path class="st0" d="M209.7,87.6c-1.6,0-3-0.2-4.2-0.7s-2.1-1.1-2.9-1.9c-0.8-0.8-1.3-1.8-1.7-2.9c-0.4-1.1-0.5-2.3-0.5-3.7V64.3
			h5.1v13.8c0,0.9,0.1,1.7,0.3,2.4c0.2,0.6,0.5,1.2,0.9,1.6c0.4,0.4,0.8,0.7,1.3,0.9c0.5,0.2,1.1,0.3,1.7,0.3c1.3,0,2.3-0.4,3.1-1.2
			s1.2-2.1,1.2-3.9V64.3h5.1v14.2c0,1.3-0.2,2.6-0.6,3.7c-0.4,1.1-0.9,2.1-1.7,2.9c-0.8,0.8-1.8,1.4-2.9,1.9
			C212.7,87.4,211.3,87.6,209.7,87.6z"/>
		<path class="st0" d="M238.8,87.1c-0.3-0.8-0.5-1.6-0.8-2.4c-0.3-0.8-0.6-1.7-0.9-2.5h-8.9c-0.3,0.8-0.6,1.7-0.9,2.5
			c-0.3,0.8-0.6,1.7-0.8,2.4h-5.3c0.9-2.5,1.7-4.7,2.5-6.8c0.8-2.1,1.5-4.1,2.3-5.9c0.7-1.8,1.5-3.6,2.2-5.3
			c0.7-1.7,1.5-3.3,2.2-4.9h4.9c0.8,1.6,1.5,3.2,2.2,4.9c0.7,1.7,1.5,3.4,2.2,5.3c0.7,1.8,1.5,3.8,2.3,5.9c0.8,2.1,1.6,4.4,2.5,6.8
			H238.8z M232.6,69.5c-0.1,0.3-0.3,0.8-0.5,1.4s-0.5,1.2-0.8,2c-0.3,0.7-0.6,1.6-0.9,2.5c-0.4,0.9-0.7,1.8-1.1,2.8h6.5
			c-0.4-1-0.7-1.9-1-2.8c-0.3-0.9-0.6-1.7-0.9-2.5c-0.3-0.7-0.6-1.4-0.8-2C232.9,70.2,232.7,69.8,232.6,69.5z"/>
		<path class="st0" d="M258,87.6c-0.1,0.2-0.2,0.3-0.2,0.5c-0.1,0.2-0.1,0.3-0.2,0.4c0.7,0.4,1.2,0.8,1.5,1.3c0.3,0.5,0.4,1,0.4,1.5
			c0,1.1-0.4,1.9-1.3,2.4c-0.8,0.5-1.9,0.8-3.3,0.8c-0.5,0-1,0-1.5-0.1c-0.5-0.1-1-0.2-1.5-0.3l0.6-2.9c0.2,0,0.4,0.1,0.8,0.2
			c0.4,0.1,0.8,0.1,1.2,0.1c0.3,0,0.6-0.1,0.8-0.2c0.2-0.1,0.4-0.3,0.4-0.6c0-0.3-0.1-0.5-0.3-0.7c-0.2-0.2-0.6-0.4-1.1-0.5
			l-0.4-0.1c0.1-0.3,0.2-0.6,0.3-0.9s0.3-0.7,0.4-1c-3.1-0.4-5.4-1.6-7-3.6c-1.6-2-2.4-4.7-2.4-8.2c0-1.9,0.3-3.6,0.9-5.1
			c0.6-1.5,1.4-2.7,2.4-3.8c1-1,2.3-1.8,3.7-2.3c1.4-0.5,3-0.8,4.7-0.8c1,0,1.8,0.1,2.6,0.2c0.8,0.1,1.5,0.3,2.1,0.5
			c0.6,0.2,1.1,0.4,1.5,0.6c0.4,0.2,0.7,0.4,0.9,0.5l-1.5,4.2c-0.7-0.4-1.5-0.7-2.5-1c-0.9-0.3-2-0.4-3.2-0.4
			c-0.8,0-1.6,0.1-2.3,0.4c-0.8,0.3-1.4,0.7-2,1.3c-0.6,0.6-1.1,1.3-1.4,2.3s-0.5,2-0.5,3.4c0,1.1,0.1,2,0.3,3
			c0.2,0.9,0.6,1.7,1.1,2.4c0.5,0.7,1.2,1.2,2,1.6c0.8,0.4,1.8,0.6,3,0.6c0.7,0,1.4,0,2-0.1c0.6-0.1,1.1-0.2,1.6-0.3
			c0.5-0.1,0.9-0.3,1.2-0.4c0.4-0.2,0.7-0.3,1-0.4l1.4,4.1c-0.6,0.4-1.5,0.8-2.6,1.1C260.7,87.3,259.4,87.5,258,87.6z"/>
		<path class="st0" d="M284,87.1c-0.3-0.8-0.5-1.6-0.8-2.4c-0.3-0.8-0.6-1.7-0.9-2.5h-8.9c-0.3,0.8-0.6,1.7-0.9,2.5
			c-0.3,0.8-0.6,1.7-0.8,2.4h-5.3c0.9-2.5,1.7-4.7,2.5-6.8c0.8-2.1,1.5-4.1,2.3-5.9c0.7-1.8,1.5-3.6,2.2-5.3
			c0.7-1.7,1.5-3.3,2.2-4.9h4.9c0.8,1.6,1.5,3.2,2.2,4.9c0.7,1.7,1.5,3.4,2.2,5.3c0.7,1.8,1.5,3.8,2.3,5.9c0.8,2.1,1.6,4.4,2.5,6.8
			H284z M284.1,58.4c-0.1,0.3-0.3,0.7-0.5,1.1c-0.2,0.4-0.5,0.8-0.8,1.1c-0.3,0.3-0.7,0.6-1.1,0.8c-0.4,0.2-0.9,0.3-1.4,0.3
			c-0.4,0-0.8-0.1-1.1-0.2c-0.3-0.1-0.7-0.3-1-0.4c-0.3-0.1-0.7-0.3-1-0.4c-0.3-0.1-0.7-0.2-1-0.2c-0.4,0-0.8,0.1-1.1,0.4
			c-0.3,0.3-0.5,0.6-0.7,1l-2.4-1.6c0.1-0.3,0.3-0.7,0.5-1.1c0.2-0.4,0.5-0.8,0.8-1.1c0.3-0.3,0.7-0.6,1.1-0.8
			c0.4-0.2,0.9-0.3,1.4-0.3c0.4,0,0.8,0.1,1.1,0.2c0.3,0.1,0.7,0.3,1,0.4c0.3,0.1,0.7,0.3,1,0.4c0.3,0.1,0.7,0.2,1,0.2
			c0.4,0,0.8-0.1,1.1-0.4c0.3-0.3,0.5-0.6,0.7-1L284.1,58.4z M277.8,69.5c-0.1,0.3-0.3,0.8-0.5,1.4c-0.2,0.6-0.5,1.2-0.8,2
			c-0.3,0.7-0.6,1.6-0.9,2.5c-0.4,0.9-0.7,1.8-1.1,2.8h6.5c-0.4-1-0.7-1.9-1-2.8c-0.3-0.9-0.6-1.7-0.9-2.5c-0.3-0.7-0.6-1.4-0.8-2
			C278.2,70.2,278,69.8,277.8,69.5z"/>
		<path class="st0" d="M313.4,75.7c0,2-0.3,3.7-0.9,5.2c-0.6,1.5-1.4,2.7-2.4,3.7c-1,1-2.2,1.8-3.6,2.3c-1.4,0.5-2.9,0.8-4.5,0.8
			c-1.6,0-3-0.3-4.4-0.8c-1.4-0.5-2.6-1.3-3.6-2.3c-1-1-1.8-2.2-2.4-3.7c-0.6-1.5-0.9-3.2-0.9-5.2c0-2,0.3-3.7,0.9-5.2
			c0.6-1.5,1.4-2.7,2.5-3.7c1-1,2.3-1.8,3.6-2.3c1.4-0.5,2.8-0.8,4.3-0.8c1.6,0,3,0.3,4.4,0.8s2.6,1.3,3.6,2.3c1,1,1.8,2.3,2.4,3.7
			C313.1,72,313.4,73.7,313.4,75.7z M296,75.7c0,1.1,0.1,2.1,0.4,3c0.3,0.9,0.7,1.7,1.2,2.3c0.5,0.6,1.1,1.1,1.9,1.5
			c0.7,0.4,1.6,0.5,2.6,0.5c0.9,0,1.8-0.2,2.6-0.5c0.8-0.4,1.4-0.9,1.9-1.5c0.5-0.6,0.9-1.4,1.2-2.3c0.3-0.9,0.4-1.9,0.4-3
			s-0.1-2.1-0.4-3.1c-0.3-0.9-0.7-1.7-1.2-2.3c-0.5-0.6-1.2-1.2-1.9-1.5c-0.8-0.4-1.6-0.5-2.6-0.5c-1,0-1.8,0.2-2.6,0.5
			c-0.7,0.4-1.4,0.9-1.9,1.5c-0.5,0.6-0.9,1.4-1.2,2.3C296.1,73.6,296,74.6,296,75.7z"/>
	</g>
</g>
</svg>
